# File generated by ImageToStl.com - Free Image and 3D model conversion tools

mtllib ammo_box_-_fortnite.mtl

o obj1
v -0.14240432 0.37712952 0.16877182
v -0.1388662 0.37195095 0.17760257
v -0.13860863 0.33038846 0.17419033
v -0.17226106 0.37195095 0.17760262
v -0.169038 0.37873027 0.16848169
v -0.17422378 0.32975042 0.17549063
v 0.21567616 0.37712955 0.1687718
v 0.21921425 0.37195095 0.17760257
v 0.2194718 0.33038846 0.17419033
v 0.18581937 0.37195095 0.17760262
v 0.18904245 0.37873027 0.16848171
v 0.18385668 0.32975045 0.17549063
v -0.13819703 0.3818216 -0.16373444
v -0.13558143 0.43400952 -0.16862561
v -0.13586782 0.42860031 -0.16162975
v 0.2198834 0.38182163 -0.16373444
v 0.22249903 0.43400952 -0.16862561
v 0.22221261 0.42860031 -0.16162975
v -0.09087048 0.47266686 0.02327104
v -0.1034262 0.46507108 0.0230193
v -0.09034961 0.4569619 0.02355577
v -0.02446786 0.48978809 0.02314167
v -0.09408519 0.46790844 0.02301701
v -0.02372434 0.48587552 0.02312374
v 0.07813417 0.48587552 0.02312376
v 0.07888662 0.48978809 0.02314166
v 0.15156232 0.47136134 0.02339791
v 0.14809871 0.46809363 0.02301598
v 0.1417921 0.46849597 0.02357649
v 0.14911507 0.45757562 0.02298501
v 0.1577841 0.46507108 0.0230193
v -0.09719488 0.47136012 -0.01233606
v -0.08676935 0.46803248 -0.01297007
v -0.10079139 0.45878047 -0.01283163
v -0.02372434 0.48587552 -0.01206688
v -0.09373577 0.46809319 -0.01195384
v -0.02446786 0.48978809 -0.01208584
v 0.07888662 0.48978809 -0.01208581
v 0.07813417 0.48587552 -0.01206688
v 0.14844967 0.46790835 -0.01195469
v 0.15044382 0.47060692 -0.01203095
v 0.14911507 0.45757562 -0.01191999
v 0.1387888 0.46629369 -0.01056543
v 0.1577841 0.46507108 -0.01195629
v 0.22350606 0.0432668 -0.11574872
v -0.17881775 0.04326681 -0.11574874
v -0.17881775 0.04326681 0.12692544
v 0.22350606 0.04326681 0.12692544
v -0.13820238 0.38449219 0.17822826
v -0.14240432 0.37712952 0.16877182
v -0.13586153 0.42872921 0.17371395
v -0.13558143 0.43400952 0.18068361
v -0.169038 0.37873027 0.16848169
v -0.17171293 0.38449216 0.17822829
v -0.16954876 0.43401006 0.18068293
v -0.16978517 0.4286004 0.17368752
v -0.16333799 0.03321251 -0.09914695
v -0.10339876 0.03321251 -0.09914693
v -0.12264992 0.00220839 -0.09924283
v -0.15543164 0.01119458 -0.09844153
v 0.14877293 0.03321251 -0.09914695
v 0.20871218 0.03321251 -0.09914693
v 0.18946101 0.00220839 -0.09924283
v 0.15667929 0.01119458 -0.09844153
v -0.16333799 0.03321251 0.08309813
v -0.10339876 0.03321251 0.08309815
v -0.12264992 0.00220839 0.08300225
v -0.15543164 0.01119458 0.08380356
v 0.14877293 0.03321251 0.08309813
v 0.20871218 0.03321251 0.08309815
v 0.18946101 0.00220839 0.08300226
v 0.15667929 0.01119458 0.08380356
v 0.21987806 0.38449219 0.17822826
v 0.21567616 0.37712955 0.1687718
v 0.22221892 0.42872921 0.17371395
v 0.22249903 0.43400952 0.18068361
v 0.18904245 0.37873027 0.16848171
v 0.18636751 0.38449216 0.17822829
v 0.1885317 0.43401006 0.18068293
v 0.18829527 0.4286004 0.17368752
v -0.17226106 0.37195095 -0.16554457
v -0.17408453 0.33022916 -0.16349502
v -0.17609182 0.33381748 -0.14910278
v -0.16992937 0.37751102 -0.1568723
v -0.16954871 0.43401006 -0.16862489
v -0.17171293 0.38449216 -0.16617019
v -0.16992937 0.37751102 -0.1568723
v -0.1697797 0.42872921 -0.16165552
v -0.16333799 0.03321252 -0.07699399
v -0.15543164 0.01119459 -0.07643715
v -0.12521528 0.00134811 -0.07441831
v -0.10339876 0.03321251 -0.07699399
v 0.14877293 0.03321252 -0.07699399
v 0.15667929 0.01119459 -0.07643715
v 0.18689565 0.00134811 -0.07441831
v 0.20871218 0.03321251 -0.07699399
v -0.16333799 0.03321252 0.1052511
v -0.15543164 0.01119459 0.10580793
v -0.12521528 0.00134811 0.10782677
v -0.10339876 0.03321251 0.1052511
v 0.14877293 0.03321252 0.1052511
v 0.15667929 0.01119459 0.10580793
v 0.18689565 0.00134811 0.10782678
v 0.20871218 0.03321251 0.1052511
v 0.18581937 0.37195095 -0.16554457
v 0.18399592 0.33022916 -0.16349502
v 0.18198864 0.33381751 -0.14910278
v 0.18815108 0.37751102 -0.15687229
v 0.18853174 0.43401006 -0.16862489
v 0.18636751 0.38449216 -0.16617019
v 0.18815108 0.37751102 -0.15687229
v 0.18830074 0.42872921 -0.16165552
v 0.18306403 0.43842232 0.02351582
v 0.17951879 0.43580383 0.02367043
v 0.23550482 0.43501523 0.0255491
v 0.17494039 0.42956528 0.0234852
v 0.17760175 0.43125013 0.02349322
v 0.22486448 0.42956528 0.02348522
v 0.22312275 0.43125013 0.02349321
v -0.20859133 0.41772652 0.14696343
v -0.19849302 0.41719165 0.14993495
v -0.17881775 0.04326681 0.12692544
v 0.24198546 0.41719165 0.14993495
v 0.22350606 0.04326681 0.12692544
v 0.25543004 0.41865367 0.14053755
v 0.2550413 0.41719165 -0.12580256
v 0.22350606 0.0432668 -0.11574872
v 0.25208208 0.41772655 -0.1358871
v 0.24198546 0.41719165 -0.13885847
v -0.19849302 0.41719165 -0.13885847
v -0.17881775 0.04326681 -0.11574874
v -0.21191972 0.41855508 -0.12963761
v -0.21154894 0.41719165 0.13687904
v -0.17881775 0.04326681 0.12692544
v -0.20859133 0.41772652 0.14696343
v 0.17760195 0.43125004 -0.01242069
v 0.17760175 0.43125013 0.02349322
v 0.22312275 0.43125013 0.02349321
v 0.22312273 0.43125007 -0.01242069
v 0.23550482 0.43501523 0.0255491
v 0.22338955 0.4362812 -0.01244593
v 0.17951879 0.43580383 0.02367043
v 0.18235275 0.43658718 -0.01244485
v 0.1759562 0.43936005 -0.01307677
v 0.17760175 0.43125013 0.02349322
v 0.17760195 0.43125004 -0.01242069
v -0.1221242 0.42956531 -0.01241224
v -0.1221242 0.42956528 0.0234852
v -0.1720483 0.42956528 0.02348522
v -0.17204836 0.42956528 -0.01241224
v -0.17250568 0.43810999 0.02352578
v -0.17250568 0.43810999 -0.01245511
v -0.13024782 0.43842232 0.02351582
v -0.12314003 0.43936005 -0.01307677
v -0.12670261 0.43580383 0.02367042
v -0.1221242 0.42956528 0.0234852
v -0.1221242 0.42956531 -0.01241224
v 0.24876951 0.41656417 0.16394491
v 0.2488946 0.42834359 0.17391913
v 0.24483864 0.38849965 0.17013068
v 0.24537978 0.396997 0.15803908
v 0.24365893 0.36794162 0.16983682
v 0.24314953 0.35967514 0.15799652
v 0.24235192 0.34619853 0.15705706
v 0.24171561 0.33601123 0.16968951
v 0.24171051 0.33592808 0.15397421
v 0.24875149 0.41630962 -0.15128459
v 0.24866322 0.4285292 -0.16096722
v 0.2686556 0.42899108 -0.13381414
v 0.26801026 0.41724747 -0.13229771
v 0.2686598 0.428992 0.14619941
v 0.26792917 0.4172461 0.14570953
v 0.24876951 0.41656417 0.16394491
v 0.2488946 0.42834359 0.17391913
v 0.24171057 0.33592808 -0.1411538
v 0.24171551 0.33601123 -0.15657169
v 0.24243784 0.34588498 -0.14534028
v 0.24366105 0.36806908 -0.15594165
v 0.24314669 0.3598761 -0.14341086
v 0.2453644 0.39732662 -0.14706905
v 0.24485575 0.38840964 -0.15708448
v 0.24875149 0.41630962 -0.15128459
v 0.24866322 0.4285292 -0.16096722
v -0.16978517 0.4286004 0.17368752
v -0.16954876 0.43401006 0.18068293
v -0.16954608 0.43407717 0.00602901
v -0.1697797 0.42872921 -0.16165552
v -0.16954871 0.43401006 -0.16862489
v -0.19796285 0.33592805 0.15397421
v -0.19796808 0.33601123 0.16968951
v -0.19862276 0.34641942 0.15932943
v -0.2000021 0.36829159 0.16797976
v -0.1994735 0.36035195 0.15618452
v -0.20183429 0.39739054 0.15993421
v -0.2012767 0.38836929 0.1700795
v -0.20645899 0.4281086 0.17412607
v -0.20587328 0.41673851 0.16391931
v 0.18829527 0.4286004 0.17368752
v 0.1885317 0.43401006 0.18068293
v 0.18853435 0.43407717 0.00602901
v 0.18830074 0.42872921 -0.16165552
v 0.18853174 0.43401006 -0.16862489
v 0.15044382 0.47060692 -0.01203095
v 0.1387888 0.46629369 -0.01056543
v 0.1417921 0.46849597 0.02357649
v 0.15156232 0.47136134 0.02339791
v 0.14844967 0.46790835 -0.01195469
v 0.14809871 0.46809363 0.02301598
v 0.07813417 0.48587552 0.02312376
v 0.07813417 0.48587552 -0.01206688
v -0.02372434 0.48587552 -0.01206688
v -0.02372434 0.48587552 0.02312374
v -0.09408519 0.46790844 0.02301701
v -0.09373577 0.46809319 -0.01195384
v -0.09719488 0.47136012 -0.01233606
v -0.09087048 0.47266686 0.02327104
v -0.08676935 0.46803248 -0.01297007
v -0.12264992 0.00220839 -0.09924283
v -0.10339876 0.03321251 -0.09914693
v -0.10339876 0.03321251 -0.07699399
v -0.12521528 0.00134811 -0.07441831
v -0.15543164 0.01119458 -0.09844153
v -0.15543164 0.01119459 -0.07643715
v -0.16333799 0.03321251 -0.09914695
v -0.16333799 0.03321252 -0.07699399
v 0.18946101 0.00220839 -0.09924283
v 0.20871218 0.03321251 -0.09914693
v 0.20871218 0.03321251 -0.07699399
v 0.18689565 0.00134811 -0.07441831
v 0.15667929 0.01119458 -0.09844153
v 0.15667929 0.01119459 -0.07643715
v 0.14877293 0.03321251 -0.09914695
v 0.14877293 0.03321252 -0.07699399
v -0.12264992 0.00220839 0.08300225
v -0.10339876 0.03321251 0.08309815
v -0.10339876 0.03321251 0.1052511
v -0.12521528 0.00134811 0.10782677
v -0.15543164 0.01119458 0.08380356
v -0.15543164 0.01119459 0.10580793
v -0.16333799 0.03321251 0.08309813
v -0.16333799 0.03321252 0.1052511
v 0.18946101 0.00220839 0.08300226
v 0.20871218 0.03321251 0.08309815
v 0.20871218 0.03321251 0.1052511
v 0.18689565 0.00134811 0.10782678
v 0.15667929 0.01119458 0.08380356
v 0.15667929 0.01119459 0.10580793
v 0.14877293 0.03321251 0.08309813
v 0.14877293 0.03321252 0.1052511
v 0.22486448 0.42956528 0.02348522
v 0.17494039 0.42956528 0.0234852
v 0.17494039 0.42956531 -0.01241224
v 0.22486454 0.42956528 -0.01241224
v 0.23550482 0.43501523 0.0255491
v 0.22532186 0.43810999 -0.01245511
v 0.18306403 0.43842232 0.02351582
v 0.1759562 0.43936005 -0.01307677
v 0.17951879 0.43580383 0.02367043
v 0.17494039 0.42956528 0.0234852
v 0.17494039 0.42956531 -0.01241224
v -0.17030656 0.43125013 0.02349321
v -0.12478556 0.43125013 0.02349322
v -0.12478576 0.43125004 -0.01242069
v -0.17030653 0.43125007 -0.01242069
v -0.17057341 0.4362812 0.0235171
v -0.17057335 0.4362812 -0.01244593
v -0.12670261 0.43580383 0.02367042
v -0.12953657 0.43658718 -0.01244485
v -0.12314003 0.43936005 -0.01307677
v -0.12478556 0.43125013 0.02349322
v -0.12478576 0.43125004 -0.01242069
v -0.20185332 0.3970243 -0.14520425
v -0.20546401 0.41675395 -0.15094067
v -0.20702517 0.42792568 -0.16121441
v -0.20126538 0.38853261 -0.15712328
v -0.19947122 0.35963917 -0.14517602
v -0.19999434 0.36807498 -0.15600081
v -0.19796808 0.33601123 -0.15657164
v -0.19860987 0.34617496 -0.14535977
v -0.19796285 0.33592808 -0.14115377
v 0.14911507 0.45757562 0.02298501
v 0.1417921 0.46849597 0.02357649
v 0.1387888 0.46629369 -0.01056543
v 0.14911507 0.45757562 -0.01191999
v 0.1577841 0.46507108 0.0230193
v 0.1577841 0.46507108 -0.01195629
v 0.15156232 0.47136134 0.02339791
v 0.15044382 0.47060692 -0.01203095
v 0.07888662 0.48978809 -0.01208581
v 0.07888662 0.48978809 0.02314166
v -0.02446786 0.48978809 0.02314167
v -0.02446786 0.48978809 -0.01208584
v -0.09719488 0.47136012 -0.01233606
v -0.09087048 0.47266686 0.02327104
v -0.1034262 0.46507108 0.0230193
v -0.10079139 0.45878047 -0.01283163
v -0.09034961 0.4569619 0.02355577
v -0.08676935 0.46803248 -0.01297007
v -0.09087048 0.47266686 0.02327104
v -0.13586153 0.42872921 0.17371395
v -0.13557854 0.43407717 0.00602903
v -0.13558143 0.43400952 0.18068361
v -0.13558143 0.43400952 -0.16862561
v -0.13586782 0.42860031 -0.16162975
v 0.24235192 0.34619853 0.15705706
v 0.24171051 0.33592808 0.15397421
v -0.19796285 0.33592805 0.15397421
v -0.19862276 0.34641942 0.15932943
v 0.24314953 0.35967514 0.15799652
v -0.1994735 0.36035195 0.15618452
v 0.24537978 0.396997 0.15803908
v -0.20183429 0.39739054 0.15993421
v 0.24876951 0.41656417 0.16394491
v -0.20587328 0.41673851 0.16391931
v -0.22395188 0.41724518 0.14734237
v 0.26792917 0.4172461 0.14570953
v 0.26801026 0.41724747 -0.13229771
v -0.22407387 0.41724789 -0.13390516
v -0.20546401 0.41675395 -0.15094067
v 0.24875149 0.41630962 -0.15128459
v 0.2453644 0.39732662 -0.14706905
v -0.20185332 0.3970243 -0.14520425
v 0.24314669 0.3598761 -0.14341086
v -0.19947122 0.35963917 -0.14517602
v 0.24243784 0.34588498 -0.14534028
v -0.19860987 0.34617496 -0.14535977
v -0.19796285 0.33592808 -0.14115377
v 0.24171057 0.33592808 -0.1411538
v 0.22221892 0.42872921 0.17371395
v 0.2225019 0.43407717 0.00602903
v 0.22249903 0.43400952 0.18068361
v 0.22249903 0.43400952 -0.16862561
v 0.22221261 0.42860031 -0.16162975
v -0.17030656 0.43125013 0.02349321
v -0.17057341 0.4362812 0.0235171
v -0.17250568 0.43810999 0.02352578
v -0.13024782 0.43842232 0.02351582
v -0.12670261 0.43580383 0.02367042
v -0.12478556 0.43125013 0.02349322
v -0.1221242 0.42956528 0.0234852
v -0.1720483 0.42956528 0.02348522
v -0.14061503 0.33030832 -0.14150967
v -0.17609182 0.33381748 -0.14910278
v -0.17408453 0.33022916 -0.16349502
v -0.1390401 0.33050671 -0.1626168
v -0.13915671 0.37010464 -0.16466387
v -0.17226106 0.37195095 -0.16554457
v -0.16992937 0.37751102 -0.1568723
v -0.13819703 0.3818216 -0.16373444
v -0.17171293 0.38449216 -0.16617019
v -0.13558143 0.43400952 -0.16862561
v -0.16954871 0.43401006 -0.16862489
v -0.16954608 0.43407717 0.00602901
v -0.13557854 0.43407717 0.00602903
v -0.13558143 0.43400952 0.18068361
v -0.16954876 0.43401006 0.18068293
v -0.17171293 0.38449216 0.17822829
v -0.13820238 0.38449219 0.17822826
v -0.169038 0.37873027 0.16848169
v -0.14240432 0.37712952 0.16877182
v -0.17226106 0.37195095 0.17760262
v -0.1388662 0.37195095 0.17760257
v -0.17422378 0.32975042 0.17549063
v -0.13860863 0.33038846 0.17419033
v -0.14061508 0.33030832 0.15356767
v -0.17522559 0.33189368 0.15121928
v 0.21746542 0.33030832 -0.14150967
v 0.18198864 0.33381751 -0.14910278
v 0.18399592 0.33022916 -0.16349502
v 0.21904035 0.33050671 -0.1626168
v 0.21892375 0.37010467 -0.16466387
v 0.18581937 0.37195095 -0.16554457
v 0.18815108 0.37751102 -0.15687229
v 0.2198834 0.38182163 -0.16373444
v 0.18636751 0.38449216 -0.16617019
v 0.22249903 0.43400952 -0.16862561
v 0.18853174 0.43401006 -0.16862489
v 0.18853435 0.43407717 0.00602901
v 0.2225019 0.43407717 0.00602903
v 0.22249903 0.43400952 0.18068361
v 0.1885317 0.43401006 0.18068293
v 0.18636751 0.38449216 0.17822829
v 0.21987806 0.38449219 0.17822826
v 0.18904245 0.37873027 0.16848171
v 0.21567616 0.37712955 0.1687718
v 0.18581937 0.37195095 0.17760262
v 0.21921425 0.37195095 0.17760257
v 0.18385668 0.32975045 0.17549063
v 0.2194718 0.33038846 0.17419033
v 0.21746536 0.33030832 0.15356769
v 0.18285486 0.33189368 0.15121926
v -0.19796808 0.33601123 0.16968951
v -0.19796285 0.33592805 0.15397421
v 0.24171051 0.33592808 0.15397421
v 0.24171561 0.33601123 0.16968951
v 0.24365893 0.36794162 0.16983682
v -0.2000021 0.36829159 0.16797976
v 0.24483864 0.38849965 0.17013068
v -0.2012767 0.38836929 0.1700795
v -0.20645899 0.4281086 0.17412607
v 0.2488946 0.42834359 0.17391913
v 0.2686598 0.428992 0.14619941
v -0.2248856 0.42899117 0.14719678
v -0.22473644 0.42899403 -0.13518696
v 0.2686556 0.42899108 -0.13381414
v 0.24866322 0.4285292 -0.16096722
v -0.20702517 0.42792568 -0.16121441
v -0.20126538 0.38853261 -0.15712328
v 0.24485575 0.38840964 -0.15708448
v 0.24366105 0.36806908 -0.15594165
v -0.19999434 0.36807498 -0.15600081
v -0.19796808 0.33601123 -0.15657164
v 0.24171551 0.33601123 -0.15657169
v 0.24171057 0.33592808 -0.1411538
v -0.19796285 0.33592808 -0.14115377
v -0.22395188 0.41724518 0.14734237
v -0.20587328 0.41673851 0.16391931
v -0.20645899 0.4281086 0.17412607
v -0.2248856 0.42899117 0.14719678
v -0.22473644 0.42899403 -0.13518696
v -0.22407387 0.41724789 -0.13390516
v -0.20546401 0.41675395 -0.15094067
v -0.20702517 0.42792568 -0.16121441
v 0.18059097 0.43762612 0.02232159
v 0.17938702 0.43676296 -0.01192296
v 0.17695722 0.43383208 -0.01466072
v 0.17828934 0.4316735 0.02484962
v 0.18199089 0.43003327 -0.01799892
v 0.14931616 0.46317071 0.02344732
v 0.18297149 0.43076763 0.02969045
v 0.18433614 0.43402156 -0.01541859
v 0.14440218 0.46348119 0.02679028
v 0.18059097 0.43762612 0.02232159
v 0.17938702 0.43676296 -0.01192296
v 0.14713898 0.46210927 -0.01317656
v 0.15081687 0.46596879 -0.01323389
v 0.14990379 0.47003037 0.02750194
v 0.14931616 0.46317071 0.02344732
v 0.15081687 0.46596879 -0.01323389
v 0.14376685 0.46900055 -0.01859634
v 0.17938702 0.43676296 -0.01192296
v 0.14713898 0.46210927 -0.01317656
v 0.18433614 0.43402156 -0.01541859
v 0.18199089 0.43003327 -0.01799892
v 0.17695722 0.43383208 -0.01466072
v 0.17938702 0.43676296 -0.01192296
v -0.1242054 0.43382385 -0.01466404
v -0.12682395 0.43673947 -0.01189025
v -0.12629046 0.43608433 0.02304482
v -0.12664945 0.428763 0.02750515
v -0.13231198 0.43057835 -0.0191332
v -0.09717336 0.46119636 0.02458551
v -0.13079001 0.43593493 0.02662784
v -0.12682395 0.43673947 -0.01189025
v -0.12629046 0.43608433 0.02304482
v -0.09198978 0.46598208 0.02944257
v -0.09807822 0.46855357 0.02523542
v -0.09717336 0.46119636 0.02458551
v -0.0997667 0.46672702 -0.015512
v -0.09253392 0.46266186 -0.01257774
v -0.0997667 0.46672702 -0.015512
v -0.09098615 0.46688572 -0.01722399
v -0.12682395 0.43673947 -0.01189025
v -0.1242054 0.43382385 -0.01466404
v -0.13231198 0.43057835 -0.0191332
v -0.12682395 0.43673947 -0.01189025
v -0.09253392 0.46266186 -0.01257774
v -0.22042601 0.23148073 -0.07017981
v -0.21287529 0.22892971 -0.06348077
v -0.21287523 0.22892971 0.07357204
v -0.22134642 0.234025 0.07866916
v -0.21671413 0.24370806 -0.07864521
v -0.20992985 0.17368376 0.0723886
v -0.21624951 0.24335392 0.08888198
v -0.20852564 0.24086289 -0.07598884
v -0.21619059 0.16766594 0.07825807
v -0.2053331 0.23805991 0.08320028
v -0.21217784 0.16555561 0.08639442
v -0.20622137 0.23129463 -0.06849901
v -0.21588571 0.1553569 0.0596204
v -0.20826727 0.15952772 0.05792555
v -0.21287523 0.22892971 0.07357204
v -0.21287529 0.22892971 -0.06348077
v -0.21563753 0.15524635 -0.0494758
v -0.20826674 0.15952058 -0.04830483
v -0.20792343 0.23096067 0.0756949
v -0.20157135 0.16927788 0.07627718
v -0.20992985 0.17368376 0.0723886
v -0.20826727 0.15952772 0.05792555
v -0.20366436 0.16622163 0.08341792
v -0.20057692 0.15611385 0.05935686
v -0.20826674 0.15952058 -0.04830483
v -0.20248497 0.14782999 0.06047649
v -0.20072706 0.15574528 -0.04914866
v -0.20909049 0.17175432 -0.06215409
v -0.21041468 0.14519934 0.06049936
v -0.20248535 0.14783502 -0.05092208
v -0.2014699 0.16858035 -0.06628718
v -0.21287529 0.22892971 -0.06348077
v -0.20622137 0.23129463 -0.06849901
v -0.2108472 0.14584856 -0.05185478
v -0.20319857 0.16612422 -0.07371548
v -0.20852564 0.24086289 -0.07598884
v -0.21671413 0.24370806 -0.07864521
v -0.21238333 0.16394888 -0.07493933
v -0.22042601 0.23148073 -0.07017981
v -0.21635376 0.16858478 -0.06632917
v -0.21287529 0.22892971 -0.06348077
v -0.20909049 0.17175432 -0.06215409
v 0.26409951 0.23148073 0.08127189
v 0.25654879 0.22892971 0.07457285
v 0.25654873 0.22892971 -0.06247996
v 0.26501992 0.23402502 -0.06757709
v 0.26038766 0.24370806 0.08973731
v 0.25360334 0.17368379 -0.06129652
v 0.25992301 0.24335392 -0.07778991
v 0.25219914 0.24086289 0.08708093
v 0.25986409 0.16766594 -0.06716599
v 0.24900661 0.23805991 -0.07210821
v 0.25585136 0.16555561 -0.07530234
v 0.24989489 0.23129463 0.0795911
v 0.25955924 0.1553569 -0.04852831
v 0.25194079 0.15952772 -0.04683347
v 0.25654873 0.22892971 -0.06247996
v 0.25654879 0.22892971 0.07457285
v 0.25931102 0.15524635 0.06056789
v 0.25194022 0.15952058 0.05939691
v 0.25159696 0.23096067 -0.06460282
v 0.24524485 0.16927786 -0.06518509
v 0.25360334 0.17368379 -0.06129652
v 0.25194079 0.15952772 -0.04683347
v 0.24733788 0.16622163 -0.07232585
v 0.24425043 0.15611385 -0.04826479
v 0.25194022 0.15952058 0.05939691
v 0.24615848 0.14782999 -0.0493844
v 0.24440056 0.15574528 0.06024075
v 0.25276399 0.1717543 0.07324616
v 0.25408822 0.14519934 -0.04940727
v 0.24615887 0.14783502 0.06201417
v 0.2451434 0.16858038 0.07737925
v 0.25654879 0.22892971 0.07457285
v 0.24989489 0.23129463 0.0795911
v 0.25452071 0.14584857 0.06294687
v 0.24687208 0.16612425 0.08480757
v 0.25219914 0.24086289 0.08708093
v 0.26038766 0.24370806 0.08973731
v 0.25605685 0.16394888 0.08603141
v 0.26409951 0.23148073 0.08127189
v 0.26002729 0.16858478 0.07742123
v 0.25654879 0.22892971 0.07457285
v 0.25276399 0.1717543 0.07324616
v 0.23760605 0.0340054 -0.11327589
v 0.23048484 0.03105636 -0.12334476
v 0.25631851 0.40272418 -0.14035322
v 0.26121873 0.39897949 -0.12660082
v 0.26121873 0.39897954 0.13768223
v 0.23876332 0.04858515 0.12502749
v 0.23412889 0.03474892 0.13264877
v 0.2556991 0.39897949 0.15100791
v 0.22172934 0.04858515 0.14206141
v 0.24237333 0.39897954 0.15652758
v 0.2209948 0.03611707 0.13657643
v -0.19882271 0.39897954 0.15652758
v -0.17705809 0.04858515 0.14206141
v -0.17628364 0.03611707 0.13657643
v -0.18177831 0.03033913 0.13205299
v -0.2121484 0.39897946 0.15100791
v -0.19280769 0.03348614 0.1246637
v -0.21766807 0.39897949 0.13768221
v -0.21766807 0.39897954 -0.12660085
v -0.19409201 0.04858515 -0.1138522
v -0.18944007 0.03478756 -0.12135813
v -0.2121484 0.39897954 -0.13992652
v -0.17705809 0.04858515 -0.13088612
v -0.19882271 0.39897946 -0.14544623
v -0.17628363 0.03611707 -0.1253978
v 0.24237333 0.39897949 -0.1454462
v 0.2217294 0.04858515 -0.13088612
v 0.22099482 0.03611707 -0.1253978
v 0.23048484 0.03105636 -0.12334476
v 0.25631851 0.40272418 -0.14035322
v 0.25208208 0.41772655 -0.1358871
v 0.2550413 0.41719165 -0.12580256
v 0.26676303 0.41814694 -0.14392464
v 0.25543004 0.41865367 0.14053755
v 0.26815534 0.41737166 0.14233193
v 0.26694775 0.39897949 -0.1305663
v 0.25631851 0.40272418 -0.14035322
v 0.25274396 0.41742802 0.16296579
v 0.24198546 0.41719165 0.14993495
v -0.19849302 0.41719165 0.14993495
v 0.26687163 0.39889869 0.14887907
v 0.24765143 0.39897949 0.16216817
v -0.20410079 0.39897949 0.16216817
v -0.20526986 0.41737166 0.16295595
v -0.20859133 0.41772652 0.14696343
v -0.2234758 0.39863577 0.14755735
v -0.22468786 0.41746101 0.14657544
v -0.21154894 0.41719165 0.13687904
v -0.21191972 0.41855508 -0.12963761
v -0.22339267 0.39883015 -0.13771577
v -0.22450414 0.41761547 -0.13904017
v -0.19849302 0.41719165 -0.13885847
v -0.20526981 0.41737166 -0.15192065
v -0.20410079 0.39897949 -0.15112773
v 0.24765143 0.39897949 -0.15112773
v 0.25631851 0.40272418 -0.14035322
v 0.24876167 0.41737166 -0.15192065
v 0.24198546 0.41719165 -0.13885847
v 0.26676303 0.41814694 -0.14392464
v 0.25208208 0.41772655 -0.1358871
v -0.22489843 0.24861997 -0.06472482
v -0.20612678 0.24130982 -0.07920647
v -0.20491663 0.22386879 -0.05851167
v -0.2226513 0.22979772 -0.05296421
v -0.20491663 0.22386879 -0.05851167
v -0.2071678 0.21948241 0.07137487
v -0.21475042 0.34054184 -0.08484493
v -0.20612678 0.24130982 -0.07920647
v -0.22432972 0.2474145 0.07744177
v -0.20612678 0.24130978 0.09027228
v -0.23013349 0.33846131 -0.05872221
v -0.21566018 0.35912856 -0.06352686
v -0.2149082 0.34066299 0.09634368
v -0.20612678 0.24130978 0.09027228
v -0.2315802 0.34523654 0.06578366
v -0.21341656 0.35505417 0.07301594
v -0.21341656 0.35505417 0.07301594
v 0.26857194 0.24861999 0.07581691
v 0.24980029 0.24130984 0.09029855
v 0.24859013 0.22386883 0.06960376
v 0.26632482 0.22979772 0.06405629
v 0.24859013 0.22386883 0.06960376
v 0.25084126 0.21948241 -0.06028279
v 0.25842395 0.34054184 0.09593701
v 0.24980029 0.24130984 0.09029855
v 0.26800323 0.2474145 -0.0663497
v 0.24980029 0.24130979 -0.0791802
v 0.27380699 0.33846131 0.06981428
v 0.2593337 0.35912859 0.07461894
v 0.25858173 0.34066299 -0.0852516
v 0.24980029 0.24130979 -0.0791802
v 0.27525368 0.34523654 -0.05469161
v 0.25709006 0.35505417 -0.06192386
v 0.25709006 0.35505417 -0.06192386
v -0.18177831 0.03033913 0.13205299
v -0.19280769 0.03348614 0.1246637
v -0.18944007 0.03478756 -0.12135813
v -0.17596285 0.03095262 -0.11321067
v -0.17628363 0.03611707 -0.1253978
v 0.22099482 0.03611707 -0.1253978
v 0.23048484 0.03105636 -0.12334476
v 0.22069053 0.03095262 0.12439069
v -0.17628364 0.03611707 0.13657643
v 0.2209948 0.03611707 0.13657643
v 0.23412889 0.03474892 0.13264877
v 0.23760605 0.0340054 -0.11327589
v 0.18235275 0.43658718 -0.01244485
v 0.1759562 0.43936005 -0.01307677
v 0.22532186 0.43810999 -0.01245511
v 0.22338955 0.4362812 -0.01244593
v 0.22486454 0.42956528 -0.01241224
v 0.22312273 0.43125007 -0.01242069
v 0.17494039 0.42956531 -0.01241224
v 0.17760195 0.43125004 -0.01242069
v -0.17250568 0.43810999 -0.01245511
v -0.12314003 0.43936005 -0.01307677
v -0.12953657 0.43658718 -0.01244485
v -0.17057335 0.4362812 -0.01244593
v -0.17204836 0.42956528 -0.01241224
v -0.17030653 0.43125007 -0.01242069
v -0.1221242 0.42956531 -0.01241224
v -0.12478576 0.43125004 -0.01242069
vn 0.93572 -0.02103 -0.35212
vn 0.93459 0.03486 -0.35401
vn 0.93459 0.03486 -0.35401
vn -0.9542 0.05906 -0.29329
vn -0.9542 0.05906 -0.29329
vn -0.9542 0.05906 -0.29329
vn 0.93572 -0.02104 -0.35212
vn 0.93459 0.03485 -0.35401
vn 0.93459 0.03485 -0.35401
vn -0.9542 0.05906 -0.29329
vn -0.9542 0.05906 -0.29329
vn -0.9542 0.05906 -0.29329
vn 0.99875 -0.04984 0.00235
vn 0.99869 -0.05119 0.0013
vn 0.99868 -0.05145 0.0011
vn 0.99875 -0.04984 0.00236
vn 0.99869 -0.05119 0.00131
vn 0.99867 -0.05145 0.00111
vn 0.00393 -0.04075 0.99916
vn -0.03039 0.01711 0.99939
vn -0.03039 0.01711 0.99939
vn 0.00018 -0.00573 0.99998
vn 0.01754 -0.06149 0.99795
vn -0.00016 -0.00461 0.99999
vn -0.00243 -0.00558 0.99998
vn -0.00234 -0.00413 0.99999
vn 0.01144 -0.05232 0.99857
vn -0.02209 -0.09294 0.99543
vn 0.02852 -0.03498 0.99898
vn 0.02728 -0.03477 0.99902
vn 0.0259 -0.03452 0.99907
vn -0.01835 -0.00362 -0.99983
vn -0.0441 0.05191 -0.99768
vn 0.00242 -0.00586 -0.99998
vn 0.02204 -0.09312 -0.99541
vn 0.00233 -0.0044 -0.99999
vn 9E-05 -0.00516 -0.99999
vn 0.00016 -0.00487 -0.99999
vn -0.00551 -0.02352 -0.99971
vn -0.04331 -0.00988 -0.99901
vn -0.06982 -0.00137 -0.99756
vn -0.12638 0.00444 -0.99197
vn 0.00348 -0.00887 -0.99995
vn -0.55312 0.61532 0.56164
vn 0.55203 0.61615 0.56181
vn 0.55204 0.61606 -0.56189
vn -0.55307 0.61527 -0.56174
vn 0.94147 -0.08315 -0.32667
vn 0.9984 -0.05445 -0.01523
vn 0.9986 -0.0529 -5E-05
vn -0.96554 0.04756 -0.25588
vn -0.95382 0.05631 -0.29506
vn -0.9998 0.01622 -0.01152
vn -0.99963 0.01278 0.0239
vn -0.01727 -0.01958 -0.99966
vn 0 0.00309 -1
vn -0.0076 -0.00689 -0.99995
vn -0.03679 -0.0452 -0.9983
vn -0.01727 -0.01958 -0.99966
vn 0 0.00309 -1
vn -0.0076 -0.00689 -0.99995
vn -0.03679 -0.04519 -0.9983
vn -0.01727 -0.01958 -0.99966
vn 0 0.00309 -1
vn -0.0076 -0.00689 -0.99995
vn -0.03679 -0.0452 -0.9983
vn -0.01727 -0.01958 -0.99966
vn 0 0.00309 -1
vn -0.0076 -0.00689 -0.99995
vn -0.03679 -0.0452 -0.9983
vn 0.94147 -0.08315 -0.32667
vn 0.9984 -0.05445 -0.01523
vn 0.9986 -0.0529 -6E-05
vn -0.96554 0.04756 -0.25589
vn -0.95382 0.05631 -0.29507
vn -0.9998 0.01622 -0.01152
vn -0.99963 0.01278 0.0239
vn -0.98396 0.14415 0.10508
vn -0.98851 0.03599 -0.14684
vn -0.99305 0.05488 -0.10409
vn -0.97386 0.16509 0.156
vn -0.99967 0.0242 0.00815
vn -0.97244 0.05375 0.22689
vn -0.98002 0.04682 0.19332
vn -0.99962 0.02259 -0.01601
vn -0.02861 0.04648 0.99851
vn -0.06619 0.00147 0.99781
vn -0.01361 0.06437 0.99783
vn 0 0.08057 0.99675
vn -0.02861 0.04648 0.99851
vn -0.06619 0.00147 0.99781
vn -0.01361 0.06437 0.99783
vn 0 0.08057 0.99675
vn -0.02861 0.04648 0.99851
vn -0.06619 0.00147 0.99781
vn -0.01361 0.06437 0.99783
vn 0 0.08057 0.99675
vn -0.02861 0.04648 0.99851
vn -0.06619 0.00147 0.99781
vn -0.01361 0.06437 0.99783
vn 0 0.08057 0.99675
vn -0.98396 0.14415 0.10509
vn -0.98851 0.03599 -0.14684
vn -0.99305 0.05488 -0.10409
vn -0.97386 0.16509 0.156
vn -0.99967 0.0242 0.00815
vn -0.97244 0.05375 0.22689
vn -0.98002 0.04682 0.19332
vn -0.99962 0.02259 -0.01601
vn -0.03193 0.10193 0.99428
vn -0.01575 0.06162 0.99798
vn -0.10326 -0.07993 0.99144
vn 0.01173 -0.02328 0.99966
vn 0.01459 -0.0278 0.99951
vn -0.0879 -0.09557 0.99153
vn -0.03845 -0.04448 0.99827
vn 0.3621 0.86069 -0.35791
vn 0.11197 0.7557 -0.64527
vn -0.21489 0.79368 -0.56912
vn -0.89235 0.09191 -0.44189
vn -0.66634 0.73901 0.09927
vn -0.37692 0.85066 0.36648
vn -0.11188 0.75566 0.64534
vn 0.19611 0.79796 0.56992
vn 0.89001 0.09501 0.44593
vn 0.64125 0.76015 -0.10476
vn 0.64831 0.76137 0
vn 0.81346 0.57371 -0.09559
vn -0.15408 0.98806 -0
vn -0.59496 0.78367 0.17855
vn -0.9265 -0.37625 0.00537
vn -0.62913 -0.75667 0.17791
vn 0.50703 -0.85698 -0.09221
vn -0.20116 -0.97886 -0.03702
vn 0.62342 -0.77927 -0.06387
vn 0.75807 -0.65217 0
vn 0.87053 -0.47784 0.11769
vn -0.68898 -0.72478 0
vn -0.68905 -0.72472 0
vn -0.72726 0.68636 0
vn -0.72705 0.68655 0.00682
vn 0.2702 0.96014 0.07151
vn 0.64258 0.76554 0.0322
vn 0.70149 0.69964 0.13572
vn 0.98909 -0.11957 0.08606
vn 0.9865 -0.1118 0.11967
vn 0.99641 -0.08462 4E-05
vn 0.99185 -0.12064 -0.04094
vn 0.99823 -0.05945 -0.00021
vn 0.99825 -0.05916 -0.00164
vn 0.99813 -0.06106 0.00041
vn 0.99811 -0.06144 0.00073
vn 0.99806 -0.06233 1E-05
vn 0.73447 -0.36186 -0.57412
vn 0.73498 -0.41786 -0.53404
vn 0.91357 -0.15078 -0.37771
vn 0.92638 -0.09796 -0.36363
vn 0.92121 -0.13394 0.36529
vn 0.91696 -0.07339 0.39218
vn 0.73652 -0.3738 0.56375
vn 0.73492 -0.44276 0.51367
vn 0.99734 -0.07288 -7E-05
vn 0.99779 -0.06621 -0.00596
vn 0.99799 -0.06321 -0.00447
vn 0.99833 -0.05782 0.00121
vn 0.99853 -0.05383 0.00579
vn 0.99013 -0.12581 0.06182
vn 0.99653 -0.08301 0.00523
vn 0.98741 -0.11537 -0.10826
vn 0.98368 -0.10733 -0.14442
vn -0.99905 0.04363 0
vn -0.99803 -0.06278 -0
vn -0.99802 -0.06283 -6E-05
vn -0.99803 -0.06266 -0.00056
vn -0.99801 -0.063 -0.00193
vn -0.99806 -0.06221 -0.00285
vn -0.99327 -0.11447 -0.0179
vn -0.99652 -0.08144 -0.01765
vn -0.98 -0.18333 0.07746
vn -0.94618 -0.24182 0.21509
vn -0.99905 0.04363 0
vn 0.85635 0.51219 -0.06578
vn -0.35018 0.93621 -0.02958
vn -0.29614 0.95502 -0.01534
vn 0.79042 0.61253 -0.00623
vn 0.33545 -0.94204 -0.0054
vn 0.26105 -0.9653 0.00773
vn -0.12452 -0.99222 0.00038
vn -0.1247 -0.99219 -0
vn 0.12444 -0.99223 -0.00038
vn 0.12462 -0.9922 -0
vn -0.79843 -0.58201 0.15417
vn -0.2614 -0.9652 -0.00771
vn -0.77368 0.61486 -0.15288
vn -0.70614 0.70102 0.0997
vn 0.29804 0.95051 -0.08782
vn 0.39439 -0.91892 -0.00615
vn 0.84955 -0.52751 -0
vn 0.84122 -0.54012 0.02478
vn 0.29655 -0.95493 0.01315
vn -0.69024 -0.72344 -0.0143
vn -0.68682 -0.72683 0
vn -0.94116 -0.33796 0
vn -0.94116 -0.33796 0
vn 0.39439 -0.91892 -0.00615
vn 0.84955 -0.52751 -0
vn 0.84122 -0.54012 0.02478
vn 0.29656 -0.95493 0.01315
vn -0.69024 -0.72344 -0.0143
vn -0.68682 -0.72683 0
vn -0.94116 -0.33796 0
vn -0.94116 -0.33796 0
vn 0.39439 -0.91892 -0.00615
vn 0.84955 -0.52751 -0
vn 0.84122 -0.54012 0.02478
vn 0.29656 -0.95493 0.01314
vn -0.69024 -0.72344 -0.0143
vn -0.68682 -0.72683 0
vn -0.94116 -0.33796 0
vn -0.94116 -0.33796 0
vn 0.39439 -0.91892 -0.00615
vn 0.84955 -0.52751 -0
vn 0.84122 -0.54012 0.02478
vn 0.29656 -0.95493 0.01315
vn -0.69024 -0.72344 -0.0143
vn -0.68682 -0.72683 0
vn -0.94116 -0.33796 0
vn -0.94116 -0.33796 0
vn 0.24656 -0.96913 0
vn -0.87053 -0.47783 0.11769
vn -0.75807 -0.65217 -0
vn 0.61181 -0.7764 -0.15132
vn 0.94326 0.33072 0.02984
vn 0.65105 0.74783 -0.12997
vn -0.25435 0.96325 0.08641
vn -0.64258 0.76554 0.0322
vn -0.7015 0.69963 0.13572
vn 0.68916 0.72461 -0
vn -0.81346 0.57371 -0.09559
vn -0.64832 0.76137 0
vn 0.68922 0.72455 -0
vn 0.7199 -0.69408 0
vn 0.72344 -0.69035 -0.00712
vn -0.51811 -0.85106 -0.08517
vn 0.20116 -0.97886 -0.03702
vn -0.62342 -0.77927 -0.06387
vn -0.99267 -0.11836 0.02445
vn -0.97779 -0.1985 -0.06727
vn -0.98638 -0.16449 0.00115
vn -0.99597 -0.08856 0.01449
vn -0.99801 -0.06306 -0.00092
vn -0.99806 -0.06231 -0.00033
vn -0.998 -0.06323 -6E-05
vn -0.99798 -0.06357 0.0005
vn -0.99801 -0.06302 -0
vn -0.11141 -0.99187 0.06156
vn -0.82293 -0.55771 0.10836
vn -0.69013 -0.72327 0.02447
vn 0.03479 -0.99939 -0
vn 0.99972 -0.02359 -0
vn 0.99937 0.02622 -0.02398
vn 0.48986 0.87169 -0.01373
vn 0.43591 0.89939 -0.03291
vn 0.1257 0.99206 -0.00407
vn 0.12397 0.99229 -0
vn -0.12442 0.99223 0.00125
vn -0.12389 0.9923 -0
vn -0.67092 0.74003 -0.04716
vn -0.3721 0.92764 0.03205
vn -0.99397 0.01547 0.10855
vn -0.56875 -0.77499 -0.27554
vn 0.50516 -0.85523 0.11571
vn 0.7194 -0.68116 -0.13594
vn 0.99354 0.03491 0.10797
vn 0.99861 -0.05272 0
vn -0.0027 0.17723 -0.98417
vn -0 0.2875 -0.95778
vn -0.0043 0.45203 -0.89199
vn -0.0003 0.114 -0.99348
vn -0.00025 0.03116 -0.99951
vn -0.00018 -0.05667 -0.99839
vn -0.00034 0.15925 -0.98724
vn -0.00188 0.15669 -0.98765
vn -0.00224 -0.80871 -0.5882
vn -0.00029 -0.83238 -0.55421
vn -0.00012 -0.99995 -0.00984
vn -4E-05 -0.99993 -0.01219
vn -0.0003 -0.99987 0.01627
vn -3E-05 -0.99996 0.0093
vn 0.00201 -0.81866 0.57427
vn -0.00035 -0.81069 0.58547
vn 0.00245 0.1623 0.98674
vn 0.00041 0.15425 0.98803
vn 3E-05 -0.01831 0.99983
vn -0.00214 -0.00754 0.99997
vn -0.00204 0.12124 0.99262
vn 7E-05 0.17894 0.98386
vn 0.00021 0.37986 0.92505
vn 0 0.38759 0.92183
vn 0.99861 -0.05272 0
vn 0 -0.00475 0.99999
vn 9E-05 -0.00381 0.99999
vn 0.00013 -0.00461 0.99999
vn -0.00283 0.05396 0.99854
vn -0.01014 0.02608 0.99961
vn -0.01459 -0.0278 0.99951
vn -0.01173 -0.02328 0.99966
vn 0 -0.00475 0.99999
vn -0.03199 -0.99812 0.05229
vn -0.14267 -0.96486 0.22066
vn -0.05607 -0.80538 -0.5901
vn 0.02325 -0.7107 -0.70311
vn -0.07917 0.09995 -0.99184
vn 0.04732 0.41507 -0.90856
vn -0.01056 0.03521 -0.99932
vn -0.06943 -0.09729 -0.99283
vn 0.01476 -0.44285 -0.89648
vn 0.01776 0.69513 -0.71866
vn -0 0.67875 -0.73437
vn 0 1 -0
vn 0 1 0
vn 0 0.70213 0.71204
vn -0 0.67875 0.73437
vn -0 -0.48631 0.87379
vn -0.01829 -0.41347 0.91033
vn 0.02611 -0.05272 0.99827
vn -0.0385 0.08802 0.99537
vn 0.01555 0.37986 0.92491
vn 0.01107 0.40234 0.91542
vn 0.00049 -0.76341 0.64591
vn 0.03819 -0.72018 0.69273
vn -0.00355 -0.99952 -0.03088
vn -0.03975 -0.99548 -0.08626
vn -0.03199 -0.99812 0.05229
vn -0.14267 -0.96486 0.22067
vn -0.05607 -0.80538 -0.59009
vn 0.02325 -0.7107 -0.70311
vn -0.07917 0.09995 -0.99184
vn 0.04732 0.41507 -0.90856
vn -0.01056 0.03521 -0.99932
vn -0.06943 -0.09729 -0.99283
vn 0.01476 -0.44285 -0.89648
vn 0.01776 0.69513 -0.71866
vn -0 0.67875 -0.73437
vn 0 1 0
vn 0 1 0
vn 0 0.70213 0.71204
vn -0 0.67875 0.73437
vn -0 -0.48631 0.87379
vn -0.01829 -0.41347 0.91033
vn 0.0261 -0.05273 0.99827
vn -0.0385 0.08802 0.99537
vn 0.01555 0.37986 0.92491
vn 0.01107 0.40234 0.91542
vn 0.00049 -0.76341 0.64591
vn 0.03819 -0.72018 0.69273
vn -0.00355 -0.99952 -0.03088
vn -0.03974 -0.99548 -0.08626
vn -0.00292 -0.67212 0.74044
vn 0 -0.99999 0.00529
vn 0 -0.99999 0.00529
vn 0 -0.69338 0.72057
vn -0.00227 -0.00818 0.99996
vn -0.0021 -0.02763 0.99962
vn -0.00169 -0.0579 0.99832
vn -8E-05 -0.10259 0.99472
vn 1E-05 0.80233 0.59688
vn -0.00015 0.80467 0.59372
vn -0.00018 0.99996 0.00889
vn 2E-05 0.99992 0.01253
vn -0.00047 0.99988 -0.01552
vn 2E-05 0.99998 -0.00635
vn 7E-05 0.80741 -0.58999
vn -0.00074 0.80052 -0.5993
vn 0.0004 -0.0804 -0.99676
vn 7E-05 -0.0772 -0.99702
vn 4E-05 -0.0197 -0.99981
vn 0.00013 -0.01994 -0.9998
vn 9E-05 -0.68435 -0.72915
vn -0 -0.68425 -0.72924
vn -0 -0.99999 -0.00539
vn -0 -0.99999 -0.00539
vn -0.93589 -0.1438 0.32159
vn -0.56528 -0.56698 0.59916
vn -0.67541 -0.41513 0.6095
vn -0.9558 -0.07245 0.28494
vn -0.91081 -0.17018 -0.37611
vn -0.91863 -0.0937 -0.38385
vn -0.719 -0.44527 -0.53364
vn -0.71302 -0.52599 -0.46361
vn -0.81105 0.07912 -0.57961
vn -0.77497 0.63189 0.01132
vn -0.8936 -0.4487 -0.01214
vn -0.66212 -0.74937 -0.0068
vn 0.18644 -0.98223 -0.02137
vn -0.29295 -0.86105 -0.41566
vn 0.51451 -0.47506 0.71386
vn 0.99764 -0.06594 -0.01916
vn -0.84641 -0.21779 0.48595
vn 0.83056 0.53227 0.1639
vn 0.46317 0.88543 -0.0386
vn -0.51435 -0.82559 -0.23206
vn 0.72358 -0.68986 -0.02302
vn 0.1427 0.84494 0.51547
vn 0.83292 0.22697 -0.5047
vn 0.58726 0.80469 0.0872
vn -0.52001 0.48724 -0.70156
vn 0.62969 0.63601 0.44606
vn -0.01554 0.02966 0.99944
vn 0.53776 0.52494 -0.65974
vn 0.10368 0.08652 -0.99084
vn -0.68963 -0.71065 0.1392
vn -0.38 -0.44332 0.81183
vn 0.80605 -0.58688 -0.07656
vn 0.74454 0.66758 0.00115
vn 0.86393 -0.27775 -0.4201
vn 0.05877 -0.83958 0.54005
vn -0.4843 -0.85106 -0.20285
vn 0.66502 -0.74371 -0.06817
vn -0.82896 0.28663 0.48029
vn -0.68473 0.7267 -0.05532
vn -0.30886 0.86824 -0.38829
vn 0.67625 0.2079 0.70673
vn -0.46397 0.85566 0.22929
vn -0.59617 -0.0024 -0.80286
vn -0.35703 0.91523 -0.18676
vn 0.57255 -0.79998 -0.17949
vn -0.45919 -0.88354 -0.09217
vn 0.66732 0.38518 -0.63743
vn 0.35916 -0.45346 0.81571
vn 0.6604 -0.7477 -0.06943
vn -0.40233 0.27385 -0.87358
vn -0.73619 0.67294 0.07194
vn -0.2086 0.30061 0.93065
vn -0.99541 -0.09525 -0.00944
vn -0.03527 -0.81462 0.57893
vn -0.13125 -0.70289 -0.69909
vn -0.99891 0.00432 0.04652
vn -0.33096 0.94363 -0.00524
vn -0.72832 0.21777 -0.64971
vn -0.23523 0.66884 0.70521
vn 0.69122 0.50936 -0.51261
vn -0.99549 -0.08858 0.03384
vn 0.83381 0.39935 0.38116
vn -0.32135 -0.41094 0.85315
vn 0.98604 -0.166 -0.01326
vn -0.99423 0.08823 -0.06105
vn -0.01758 0.93391 -0.35708
vn -0.98949 0.13082 0.0616
vn -0.04217 0.93383 0.35522
vn 0.8887 -0.28974 -0.35533
vn 0.97677 0.13758 -0.16428
vn 0.52791 0.30038 -0.79441
vn 0.67051 -0.31689 0.67082
vn 0.95086 0.30206 -0.06796
vn 0.68622 -0.67954 0.25948
vn 0.95309 0.29236 0.07834
vn 0.54118 0.36561 0.75727
vn -0.32608 -0.90259 0.28108
vn 0.6722 -0.69738 -0.24862
vn 0.97516 0.14693 0.16576
vn 0.98398 0.07779 0.16042
vn -0.36486 -0.88097 -0.30128
vn 0.64835 -0.29504 -0.70185
vn -0.14121 -0.0386 -0.98923
vn -0.39848 -0.45536 -0.79616
vn -0.99411 -0.05729 -0.09203
vn -0.99101 0.00378 0.13372
vn -0.56988 0.29635 0.76643
vn 0.99541 -0.09525 0.00944
vn 0.03527 -0.81462 -0.57893
vn 0.13125 -0.70289 0.69908
vn 0.99891 0.00432 -0.04652
vn 0.33096 0.94363 0.00524
vn 0.72832 0.21777 0.64971
vn 0.23523 0.66884 -0.70521
vn -0.69122 0.50936 0.51261
vn 0.99549 -0.08858 -0.03384
vn -0.83381 0.39935 -0.38116
vn 0.32136 -0.41094 -0.85315
vn -0.98604 -0.166 0.01326
vn 0.99423 0.08823 0.06105
vn 0.01758 0.93391 0.35708
vn 0.98949 0.13082 -0.0616
vn 0.04217 0.93383 -0.35522
vn -0.8887 -0.28974 0.35533
vn -0.97677 0.13758 0.16428
vn -0.52791 0.30038 0.79441
vn -0.67051 -0.31689 -0.67082
vn -0.95086 0.30206 0.06796
vn -0.68622 -0.67954 -0.25948
vn -0.95309 0.29236 -0.07834
vn -0.54118 0.36561 -0.75727
vn 0.32608 -0.90259 -0.28108
vn -0.6722 -0.69738 0.24862
vn -0.97516 0.14693 -0.16576
vn -0.98398 0.07779 -0.16042
vn 0.36486 -0.88097 0.30128
vn -0.64835 -0.29504 0.70185
vn 0.14121 -0.0386 0.98923
vn 0.39848 -0.45536 0.79615
vn 0.99411 -0.05729 0.09203
vn 0.99101 0.00378 -0.13372
vn 0.56988 0.29635 -0.76643
vn 0.94801 -0.08199 -0.30749
vn 0.82492 -0.08293 -0.55913
vn 0.93086 -0.07352 -0.35791
vn 0.97828 -0.07041 -0.19499
vn 0.97777 -0.07048 0.19748
vn 0.97173 -0.15079 0.18167
vn 0.78048 -0.25874 0.56912
vn 0.70812 -0.07288 0.70232
vn 0.24018 -0.19451 0.95104
vn 0.2008 -0.05222 0.97824
vn 0.11575 -0.40568 0.90666
vn -0.20629 -0.06199 0.97652
vn -0.43176 -0.18708 0.88238
vn -0.17714 -0.40551 0.89676
vn -0.59403 -0.15076 0.79019
vn -0.70406 -0.08394 0.70517
vn -0.86935 -0.09354 0.48526
vn -0.97761 -0.07352 0.19715
vn -0.97755 -0.07371 -0.19737
vn -0.97106 -0.15328 -0.18315
vn -0.78171 -0.2606 -0.56659
vn -0.70835 -0.07536 -0.70183
vn -0.24246 -0.1957 -0.95022
vn -0.20116 -0.05314 -0.97812
vn -0.11957 -0.4062 -0.90593
vn 0.20311 -0.05684 -0.97751
vn 0.24733 -0.17967 -0.95213
vn -0.00909 -0.40242 -0.91541
vn 0.28492 -0.25047 -0.92525
vn 0.35821 -0.06751 -0.9312
vn 0.81882 0.48156 -0.31247
vn 0.05858 0.99768 0.03481
vn 0.76141 0.61727 0.19806
vn 0.64331 -0.72115 -0.25711
vn 0.36721 -0.66291 -0.65246
vn -0.05572 -0.99521 -0.08036
vn 0.32398 0.58972 0.73978
vn 0.70064 -0.61988 0.35334
vn -0.01274 -0.99992 -0.00079
vn -0.01198 -0.99962 -0.02498
vn -0.00115 -1 -7E-05
vn 0.18223 -0.68575 0.70465
vn 0 -1 -1E-05
vn -0.2292 -0.66438 0.71138
vn 0.03244 -0.99925 -0.021
vn -0.25887 0.61865 0.74179
vn -0.67659 -0.65121 0.34375
vn 0.05272 -0.9986 -0.00376
vn 0.02439 -0.9997 0.00097
vn -0.72682 0.60952 0.31659
vn -0.03144 0.99793 -0.05605
vn -0.67361 -0.65206 -0.34795
vn 0.02255 -0.99863 0.0472
vn -0.71414 0.57253 -0.40274
vn 0.00213 -1 0.00012
vn -0.23408 0.62523 -0.74451
vn -0.21442 -0.66638 -0.71411
vn 0.37666 -0.68364 -0.62511
vn 0.06592 -0.99594 0.06124
vn 0.60819 -0.47346 -0.63714
vn 0.24885 0.5941 -0.76493
vn 0.35698 0.40293 -0.84274
vn -0.86659 -0.23911 -0.43801
vn -0.65296 -0.38727 -0.6509
vn -0.52721 -0.58122 -0.61987
vn -0.73446 -0.6136 -0.28995
vn -0.32739 -0.94414 -0.03756
vn -0.78233 -0.578 0.23212
vn -0.8381 0.15515 -0.52299
vn -0.86627 -0.27952 0.41406
vn -0.61518 -0.31944 0.72078
vn -0.94335 0.23519 -0.23405
vn -0.80733 0.5473 -0.22063
vn -0.82238 0.20489 0.53077
vn -0.87321 0.43972 0.21013
vn -0.48568 0.87347 0.03404
vn -0.55468 0.72353 0.41089
vn 0.86659 -0.23911 0.43801
vn 0.65296 -0.38727 0.6509
vn 0.52721 -0.58122 0.61987
vn 0.73446 -0.6136 0.28995
vn 0.32739 -0.94414 0.03756
vn 0.78233 -0.578 -0.23212
vn 0.8381 0.15515 0.52299
vn 0.86627 -0.27952 -0.41406
vn 0.61518 -0.31944 -0.72078
vn 0.94335 0.23519 0.23405
vn 0.80733 0.5473 0.22063
vn 0.82238 0.20489 -0.53077
vn 0.87321 0.43972 -0.21013
vn 0.48568 0.87348 -0.03404
vn 0.55468 0.72353 -0.41089
vn -0.08065 -0.97091 0.22544
vn -0.26893 -0.96312 -0.00878
vn -0.16148 -0.96864 -0.18883
vn -0.09604 -0.98114 -0.16774
vn -0.01204 -0.92079 -0.38988
vn -0.0224 -0.41979 -0.90734
vn 0.09876 -0.9753 -0.19758
vn 0.09421 -0.98139 0.16733
vn 0.01559 -0.63119 0.77547
vn 0.00937 -0.92077 0.39
vn 0.15859 -0.96883 0.19033
vn 0.37283 -0.92787 0.00808
vn 0.00698 -0.20352 -0.97905
vn 0.02257 -0.14821 -0.9887
vn 0.00025 -0.0131 -0.99991
vn -3E-05 -0.00498 -0.99999
vn -0 -0.00501 -0.99999
vn -0 -0.00501 -0.99999
vn 0.02614 -0.04631 -0.99859
vn 0.0182 -0.03376 -0.99926
vn -0.00025 -0.0131 -0.99991
vn -0.02257 -0.14821 -0.9887
vn -0.00698 -0.20352 -0.97905
vn 3E-05 -0.00498 -0.99999
vn 0 -0.00502 -0.99999
vn 0 -0.00502 -0.99999
vn -0.02614 -0.04631 -0.99859
vn -0.0182 -0.03376 -0.99926
vt 0.73926 0.60254
vt 0.73828 0.5957
vt 0.71143 0.59619
vt 0.74121 0.604
vt 0.71143 0.59521
vt 0.75342 0.59717
vt 0.78271 0.5957
vt 0.78271 0.60059
vt 0.1225 0.3623
vt 0.1203 0.37158
vt 0.11163 0.37085
vt 0.17627 0.37158
vt 0.12524 0.36328
vt 0.17627 0.36328
vt 0.24744 0.36328
vt 0.24744 0.37158
vt 0.2998 0.36987
vt 0.29785 0.36304
vt 0.31421 0.3562
vt 0.30957 0.37158
vt 0.30347 0.37158
vt 0.12366 0.36475
vt 0.11035 0.37769
vt 0.11823 0.36108
vt 0.12549 0.37158
vt 0.2981 0.37134
vt 0.30005 0.36914
vt 0.30957 0.36328
vt 0.32007 0.3772
vt 0.30347 0.36328
vt 0.46802 0.65283
vt 0.39771 0.65283
vt 0.39771 0.69531
vt 0.46802 0.69531
vt 0.75439 0.5957
vt 0.75146 0.60303
vt 0.78271 0.6001
vt 0.75293 0.60352
vt 0.90137 0.54639
vt 0.83984 0.54639
vt 0.85742 0.51465
vt 0.89258 0.52393
vt 0.71143 0.5957
vt 0.71338 0.60645
vt 0.74072 0.60352
vt 0.86035 0.51367
vt 0.62256 0.74609
vt 0.61475 0.75
vt 0.72607 0.75342
vt 0.60693 0.7627
vt 0.61182 0.75928
vt 0.70654 0.7627
vt 0.70215 0.75928
vt 0.84082 0.00816
vt 0.84082 0.01018
vt 0.91943 0.00816
vt 0.84082 0.07983
vt 0.91943 0.08221
vt 0.84033 0.08356
vt 0.84082 0.12732
vt 0.91943 0.12915
vt 0.84082 0.12915
vt 0.84082 0.13135
vt 0.84082 0.20337
vt 0.91943 0.20544
vt 0.84033 0.20703
vt 0.84082 0.25024
vt 0.91943 0.25244
vt 0.84082 0.25244
vt 0.74365 0.76172
vt 0.74365 0.77148
vt 0.73145 0.77148
vt 0.73145 0.76172
vt 0.73291 0.77197
vt 0.73047 0.76172
vt 0.71826 0.77148
vt 0.71924 0.76172
vt 0.71826 0.76123
vt 0.7168 0.77148
vt 0.7168 0.76172
vt 0.43848 0.51172
vt 0.43848 0.47168
vt 0.48608 0.47168
vt 0.48608 0.51172
vt 0.49414 0.47168
vt 0.49414 0.51172
vt 0.53418 0.47168
vt 0.54004 0.51221
vt 0.53906 0.47144
vt 0.54883 0.47168
vt 0.54883 0.51172
vt 0.70996 0.58154
vt 0.70996 0.57568
vt 0.73828 0.57812
vt 0.73535 0.58789
vt 0.75635 0.57812
vt 0.76025 0.58643
vt 0.77588 0.58447
vt 0.78174 0.57617
vt 0.78174 0.58936
vt 0.35522 0.62891
vt 0.35693 0.64014
vt 0.33594 0.64111
vt 0.33521 0.62939
vt 0.13171 0.64062
vt 0.13171 0.62939
vt 0.112 0.62891
vt 0.1098 0.64062
vt 0.77588 0.58301
vt 0.75635 0.5791
vt 0.75977 0.58789
vt 0.73486 0.58643
vt 0.71045 0.58154
vt 0.1084 0.61523
vt 0.1084 0.61963
vt 0.22681 0.61963
vt 0.34546 0.61475
vt 0.34595 0.61963
vt 0.77539 0.58203
vt 0.75635 0.57959
vt 0.73389 0.58545
vt 0.73926 0.57812
vt 0.70898 0.57568
vt 0.98633 0.51318
vt 0.98926 0.51318
vt 0.98828 0.51904
vt 0.98535 0.51904
vt 0.98535 0.51318
vt 0.98535 0.51855
vt 0.97363 0.51904
vt 0.97363 0.51318
vt 0.95703 0.51318
vt 0.95703 0.51904
vt 0.94482 0.51855
vt 0.94482 0.51318
vt 0.94434 0.5127
vt 0.94287 0.51904
vt 0.94189 0.5127
vt 0.47998 0.4187
vt 0.50586 0.41968
vt 0.50586 0.4353
vt 0.47852 0.43604
vt 0.4563 0.41968
vt 0.4563 0.4353
vt 0.4397 0.41968
vt 0.4397 0.4353
vt 0.48633 0.46924
vt 0.73047 0.77148
vt 0.7334 0.58643
vt 0.73926 0.57861
vt 0.76074 0.58594
vt 0.77637 0.58447
vt 0.12195 0.60547
vt 0.11224 0.60547
vt 0.11169 0.58057
vt 0.12195 0.57959
vt 0.13025 0.60547
vt 0.13025 0.57959
vt 0.13708 0.60547
vt 0.1377 0.5791
vt 0.19141 0.57959
vt 0.19141 0.60547
vt 0.26538 0.60547
vt 0.26538 0.57959
vt 0.31958 0.5791
vt 0.31494 0.60547
vt 0.32666 0.60547
vt 0.33032 0.57861
vt 0.3374 0.60547
vt 0.34473 0.57861
vt 0.34912 0.60498
vt 0.34302 0.61963
vt 0.22681 0.61523
vt 0.34595 0.61523
vt 0.94482 0.26611
vt 0.94482 0.26367
vt 0.85742 0.26367
vt 0.85742 0.2666
vt 0.94482 0.27026
vt 0.85693 0.27075
vt 0.94482 0.27856
vt 0.85742 0.27905
vt 0.94482 0.28369
vt 0.85645 0.28369
vt 0.85303 0.28687
vt 0.94873 0.28735
vt 0.94922 0.34229
vt 0.85254 0.34302
vt 0.85693 0.34595
vt 0.94482 0.34595
vt 0.94434 0.35059
vt 0.85693 0.35107
vt 0.94482 0.35889
vt 0.85693 0.35938
vt 0.94482 0.36328
vt 0.85693 0.36328
vt 0.85742 0.36621
vt 0.94482 0.36621
vt 0.70215 0.75146
vt 0.70654 0.74756
vt 0.56543 0.521
vt 0.55957 0.54834
vt 0.54932 0.54688
vt 0.54932 0.51953
vt 0.51953 0.52148
vt 0.51953 0.54688
vt 0.51025 0.54492
vt 0.50244 0.521
vt 0.5 0.54688
vt 0.46411 0.52148
vt 0.46411 0.54688
vt 0.33789 0.54688
vt 0.33789 0.52148
vt 0.21167 0.52148
vt 0.21167 0.54688
vt 0.17578 0.54688
vt 0.17578 0.52148
vt 0.16626 0.54443
vt 0.16492 0.52441
vt 0.15625 0.54688
vt 0.15625 0.52148
vt 0.12585 0.54688
vt 0.12573 0.51953
vt 0.11017 0.521
vt 0.10876 0.54736
vt 0.83154 0.55908
vt 0.83154 0.56787
vt 0.58057 0.56787
vt 0.58057 0.55908
vt 0.58008 0.53955
vt 0.83105 0.53857
vt 0.58057 0.52295
vt 0.83154 0.52295
vt 0.83301 0.49927
vt 0.57959 0.49927
vt 0.56738 0.48364
vt 0.84521 0.48389
vt 0.84326 0.32422
vt 0.56836 0.3252
vt 0.57959 0.30981
vt 0.83301 0.30933
vt 0.83105 0.2854
vt 0.58008 0.2854
vt 0.58057 0.26953
vt 0.83154 0.26953
vt 0.83154 0.25
vt 0.58057 0.25
vt 0.58057 0.24146
vt 0.83154 0.24146
vt 0.13171 0.64111
vt 0.11041 0.64111
vt 0.11041 0.63086
vt 0.1322 0.62988
vt 0.33569 0.62988
vt 0.33521 0.64111
vt 0.35571 0.64209
vt 0.35596 0.63232
vt 0.47754 0.64355
vt 0.50684 0.6416
vt 0.50879 0.6377
vt 0.47681 0.63574
vt 0.51074 0.63184
vt 0.44043 0.63965
vt 0.47729 0.63037
vt 0.50879 0.62598
vt 0.4397 0.63428
vt 0.47705 0.62109
vt 0.50684 0.61963
vt 0.40771 0.63672
vt 0.40747 0.64258
vt 0.43994 0.62451
vt 0.44043 0.61865
vt 0.40747 0.62207
vt 0.40894 0.62939
vt 0.37329 0.62012
vt 0.40674 0.6167
vt 0.36938 0.62549
vt 0.36865 0.63135
vt 0.37329 0.63525
vt 0.37329 0.6416
vt 0.47681 0.64111
vt 0.47681 0.63379
vt 0.51123 0.62891
vt 0.44189 0.6377
vt 0.47681 0.62451
vt 0.50635 0.61963
vt 0.47583 0.61914
vt 0.44019 0.63135
vt 0.43994 0.62354
vt 0.44116 0.61768
vt 0.40625 0.62354
vt 0.40845 0.63623
vt 0.40601 0.64502
vt 0.40869 0.63135
vt 0.37305 0.64209
vt 0.36768 0.62939
vt 0.37305 0.62012
vt 0.40869 0.61621
vt 0.10419 0.50537
vt 0.10571 0.51123
vt 0.2157 0.51123
vt 0.21484 0.50391
vt 0.10437 0.49512
vt 0.26123 0.51074
vt 0.21582 0.49487
vt 0.10571 0.48853
vt 0.26489 0.50293
vt 0.21594 0.48535
vt 0.26489 0.49561
vt 0.10559 0.48047
vt 0.28174 0.50439
vt 0.28198 0.51123
vt 0.2157 0.47485
vt 0.10571 0.47485
vt 0.36206 0.50391
vt 0.36206 0.51123
vt 0.2157 0.47949
vt 0.26416 0.48169
vt 0.26172 0.47412
vt 0.28198 0.47485
vt 0.26489 0.48828
vt 0.28101 0.48145
vt 0.36206 0.47485
vt 0.28198 0.48853
vt 0.36182 0.48145
vt 0.38062 0.47461
vt 0.28223 0.49536
vt 0.36206 0.48853
vt 0.37891 0.48169
vt 0.42822 0.47485
vt 0.42578 0.48193
vt 0.3623 0.49585
vt 0.37891 0.48828
vt 0.42822 0.48853
vt 0.42847 0.49536
vt 0.37744 0.49609
vt 0.42554 0.50293
vt 0.37915 0.50439
vt 0.42822 0.51123
vt 0.38062 0.51074
vt 0.01556 0.2312
vt 0.00852 0.23291
vt 0.00806 0.02698
vt 0.01526 0.02908
vt 0.15881 0.02908
vt 0.15881 0.22314
vt 0.16394 0.23083
vt 0.16614 0.02908
vt 0.17371 0.22314
vt 0.17371 0.02908
vt 0.17371 0.23059
vt 0.41504 0.02908
vt 0.41504 0.22314
vt 0.41504 0.23059
vt 0.42139 0.2334
vt 0.42261 0.02908
vt 0.42993 0.23145
vt 0.42993 0.02908
vt 0.57373 0.02908
vt 0.57373 0.22314
vt 0.57861 0.23083
vt 0.58105 0.02908
vt 0.58838 0.22314
vt 0.58838 0.02908
vt 0.58838 0.23059
vt 0.82275 0.02908
vt 0.82275 0.22314
vt 0.82275 0.23059
vt 0.8291 0.23291
vt 0.83008 0.02699
vt 0.00813 0.00775
vt 0.01526 0.00775
vt 0.00858 0.01468
vt 0.16077 0.00791
vt 0.15881 0.01526
vt 0.01526 0.02554
vt 0.00867 0.02582
vt 0.17151 0.01523
vt 0.17371 0.00775
vt 0.41504 0.00775
vt 0.16248 0.0256
vt 0.17371 0.02554
vt 0.41504 0.02554
vt 0.41504 0.01526
vt 0.42261 0.00775
vt 0.42676 0.02563
vt 0.42749 0.01521
vt 0.42993 0.00775
vt 0.57568 0.00793
vt 0.57715 0.02562
vt 0.57764 0.01514
vt 0.58838 0.00775
vt 0.58838 0.01526
vt 0.58838 0.02554
vt 0.82275 0.02554
vt 0.8291 0.02501
vt 0.82275 0.01526
vt 0.82275 0.00775
vt 0.83203 0.01512
vt 0.83008 0.00775
vt 0.0298 0.63379
vt 0.02112 0.64404
vt 0.01183 0.63232
vt 0.01936 0.62549
vt 0.00883 0.62842
vt 0.01028 0.55469
vt 0.08038 0.646
vt 0.02414 0.64746
vt 0.02934 0.55176
vt 0.02298 0.5415
vt 0.08118 0.62939
vt 0.09558 0.63281
vt 0.0827 0.53955
vt 0.02609 0.53857
vt 0.08502 0.55957
vt 0.09723 0.55566
vt 0.09393 0.55127
vt 0.85889 0.50537
vt 0.85742 0.50488
vt 0.85742 0.46216
vt 0.86035 0.46338
vt 0.86035 0.46118
vt 0.92871 0.46118
vt 0.93018 0.46143
vt 0.92871 0.50439
vt 0.86035 0.50684
vt 0.9292 0.50684
vt 0.93115 0.50537
vt 0.93115 0.46313
vt 0.62061 0.75
vt 0.6084 0.7417
usemtl mat0
f 1/1/1 2/2/2 3/3/3
f 4/2/4 5/4/5 6/5/6
f 7/1/7 8/2/8 9/3/9
f 10/2/10 11/4/11 12/5/12
f 13/6/13 14/7/14 15/8/15
f 16/6/16 17/7/17 18/8/18
f 19/9/19 20/10/20 21/11/21
f 22/12/22 19/9/19 23/13/23
f 23/13/23 24/14/24 22/12/22
f 22/12/22 24/14/24 25/15/25
f 25/15/25 26/16/26 22/12/22
f 27/17/27 26/16/26 25/15/25
f 25/15/25 28/18/28 27/17/27
f 27/17/27 29/19/29 30/20/30
f 30/20/30 31/21/31 27/17/27
f 32/22/32 33/23/33 34/24/33
f 35/12/34 36/25/35 32/22/32
f 32/22/32 37/14/36 35/12/34
f 35/12/34 37/14/36 38/15/37
f 38/15/37 39/16/38 35/12/34
f 40/26/39 39/16/38 38/15/37
f 38/15/37 41/27/40 40/26/39
f 42/28/41 43/29/42 41/27/40
f 41/27/40 44/30/43 42/28/41
f 45/31/44 46/32/45 47/33/46
f 47/33/46 48/34/47 45/31/44
f 49/35/48 50/36/1 51/37/49
f 51/37/49 52/7/50 49/35/48
f 53/38/51 54/35/52 55/7/53
f 55/7/53 56/8/54 53/38/51
f 57/39/55 58/40/56 59/41/57
f 59/41/57 60/42/58 57/39/55
f 61/39/59 62/40/60 63/41/61
f 63/41/61 64/42/62 61/39/59
f 65/39/63 66/40/64 67/41/65
f 67/41/65 68/42/66 65/39/63
f 69/39/67 70/40/68 71/41/69
f 71/41/69 72/42/70 69/39/67
f 73/35/71 74/36/7 75/37/72
f 75/37/72 76/7/73 73/35/71
f 77/38/74 78/35/75 79/7/76
f 79/7/76 80/8/77 77/38/74
f 81/2/78 82/43/79 83/44/80
f 83/44/80 84/45/81 81/2/78
f 85/7/82 86/35/83 87/36/84
f 87/36/84 88/37/85 85/7/82
f 89/39/86 90/42/87 91/46/88
f 91/46/88 92/40/89 89/39/86
f 93/39/90 94/42/91 95/46/92
f 95/46/92 96/40/93 93/39/90
f 97/39/94 98/42/95 99/46/96
f 99/46/96 100/40/97 97/39/94
f 101/39/98 102/42/99 103/46/100
f 103/46/100 104/40/101 101/39/98
f 105/2/102 106/43/103 107/44/104
f 107/44/104 108/45/105 105/2/102
f 109/7/106 110/35/107 111/36/108
f 111/36/108 112/37/109 109/7/106
f 113/47/110 114/48/111 115/49/112
f 116/50/113 117/51/114 114/48/111
f 117/51/114 116/50/113 118/52/115
f 119/53/116 118/52/115 115/49/112
f 118/52/115 119/53/116 117/51/114
f 120/54/117 121/55/118 122/56/46
f 122/56/46 121/55/118 123/57/119
f 123/57/119 124/58/47 122/56/46
f 123/57/119 125/59/120 124/58/47
f 124/58/47 125/59/120 126/60/121
f 126/60/121 127/61/44 124/58/47
f 126/60/121 128/62/122 127/61/44
f 128/62/122 129/63/123 127/61/44
f 127/61/44 129/63/123 130/64/124
f 130/64/124 131/65/45 127/61/44
f 130/64/124 132/66/125 131/65/45
f 131/65/45 132/66/125 133/67/126
f 133/67/126 134/68/46 131/65/45
f 133/67/126 135/69/117 134/68/46
f 136/70/127 137/71/128 138/72/129
f 138/72/129 139/73/130 136/70/127
f 139/73/130 138/72/129 140/74/131
f 140/74/131 141/75/132 139/73/130
f 141/75/132 140/74/131 142/76/133
f 142/76/133 143/77/134 141/75/132
f 144/78/135 143/77/134 142/76/133
f 144/78/135 142/76/133 145/79/128
f 145/79/128 146/80/127 144/78/135
f 147/81/136 148/82/137 149/83/138
f 149/83/138 150/84/139 147/81/136
f 150/84/139 149/83/138 151/85/140
f 151/85/140 152/86/141 150/84/139
f 152/86/141 151/85/140 153/87/142
f 153/87/142 154/88/143 152/86/141
f 154/88/143 153/87/142 155/89/144
f 154/88/143 155/89/144 156/90/137
f 156/90/137 157/91/136 154/88/143
f 158/92/145 159/93/146 160/94/147
f 160/94/147 161/95/148 158/92/145
f 161/95/148 160/94/147 162/96/149
f 162/96/149 163/97/150 161/95/148
f 164/98/151 163/97/150 162/96/149
f 162/96/149 165/99/152 164/98/151
f 165/99/152 166/100/153 164/98/151
f 167/101/154 168/102/155 169/103/156
f 169/103/156 170/104/157 167/101/154
f 170/104/157 169/103/156 171/105/158
f 171/105/158 172/106/159 170/104/157
f 173/107/160 172/106/159 171/105/158
f 171/105/158 174/108/161 173/107/160
f 175/100/162 176/99/163 177/109/164
f 177/109/164 176/99/163 178/110/165
f 178/110/165 179/111/166 177/109/164
f 180/112/167 179/111/166 178/110/165
f 178/110/165 181/94/168 180/112/167
f 182/113/169 180/112/167 181/94/168
f 181/94/168 183/93/170 182/113/169
f 184/114/54 185/115/53 186/116/171
f 186/116/171 187/117/85 184/114/54
f 186/116/171 188/118/82 187/117/85
f 189/100/172 190/99/173 191/119/174
f 191/119/174 190/99/173 192/120/175
f 192/120/175 193/111/176 191/119/174
f 194/121/177 193/111/176 192/120/175
f 192/120/175 195/122/178 194/121/177
f 194/121/177 195/122/178 196/123/179
f 196/123/179 197/113/180 194/121/177
f 198/114/77 199/115/76 200/116/181
f 200/116/181 201/117/109 198/114/77
f 200/116/181 202/118/106 201/117/109
f 203/124/182 204/125/183 205/126/184
f 205/126/184 206/127/185 203/124/182
f 207/128/186 203/124/182 206/127/185
f 206/127/185 208/129/187 207/128/186
f 207/128/186 208/129/187 209/130/188
f 209/130/188 210/131/189 207/128/186
f 211/132/190 210/131/189 209/130/188
f 209/130/188 212/133/191 211/132/190
f 211/132/190 212/133/191 213/134/192
f 213/134/192 214/135/193 211/132/190
f 215/136/194 214/135/193 213/134/192
f 213/134/192 216/137/195 215/136/194
f 217/138/196 215/136/194 216/137/195
f 218/139/197 219/140/198 220/141/199
f 220/141/199 221/142/200 218/139/197
f 222/143/201 218/139/197 221/142/200
f 221/142/200 223/144/202 222/143/201
f 224/145/203 222/143/201 223/144/202
f 223/144/202 225/146/204 224/145/203
f 226/139/205 227/140/206 228/141/207
f 228/141/207 229/142/208 226/139/205
f 230/143/209 226/139/205 229/142/208
f 229/142/208 231/144/210 230/143/209
f 232/145/211 230/143/209 231/144/210
f 231/144/210 233/146/212 232/145/211
f 234/139/213 235/140/214 236/141/215
f 236/141/215 237/142/216 234/139/213
f 238/143/217 234/139/213 237/142/216
f 237/142/216 239/144/218 238/143/217
f 240/145/219 238/143/217 239/144/218
f 239/144/218 241/146/220 240/145/219
f 242/139/221 243/140/222 244/141/223
f 244/141/223 245/142/224 242/139/221
f 246/143/225 242/139/221 245/142/224
f 245/142/224 247/144/226 246/143/225
f 248/145/227 246/143/225 247/144/226
f 247/144/226 249/146/228 248/145/227
f 250/83/229 251/82/230 252/81/231
f 252/81/231 253/84/232 250/83/229
f 254/147/233 250/83/229 253/84/232
f 253/84/232 255/86/234 254/147/233
f 256/87/235 254/147/233 255/86/234
f 255/86/234 257/88/236 256/87/235
f 258/89/237 256/87/235 257/88/236
f 259/90/230 258/89/237 257/88/236
f 257/88/236 260/91/231 259/90/230
f 261/72/238 262/71/239 263/70/240
f 263/70/240 264/73/241 261/72/238
f 265/148/242 261/72/238 264/73/241
f 264/73/241 266/75/243 265/148/242
f 267/76/244 265/148/242 266/75/243
f 266/75/243 268/77/245 267/76/244
f 267/76/244 268/77/245 269/78/246
f 270/79/239 267/76/244 269/78/246
f 269/78/246 271/80/240 270/79/239
f 272/149/247 273/113/248 274/123/249
f 274/123/249 275/150/250 272/149/247
f 276/151/251 272/149/247 275/150/250
f 275/150/250 277/96/252 276/151/251
f 276/151/251 277/96/252 278/99/253
f 278/99/253 279/152/254 276/151/251
f 278/99/253 280/100/255 279/152/254
f 281/153/256 282/154/257 283/155/258
f 283/155/258 284/156/259 281/153/256
f 285/157/260 281/153/256 284/156/259
f 284/156/259 286/158/261 285/157/260
f 287/159/262 285/157/260 286/158/261
f 286/158/261 288/160/263 287/159/262
f 287/159/262 288/160/263 289/161/264
f 289/161/264 290/162/265 287/159/262
f 291/163/266 290/162/265 289/161/264
f 289/161/264 292/164/267 291/163/266
f 291/163/266 292/164/267 293/165/268
f 293/165/268 294/166/269 291/163/266
f 295/167/270 294/166/269 293/165/268
f 293/165/268 296/168/271 295/167/270
f 297/169/272 295/167/270 296/168/271
f 296/168/271 298/170/273 297/169/272
f 299/171/274 297/169/272 298/170/273
f 300/172/49 301/173/275 302/174/50
f 303/114/14 301/173/275 300/172/49
f 300/172/49 304/115/15 303/114/14
f 305/175/276 306/176/277 307/177/278
f 307/177/278 308/178/279 305/175/276
f 309/179/280 305/175/276 308/178/279
f 308/178/279 310/180/281 309/179/280
f 311/181/282 309/179/280 310/180/281
f 310/180/281 312/182/283 311/181/282
f 313/183/284 311/181/282 312/182/283
f 312/182/283 314/184/285 313/183/284
f 313/183/284 314/184/285 315/185/286
f 315/185/286 316/186/287 313/183/284
f 316/186/287 315/185/286 317/187/288
f 318/188/289 317/187/288 315/185/286
f 319/189/290 317/187/288 318/188/289
f 319/189/290 320/190/291 317/187/288
f 321/191/292 320/190/291 319/189/290
f 319/189/290 322/192/293 321/191/292
f 323/193/294 321/191/292 322/192/293
f 322/192/293 324/194/295 323/193/294
f 325/195/296 323/193/294 324/194/295
f 324/194/295 326/196/297 325/195/296
f 325/195/296 326/196/297 327/197/298
f 327/197/298 328/198/299 325/195/296
f 329/172/72 330/173/300 331/174/73
f 332/114/17 330/173/300 329/172/72
f 329/172/72 333/115/18 332/114/17
f 334/53/301 335/199/302 336/200/303
f 337/47/304 336/200/303 335/199/302
f 335/199/302 338/48/305 337/47/304
f 338/48/305 339/51/306 340/50/307
f 341/52/308 340/50/307 339/51/306
f 339/51/306 334/53/301 341/52/308
f 336/200/303 341/52/308 334/53/301
f 342/201/309 343/202/310 344/203/311
f 344/203/311 345/204/312 342/201/309
f 346/205/313 345/204/312 344/203/311
f 344/203/311 347/206/314 346/205/313
f 347/206/314 348/207/315 346/205/313
f 349/208/316 346/205/313 348/207/315
f 349/208/316 348/207/315 350/209/317
f 351/210/318 349/208/316 350/209/317
f 350/209/317 352/211/319 351/210/318
f 351/210/318 352/211/319 353/212/320
f 353/212/320 354/213/321 351/210/318
f 355/214/322 354/213/321 353/212/320
f 353/212/320 356/215/323 355/214/322
f 355/214/322 356/215/323 357/216/324
f 357/216/324 358/217/325 355/214/322
f 358/217/325 357/216/324 359/218/326
f 359/218/326 360/219/327 358/217/325
f 360/219/327 359/218/326 361/220/328
f 361/220/328 362/221/329 360/219/327
f 362/221/329 361/220/328 363/222/330
f 363/222/330 364/223/331 362/221/329
f 365/224/332 364/223/331 363/222/330
f 363/222/330 366/225/333 365/224/332
f 367/201/334 368/202/335 369/203/336
f 369/203/336 370/204/337 367/201/334
f 371/205/338 370/204/337 369/203/336
f 369/203/336 372/206/339 371/205/338
f 372/206/339 373/207/340 371/205/338
f 374/208/341 371/205/338 373/207/340
f 374/208/341 373/207/340 375/209/342
f 376/210/343 374/208/341 375/209/342
f 375/209/342 377/211/344 376/210/343
f 376/210/343 377/211/344 378/212/345
f 378/212/345 379/213/346 376/210/343
f 380/214/347 379/213/346 378/212/345
f 378/212/345 381/215/348 380/214/347
f 380/214/347 381/215/348 382/216/349
f 382/216/349 383/217/350 380/214/347
f 383/217/350 382/216/349 384/218/351
f 384/218/351 385/219/352 383/217/350
f 385/219/352 384/218/351 386/220/353
f 386/220/353 387/221/354 385/219/352
f 387/221/354 386/220/353 388/222/355
f 388/222/355 389/223/356 387/221/354
f 390/224/357 389/223/356 388/222/355
f 388/222/355 391/225/358 390/224/357
f 392/226/359 393/227/360 394/228/361
f 394/228/361 395/229/362 392/226/359
f 392/226/359 395/229/362 396/230/363
f 396/230/363 397/231/364 392/226/359
f 397/231/364 396/230/363 398/232/365
f 398/232/365 399/233/366 397/231/364
f 400/234/367 399/233/366 398/232/365
f 398/232/365 401/235/368 400/234/367
f 400/234/367 401/235/368 402/236/369
f 400/234/367 402/236/369 403/237/370
f 403/237/370 402/236/369 404/238/371
f 405/239/372 404/238/371 402/236/369
f 404/238/371 405/239/372 406/240/373
f 406/240/373 407/241/374 404/238/371
f 408/242/375 407/241/374 406/240/373
f 406/240/373 409/243/376 408/242/375
f 408/242/375 409/243/376 410/244/377
f 410/244/377 411/245/378 408/242/375
f 412/246/379 411/245/378 410/244/377
f 410/244/377 413/247/380 412/246/379
f 412/246/379 413/247/380 414/248/381
f 414/248/381 415/249/382 412/246/379
f 416/250/383 417/251/384 418/252/385
f 418/252/385 419/253/386 416/250/383
f 416/250/383 419/253/386 420/254/387
f 420/254/387 421/255/388 416/250/383
f 422/256/389 421/255/388 420/254/387
f 420/254/387 423/257/390 422/256/389
f 424/258/391 425/259/392 426/260/393
f 426/260/393 427/261/394 424/258/391
f 427/261/394 426/260/393 428/262/395
f 429/263/396 424/258/391 427/261/394
f 428/262/395 430/264/397 427/261/394
f 430/264/397 428/262/395 431/265/398
f 427/261/394 432/266/399 429/263/396
f 432/266/399 427/261/394 430/264/397
f 433/267/400 431/265/398 434/268/401
f 431/265/398 433/267/400 430/264/397
f 429/263/396 435/269/402 436/270/403
f 435/269/402 429/263/396 432/266/399
f 437/271/404 430/264/397 433/267/400
f 430/264/397 437/271/404 432/266/399
f 433/267/400 438/272/405 437/271/404
f 439/273/406 437/271/404 438/272/405
f 440/274/407 432/266/399 437/271/404
f 437/271/404 439/273/406 440/274/407
f 432/266/399 440/274/407 435/269/402
f 441/275/408 439/273/406 442/276/409
f 439/273/406 441/275/408 443/277/410
f 443/277/410 440/274/407 439/273/406
f 440/274/407 443/277/410 444/278/411
f 440/274/407 444/278/411 445/279/412
f 445/279/412 435/269/402 440/274/407
f 435/269/402 445/279/412 446/280/413
f 447/260/414 448/259/415 449/281/416
f 449/281/416 450/282/417 447/260/414
f 451/283/418 447/260/414 450/282/417
f 450/282/417 449/281/416 452/284/419
f 450/282/417 453/285/420 451/283/418
f 454/286/421 451/283/418 453/285/420
f 453/285/420 455/287/422 454/286/421
f 452/284/419 456/288/423 450/282/417
f 453/285/420 450/282/417 456/288/423
f 455/287/422 453/285/420 457/289/424
f 456/288/423 457/289/424 453/285/420
f 457/289/424 458/290/425 455/287/422
f 458/290/425 457/289/424 459/291/426
f 456/288/423 452/284/419 460/292/427
f 461/293/428 460/292/427 452/284/419
f 457/289/424 456/288/423 462/294/429
f 460/292/427 462/294/429 456/288/423
f 462/294/429 459/291/426 457/289/424
f 463/295/430 464/279/431 460/292/427
f 462/294/429 460/292/427 464/279/431
f 464/279/431 465/296/432 462/294/429
f 459/291/426 462/294/429 465/296/432
f 465/296/432 466/297/433 459/291/426
f 467/298/434 459/291/426 466/297/433
f 468/299/435 469/300/436 470/301/437
f 470/301/437 471/302/438 468/299/435
f 472/303/439 468/299/435 471/302/438
f 473/304/440 471/302/438 470/301/437
f 471/302/438 474/305/441 472/303/439
f 475/306/442 472/303/439 474/305/441
f 471/302/438 473/304/440 476/307/443
f 474/305/441 477/308/444 475/306/442
f 478/309/445 474/305/441 471/302/438
f 471/302/438 476/307/443 478/309/445
f 477/308/444 474/305/441 478/309/445
f 477/308/444 479/310/446 475/306/442
f 480/311/447 476/307/443 473/304/440
f 473/304/440 481/312/448 480/311/447
f 482/313/437 483/314/436 479/310/446
f 484/315/449 480/311/447 481/312/448
f 481/312/448 485/316/450 484/315/449
f 479/310/446 486/317/451 482/313/437
f 479/310/446 477/308/444 486/317/451
f 482/313/437 486/317/451 487/318/452
f 486/317/451 477/308/444 487/318/452
f 487/318/452 488/319/453 482/313/437
f 489/320/448 488/319/453 487/318/452
f 490/321/454 487/318/452 477/308/444
f 478/309/445 490/321/454 477/308/444
f 487/318/452 491/322/455 489/320/448
f 491/322/455 487/318/452 490/321/454
f 492/323/450 489/320/448 491/322/455
f 493/324/456 490/321/454 478/309/445
f 490/321/454 493/324/456 491/322/455
f 491/322/455 494/325/457 492/323/450
f 494/325/457 491/322/455 493/324/456
f 495/326/458 492/323/450 494/325/457
f 478/309/445 496/327/459 493/324/456
f 496/327/459 478/309/445 476/307/443
f 476/307/443 480/311/447 496/327/459
f 493/324/456 497/328/460 494/325/457
f 497/328/460 493/324/456 496/327/459
f 494/325/457 498/329/461 495/326/458
f 498/329/461 494/325/457 497/328/460
f 499/330/436 495/326/458 498/329/461
f 498/329/461 500/331/462 499/330/436
f 501/332/463 496/327/459 480/311/447
f 496/327/459 501/332/463 497/328/460
f 480/311/447 484/315/449 501/332/463
f 497/328/460 502/333/464 498/329/461
f 500/331/462 498/329/461 502/333/464
f 502/333/464 497/328/460 501/332/463
f 502/333/464 503/334/442 500/331/462
f 504/335/465 503/334/442 502/333/464
f 501/332/463 505/336/466 502/333/464
f 502/333/464 505/336/466 504/335/465
f 505/336/466 501/332/463 484/315/449
f 506/337/467 504/335/465 505/336/466
f 484/315/449 507/338/468 505/336/466
f 505/336/466 507/338/468 506/337/467
f 507/338/468 484/315/449 485/316/450
f 508/339/436 506/337/467 507/338/468
f 485/316/450 509/340/469 507/338/468
f 507/338/468 509/340/469 508/339/436
f 510/299/470 511/300/471 512/301/472
f 512/301/472 513/302/473 510/299/470
f 514/303/474 510/299/470 513/302/473
f 515/304/475 513/302/473 512/301/472
f 513/302/473 516/305/476 514/303/474
f 517/306/477 514/303/474 516/305/476
f 513/302/473 515/304/475 518/307/478
f 516/305/476 519/308/479 517/306/477
f 520/309/480 516/305/476 513/302/473
f 513/302/473 518/307/478 520/309/480
f 519/308/479 516/305/476 520/309/480
f 519/308/479 521/310/481 517/306/477
f 522/311/482 518/307/478 515/304/475
f 515/304/475 523/312/483 522/311/482
f 524/313/472 525/314/471 521/310/481
f 526/315/484 522/311/482 523/312/483
f 523/312/483 527/316/485 526/315/484
f 521/310/481 528/317/486 524/313/472
f 521/310/481 519/308/479 528/317/486
f 524/313/472 528/317/486 529/318/487
f 528/317/486 519/308/479 529/318/487
f 529/318/487 530/319/488 524/313/472
f 531/320/483 530/319/488 529/318/487
f 532/321/489 529/318/487 519/308/479
f 520/309/480 532/321/489 519/308/479
f 529/318/487 533/322/490 531/320/483
f 533/322/490 529/318/487 532/321/489
f 534/323/485 531/320/483 533/322/490
f 535/324/491 532/321/489 520/309/480
f 532/321/489 535/324/491 533/322/490
f 533/322/490 536/325/492 534/323/485
f 536/325/492 533/322/490 535/324/491
f 537/326/493 534/323/485 536/325/492
f 520/309/480 538/327/494 535/324/491
f 538/327/494 520/309/480 518/307/478
f 518/307/478 522/311/482 538/327/494
f 535/324/491 539/328/495 536/325/492
f 539/328/495 535/324/491 538/327/494
f 536/325/492 540/329/496 537/326/493
f 540/329/496 536/325/492 539/328/495
f 541/330/471 537/326/493 540/329/496
f 540/329/496 542/331/497 541/330/471
f 543/332/498 538/327/494 522/311/482
f 538/327/494 543/332/498 539/328/495
f 522/311/482 526/315/484 543/332/498
f 539/328/495 544/333/499 540/329/496
f 542/331/497 540/329/496 544/333/499
f 544/333/499 539/328/495 543/332/498
f 544/333/499 545/334/477 542/331/497
f 546/335/500 545/334/477 544/333/499
f 543/332/498 547/336/501 544/333/499
f 544/333/499 547/336/501 546/335/500
f 547/336/501 543/332/498 526/315/484
f 548/337/502 546/335/500 547/336/501
f 526/315/484 549/338/503 547/336/501
f 547/336/501 549/338/503 548/337/502
f 549/338/503 526/315/484 527/316/485
f 550/339/471 548/337/502 549/338/503
f 527/316/485 551/340/504 549/338/503
f 549/338/503 551/340/504 550/339/471
f 552/341/505 553/342/506 554/343/507
f 554/343/507 555/344/508 552/341/505
f 552/341/505 555/344/508 556/345/509
f 556/345/509 557/346/510 552/341/505
f 557/346/510 558/347/511 552/341/505
f 558/347/511 557/346/510 556/345/509
f 556/345/509 559/348/512 558/347/511
f 560/349/513 558/347/511 559/348/512
f 559/348/512 561/350/514 560/349/513
f 560/349/513 562/351/515 558/347/511
f 560/349/513 561/350/514 563/352/516
f 562/351/515 560/349/513 564/353/517
f 563/352/516 564/353/517 560/349/513
f 564/353/517 565/354/518 562/351/515
f 565/354/518 564/353/517 566/355/519
f 566/355/519 564/353/517 563/352/516
f 563/352/516 567/356/520 566/355/519
f 568/357/521 566/355/519 567/356/520
f 567/356/520 569/358/522 568/357/521
f 568/357/521 569/358/522 570/359/523
f 570/359/523 571/360/524 568/357/521
f 571/360/524 572/361/525 568/357/521
f 572/361/525 571/360/524 570/359/523
f 570/359/523 573/362/526 572/361/525
f 574/363/527 572/361/525 573/362/526
f 573/362/526 575/364/528 574/363/527
f 574/363/527 576/365/529 572/361/525
f 574/363/527 575/364/528 577/366/530
f 576/365/529 574/363/527 578/367/531
f 577/366/530 578/367/531 574/363/527
f 578/367/531 579/368/532 576/365/529
f 579/368/532 578/367/531 580/369/533
f 580/369/533 578/367/531 577/366/530
f 577/366/530 581/370/534 580/369/533
f 582/371/122 583/372/121 584/373/535
f 584/373/535 583/372/121 585/374/536
f 585/374/536 586/375/537 584/373/535
f 587/376/538 584/373/535 586/375/537
f 587/376/538 588/377/539 584/373/535
f 588/377/539 587/376/538 555/344/540
f 585/374/536 589/378/541 586/375/537
f 585/374/536 590/379/119 589/378/541
f 589/378/541 590/379/119 591/380/118
f 586/375/537 592/381/542 587/376/538
f 555/344/540 587/376/538 592/381/542
f 586/375/537 589/378/541 592/381/542
f 592/381/542 556/345/543 555/344/540
f 559/348/544 556/345/543 592/381/542
f 561/350/545 559/348/544 592/381/542
f 592/381/542 593/382/546 561/350/545
f 593/382/546 592/381/542 589/378/541
f 563/352/547 561/350/545 593/382/546
f 593/382/546 594/383/548 563/352/547
f 594/383/548 593/382/546 589/378/541
f 567/356/549 563/352/547 594/383/548
f 591/380/118 595/384/550 589/378/541
f 589/378/541 595/384/550 594/383/548
f 595/384/550 591/380/118 596/385/117
f 594/383/548 597/386/551 567/356/549
f 597/386/551 594/383/548 595/384/550
f 569/358/552 567/356/549 597/386/551
f 570/359/553 569/358/552 597/386/551
f 596/385/117 598/387/554 595/384/550
f 595/384/550 598/387/554 597/386/551
f 596/385/117 599/388/126 598/387/554
f 598/387/554 599/388/126 600/389/555
f 597/386/551 601/390/556 570/359/553
f 601/390/556 597/386/551 598/387/554
f 573/362/557 570/359/553 601/390/556
f 600/389/555 602/391/558 598/387/554
f 598/387/554 602/391/558 601/390/556
f 602/391/558 600/389/555 603/392/124
f 575/364/559 573/362/557 601/390/556
f 603/392/124 604/393/560 602/391/558
f 601/390/556 602/391/558 604/393/560
f 601/390/556 605/394/561 575/364/559
f 604/393/560 605/394/561 601/390/556
f 575/364/559 605/394/561 606/395/562
f 606/395/562 605/394/561 604/393/560
f 606/395/562 577/366/563 575/364/559
f 607/396/564 577/366/563 606/395/562
f 608/397/565 604/393/560 603/392/124
f 604/393/560 608/397/565 606/395/562
f 607/396/564 606/395/562 608/397/565
f 603/392/124 609/398/123 608/397/565
f 608/397/565 610/399/566 607/396/564
f 608/397/565 609/398/123 611/400/122
f 611/400/122 610/399/566 608/397/565
f 612/401/567 613/402/568 614/403/569
f 614/403/569 615/404/570 612/401/567
f 615/404/570 616/405/571 617/406/572
f 618/407/573 619/408/568 612/401/567
f 615/404/570 617/406/572 620/409/574
f 620/409/574 612/401/567 615/404/570
f 620/409/574 617/406/572 621/410/575
f 622/411/576 618/407/573 612/401/567
f 622/411/576 612/401/567 620/409/574
f 622/411/576 623/412/577 618/407/573
f 624/413/578 620/409/574 625/414/575
f 626/415/579 623/412/577 622/411/576
f 620/409/574 626/415/579 622/411/576
f 620/409/574 624/413/578 626/415/579
f 626/415/579 627/416/580 623/412/577
f 628/417/581 626/415/579 624/413/578
f 629/401/582 630/402/583 631/403/584
f 631/403/584 632/404/585 629/401/582
f 632/404/585 633/405/586 634/406/587
f 635/407/588 636/408/583 629/401/582
f 632/404/585 634/406/587 637/409/589
f 637/409/589 629/401/582 632/404/585
f 637/409/589 634/406/587 638/410/590
f 639/411/591 635/407/588 629/401/582
f 639/411/591 629/401/582 637/409/589
f 639/411/591 640/412/592 635/407/588
f 641/413/593 637/409/589 642/414/590
f 643/415/594 640/412/592 639/411/591
f 637/409/589 643/415/594 639/411/591
f 637/409/589 641/413/593 643/415/594
f 643/415/594 644/416/595 640/412/592
f 645/417/596 643/415/594 641/413/593
f 646/418/597 647/419/598 648/420/599
f 648/420/599 649/421/600 646/418/597
f 650/422/601 649/421/600 648/420/599
f 649/421/600 650/422/601 651/423/602
f 651/423/602 652/424/603 649/421/600
f 653/425/604 646/418/597 649/421/600
f 649/421/600 652/424/603 653/425/604
f 654/426/605 646/418/597 653/425/604
f 653/425/604 655/427/606 654/426/605
f 655/427/606 653/425/604 656/428/607
f 656/428/607 653/425/604 652/424/603
f 652/424/603 657/429/608 656/428/607
f 658/430/609 659/431/610 660/200/611
f 660/200/611 661/199/612 658/430/609
f 661/199/612 660/200/611 662/52/613
f 662/52/613 663/53/614 661/199/612
f 663/53/614 662/52/613 664/50/615
f 665/51/616 664/50/615 659/431/610
f 664/50/615 665/51/616 663/53/614
f 666/200/617 667/431/618 668/430/619
f 668/430/619 669/199/620 666/200/617
f 670/52/621 666/200/617 669/199/620
f 669/199/620 671/53/622 670/52/621
f 672/50/623 670/52/621 671/53/622
f 667/431/618 672/50/623 673/51/624
f 671/53/622 673/51/624 672/50/623
# Vertices: 673, normals: 624, texture coordinates: 431, faces: 632

