# Blender 5.1.2
# www.blender.org
mtllib roca2.mtl
o Free+Pack+-+Rocks+Stylized
v 6.965350 17.876116 -5.983859
v 9.979818 0.438447 -8.006247
v -10.655734 15.693583 -29.302439
v 16.095030 21.198503 -20.039013
v -2.980588 29.593945 -32.180431
v -10.216585 0.997833 -6.948843
v 13.868810 5.644548 -29.887074
v 12.930767 36.649155 -35.123169
v -8.380926 4.703239 -4.006192
v 11.818974 34.484970 -20.886923
v -1.235866 23.877321 -12.803185
v 13.357942 19.814606 -33.751724
v 11.722728 2.272194 -24.613867
v 0.834901 0.539035 -25.306604
v 18.828819 6.501970 -12.015706
v -7.477213 28.977880 -19.451447
v -7.702980 24.223913 -30.967741
v -12.520050 25.254749 -24.894508
v 18.471285 28.559818 -30.540131
v -17.222059 4.732992 -20.147676
v 18.216215 36.131554 -32.533985
v -15.551226 0.459524 -25.595335
v -13.839239 0.441324 -16.996069
v 19.223663 23.215937 -26.409088
v -9.697057 26.110531 -17.491337
v 14.120358 32.240517 -35.399582
v 2.463851 1.721084 -7.778395
v -0.616527 24.975424 -35.458778
v 14.660522 17.068398 -13.435205
v -18.129768 0.287539 -15.272054
v 10.225660 26.468935 -12.792919
v -6.594936 0.014416 -12.615738
v 21.683334 11.514187 -22.061535
v -18.906441 8.179580 -9.690897
v 19.506693 1.920887 -12.074843
v -5.925409 9.933876 -5.649407
v 17.858988 20.473448 -31.158030
v -15.763814 15.181916 -25.929165
v -1.031632 1.842804 -3.698074
v 18.649509 34.490829 -31.991333
v 9.143164 19.408245 -33.461937
v -16.680996 1.478059 -5.583930
v 17.737516 26.081902 -22.166870
v 0.173760 19.847067 -33.069695
v -19.848375 0.803035 -9.541762
v 0.973259 1.287533 -5.778947
v 21.021526 6.385350 -18.614988
v 8.516717 24.310652 -10.892767
v -19.748764 1.554523 -15.447268
v 16.888346 34.125324 -27.059900
v 12.932070 7.714243 -31.018866
v -15.136671 1.847341 -4.928179
v 13.826740 4.392347 -9.695359
v 16.848106 37.377811 -33.666004
v 15.518255 0.892300 -13.302911
v -15.672440 10.757118 -25.485733
v -9.894037 1.090369 -4.699642
v 18.604023 14.106527 -15.244113
v -10.974980 2.274706 -4.380024
v 10.274552 36.595413 -22.770206
v 19.711533 20.376730 -21.884817
v -7.256693 0.814708 -34.023792
v -13.209523 0.986483 -4.940840
v -0.748052 35.525898 -23.986580
v 17.831247 25.386726 -31.352768
v -6.551629 32.074715 -24.915501
v 15.057487 19.981127 -14.439557
v 10.826235 37.474621 -25.013231
v 19.311378 24.780657 -26.614582
v -1.302924 36.231018 -26.204014
v -1.084945 8.830686 -3.333526
v -17.394300 0.952032 -6.388175
v 5.249024 36.983295 -24.115154
v 17.810873 22.939966 -30.590265
v 12.302200 25.288649 -14.719466
v 3.206378 1.364685 -33.667458
v 14.192468 37.713684 -30.138088
v 16.972233 20.318233 -19.577402
v -18.223427 2.019341 -22.404421
v 17.904123 12.268539 -29.897257
v 9.185986 22.085518 -8.685357
v 17.715935 35.155758 -29.939661
v -16.893761 9.101016 -23.484335
v 6.439247 35.344460 -35.547485
v -4.749611 3.670877 -1.967184
v 6.167372 0.638319 -17.785765
v 3.891820 35.669209 -32.990044
v 12.614168 24.879267 -15.191730
v 12.639966 1.608087 -22.630934
v 18.329309 21.436081 -22.521450
v 0.127312 36.533562 -25.280153
v -16.957338 1.454141 -25.890940
v 9.862637 21.738415 -8.484300
v 18.810883 28.176826 -29.004988
v 19.702257 12.465046 -16.841087
v -6.143550 0.486780 -34.164562
v 19.273308 18.325617 -18.721441
v 14.569437 30.643288 -21.521444
v 7.620954 37.285778 -27.779598
v -19.061993 10.044677 -16.907843
v -13.817352 0.166221 -15.249750
v 15.076638 34.352486 -35.241550
v 12.255014 5.536521 -29.595602
v 9.101037 8.612616 -7.469504
v 19.992167 21.475994 -25.746273
v 11.502757 10.412112 -32.557713
v -15.423749 18.148407 -13.644193
v -14.023318 14.011369 -26.922565
v -1.491778 14.049070 -6.299312
v -16.971424 8.356298 -21.692879
v -0.705570 0.599822 -10.475772
v -6.970232 2.719710 -2.442334
v -20.659000 2.339551 -10.552793
v -6.710629 31.588936 -27.198696
v 3.321633 13.850115 -4.671494
v -16.142138 0.461855 -21.937557
v -6.171137 1.142040 -3.782371
v -4.140423 0.369919 -18.932657
v 12.328013 12.088394 -9.041172
v -0.974612 18.530247 -33.625145
v 12.716488 15.849298 -9.029716
v -4.711209 14.093493 -33.944595
v 12.165217 6.751699 -8.959672
v -17.804937 1.212451 -24.352362
v 11.130360 1.158405 -21.736277
v 17.529770 37.065296 -33.871624
v -16.485115 19.406631 -24.334080
v -2.496838 34.664894 -30.077877
v -19.091490 3.634973 -17.526876
v 4.545692 26.440140 -37.280159
v -16.511377 10.176904 -22.935703
v -17.806187 11.744896 -11.213276
v 13.329432 11.900532 -9.260336
v -12.414946 8.969469 -28.773726
v 10.051814 30.702309 -17.188187
v 16.152327 9.617046 -10.932532
v -2.617306 35.361343 -29.487114
v 11.126735 31.999388 -18.471910
v 13.994515 16.015829 -10.676325
v 10.900078 10.306446 -8.056132
v -19.096104 1.607177 -7.656769
v 15.570774 25.321850 -34.178928
v 11.774826 37.778568 -27.186764
v -16.976200 1.820729 -18.893873
v -11.157164 1.639534 -4.712095
v -20.576902 3.734058 -10.714915
v 15.324811 23.972713 -18.863970
v 11.480334 34.217739 -20.459932
v 3.335896 18.928381 -33.789528
v 19.232090 23.729570 -23.828682
v -13.093605 13.455732 -27.747847
v -14.232619 21.495375 -17.384216
v 19.848417 21.176840 -27.111065
v -3.152200 19.092308 -31.946564
v -19.980940 6.531467 -13.662313
v -17.589163 1.251425 -21.028498
v 11.397119 23.020971 -11.703349
v -8.772509 18.618567 -30.964205
v 10.341012 1.233916 -23.779198
v 14.889056 24.368631 -17.417988
v -5.646848 23.437418 -33.421730
v 14.340102 24.928789 -17.551531
v 15.660619 37.613564 -31.626221
v 10.087464 37.119030 -23.381235
v -16.746258 1.539736 -18.084850
v -12.559618 2.442650 -4.346772
v 12.541071 14.184442 -8.623912
v 15.788965 20.074942 -17.939379
v 10.715190 29.761730 -16.095299
v -19.988194 1.265363 -14.209963
v 14.779282 15.389823 -11.993836
v -10.795240 -0.000001 -15.370751
v 16.991549 25.517529 -20.675690
v 6.730193 12.739627 -33.877338
v -14.371349 0.284467 -18.952415
v 17.356651 1.298514 -16.137878
v -10.315166 27.444054 -21.850197
v -5.966547 15.662109 -32.517319
v -3.246246 35.531906 -27.748652
v 6.415221 21.265005 -9.074172
v -4.130725 34.630245 -28.336143
v 9.640028 36.072220 -35.465954
v -5.144350 30.601742 -20.479023
v 6.589439 6.469223 -33.590271
v 2.208392 18.720160 -7.912161
v 11.252900 18.942837 -34.335644
v -12.032333 17.597891 -29.183846
v -1.859204 33.822254 -22.765579
v 11.805336 10.033401 -31.808769
v -14.993764 0.705095 -27.766905
v -18.974033 0.779884 -8.139418
v 8.117414 1.316759 -26.849039
v 5.973435 20.403959 -8.111940
v 16.071014 36.300209 -34.869461
v 20.496000 3.158233 -15.552542
v 17.155203 30.196558 -32.496601
v -8.906203 4.816599 -4.894526
v 3.791687 5.240401 -5.563800
v -16.195368 17.120960 -25.292650
v -2.856996 2.184853 -2.876555
v 19.441570 2.569283 -16.820005
v -10.151567 5.283831 -4.870930
v 10.970761 26.151815 -36.613544
v -6.229874 8.713508 -5.181116
v 0.588769 16.518772 -7.205886
v 2.001860 17.302731 -7.113198
v -0.635518 0.868432 -4.909463
v 15.967172 37.491585 -32.964603
v -1.459091 14.967726 -6.752665
v -4.679801 10.631004 -5.848040
v -5.741493 13.246446 -33.628925
v 3.005204 2.438435 -7.144812
v 0.596588 0.799512 -33.810993
v -6.613814 17.176340 -30.318390
v 14.963529 21.275986 -32.417782
v -0.350383 34.115578 -31.891069
v 8.435542 19.072800 -33.791687
v 17.532627 21.981756 -29.968288
v 4.012790 27.632092 -37.020004
v 13.163243 25.876291 -35.936504
v 10.907865 14.218103 -33.263527
v -18.199450 8.012161 -19.943272
v -7.730956 21.223986 -32.476479
v 18.616659 30.723679 -30.907238
v -17.912989 14.157908 -19.138493
v -15.854218 1.112479 -17.823196
v -18.048498 13.374052 -20.222351
v 16.488338 33.462204 -26.026764
v 2.917893 32.552830 -19.954834
v 17.232323 37.197018 -33.144073
v -0.817863 0.284512 -9.334962
v 18.476440 25.091335 -22.592937
v 14.588284 15.266346 -32.294746
v 2.111011 0.280233 -10.297402
v 18.213099 16.866688 -30.571831
v 21.333336 16.098370 -24.453278
v -10.104069 15.166633 -30.185011
v 0.597948 0.626870 -7.139738
v 1.832482 20.861534 -33.895535
v -2.164916 0.118576 -11.912454
v 3.316404 19.706423 -33.534317
v 5.771695 35.505249 -35.147335
v -2.725454 1.218327 -3.863544
v 6.680652 25.650654 -37.312325
v -8.250340 30.047070 -23.366550
v 11.262014 31.099329 -17.995438
v -5.785869 0.012066 -13.318593
v 1.044154 27.096375 -15.180259
v 9.276146 20.273880 -7.122050
v -12.443375 25.087137 -25.647278
v 2.559710 1.563749 -34.001225
v 4.391792 4.139197 -7.084855
v 18.739201 21.881386 -23.265919
v 17.748007 0.821229 -11.094357
v 1.661794 36.427471 -27.618292
v 18.701300 22.359077 -26.899696
v 2.039533 34.956421 -32.872448
v 3.597733 0.899234 -31.622152
v -16.627588 5.776802 -25.315634
v 0.514199 2.090075 -4.466657
v 12.181756 4.213840 -27.830387
v -6.050200 0.371967 -29.320305
v 10.675703 12.606002 -33.682125
v -9.600323 2.495066 -3.331472
v -20.145914 4.470912 -9.272743
v 13.164887 4.810093 -28.989588
v 1.640164 1.240295 -8.890609
v -5.698558 0.466452 -24.737829
v -8.692645 1.197638 -4.042463
v 2.610902 36.805904 -24.426186
v 0.210527 9.770299 -3.669985
v -13.048872 0.451933 -12.382098
v -9.477523 0.698953 -8.257502
v 6.650394 1.197029 -6.840562
v 6.465539 3.473140 -6.754807
v 17.573820 5.253309 -24.351124
v -15.533384 0.509853 -16.523003
v 3.372534 21.673594 -9.670992
v -17.751415 0.986745 -17.193645
v 9.568016 23.336176 -10.758792
v -2.267737 18.373920 -33.161228
v 12.206348 26.551723 -36.396049
v -17.375328 2.778879 -18.798119
v 11.354847 20.353298 -34.155907
v -18.611414 1.405415 -16.980879
v 4.320962 36.982533 -25.946049
v -3.225507 25.791208 -15.369474
v -18.721537 0.808321 -15.962603
v -11.169694 0.711868 -8.182474
v -10.022649 21.008444 -13.664992
v 2.619127 26.950462 -36.757626
v 16.237568 6.518320 -28.374643
v -15.220906 12.050138 -25.053490
v 15.782148 36.834766 -34.721355
v 18.377956 35.251232 -31.415487
v 9.847985 27.998806 -14.281585
v 11.891660 4.695912 -30.477060
v 13.597243 14.488386 -10.690964
v 6.793592 8.491166 -33.844933
v 12.443382 22.138109 -34.830063
v 19.084724 21.921120 -26.220350
v 11.486519 16.143476 -33.834770
vn 0.0561 -0.9966 -0.0607
vn -0.4572 0.1450 -0.8775
vn -0.5750 0.1969 -0.7941
vn -0.4747 0.3141 -0.8222
vn 0.6419 0.1408 0.7538
vn 0.7382 0.2856 0.6112
vn 0.5955 0.1935 0.7797
vn -0.0840 -0.5475 0.8326
vn -0.0241 -0.9684 0.2483
vn 0.2806 -0.2846 0.9167
vn -0.3253 0.4342 0.8400
vn -0.3184 0.3445 0.8832
vn -0.4391 0.4756 0.7622
vn -0.3120 0.7010 0.6413
vn -0.1379 0.6388 0.7569
vn -0.1340 0.6468 0.7508
vn -0.7203 0.1744 -0.6714
vn -0.7542 0.2171 -0.6197
vn -0.8017 0.2949 -0.5199
vn 0.1166 -0.9633 0.2416
vn -0.0150 -0.9945 0.1040
vn 0.0429 -0.9985 -0.0347
vn 0.9867 -0.1438 -0.0760
vn 0.9260 0.1362 0.3522
vn 0.9445 -0.0744 0.3200
vn -0.0134 -0.0618 -0.9980
vn -0.0380 0.0394 -0.9985
vn 0.0446 -0.0350 -0.9984
vn -0.1332 0.9788 -0.1556
vn -0.1181 0.9379 -0.3263
vn -0.1474 0.9724 -0.1809
vn 0.2554 -0.0783 -0.9637
vn -0.0613 0.5611 -0.8255
vn 0.4696 -0.1170 -0.8751
vn 0.4461 -0.1646 0.8797
vn 0.3844 -0.0571 0.9214
vn 0.3986 -0.1513 0.9046
vn 0.1656 0.1870 0.9683
vn -0.2636 0.5190 0.8131
vn 0.1938 0.1164 0.9741
vn 0.7590 0.2688 0.5930
vn 0.5915 0.6569 0.4676
vn 0.7007 0.2986 0.6480
vn -0.1227 0.9764 -0.1775
vn -0.8897 0.4148 0.1906
vn -0.8547 0.4667 0.2273
vn -0.9055 0.4182 0.0718
vn -0.1131 0.9931 -0.0309
vn 0.5930 -0.3479 -0.7262
vn 0.7732 -0.3654 -0.5182
vn 0.6818 -0.5919 -0.4299
vn 0.5880 -0.7054 -0.3958
vn 0.4947 -0.8005 -0.3383
vn 0.4020 -0.8423 -0.3590
vn 0.3900 -0.2579 -0.8840
vn 0.5242 -0.5242 -0.6711
vn 0.4482 -0.7162 -0.5349
vn 0.0213 -0.0034 -0.9998
vn 0.1041 -0.0478 -0.9934
vn 0.0541 -0.0366 -0.9979
vn -0.5816 0.0658 -0.8108
vn -0.6416 -0.1356 -0.7550
vn -0.6414 0.0951 -0.7613
vn 0.0021 -0.4189 -0.9080
vn 0.4226 -0.0299 0.9058
vn 0.3782 0.0305 0.9252
vn 0.0545 -0.9969 -0.0568
vn -0.6047 0.6227 0.4965
vn -0.2343 0.5314 0.8141
vn -0.1799 0.5981 0.7810
vn -0.2058 0.5952 0.7767
vn -0.3085 -0.4724 -0.8256
vn -0.1867 -0.5445 -0.8177
vn -0.6601 -0.0278 -0.7507
vn -0.1105 -0.6361 -0.7636
vn -0.0804 -0.6207 -0.7799
vn -0.0277 -0.6159 -0.7874
vn -0.9776 0.2080 -0.0313
vn -0.4384 0.4356 0.7862
vn -0.9257 0.3522 0.1381
vn 0.0169 -0.9958 0.0895
vn -0.0412 -0.9922 0.1180
vn -0.0369 -0.9935 0.1079
vn 0.9249 -0.3701 -0.0871
vn 0.7452 0.2476 0.6192
vn 0.7568 0.2403 0.6079
vn -0.9368 0.2806 -0.2088
vn -0.9235 -0.3515 -0.1534
vn -0.9923 -0.1102 0.0569
vn 0.5246 0.7585 0.3867
vn 0.5611 0.7213 0.4061
vn 0.6593 -0.2224 -0.7182
vn -0.8163 0.1381 -0.5609
vn -0.7156 0.1033 -0.6909
vn -0.0244 -0.9961 0.0847
vn -0.0923 -0.9956 0.0141
vn -0.0508 -0.9981 -0.0335
vn -0.2632 -0.9635 0.0494
vn -0.3755 -0.9242 0.0692
vn -0.1232 -0.9923 0.0098
vn 0.0030 -1.0000 -0.0089
vn -0.0116 -0.9993 -0.0367
vn 0.6777 -0.3464 -0.6487
vn 0.4393 -0.3661 -0.8203
vn 0.3956 -0.2890 -0.8718
vn 0.8305 -0.4053 -0.3820
vn 0.9300 -0.3463 -0.1232
vn -0.2890 0.4870 0.8242
vn -0.3106 0.4428 0.8411
vn -0.4112 0.4691 0.7815
vn 0.0086 -0.5501 -0.8350
vn 0.4666 -0.4960 -0.7323
vn 0.2272 -0.6490 -0.7260
vn 0.4752 -0.4295 -0.7679
vn 0.0888 -0.4145 0.9057
vn 0.0437 -0.8689 0.4931
vn 0.1943 -0.1843 0.9635
vn 0.2911 -0.0131 0.9566
vn 0.3554 -0.1047 0.9288
vn -0.1722 -0.5559 -0.8132
vn -0.5427 0.1320 -0.8295
vn 0.8432 0.1647 0.5118
vn 0.7168 0.3094 0.6249
vn 0.8307 0.1236 0.5428
vn 0.4059 -0.0569 0.9121
vn -0.0435 -0.9311 -0.3621
vn -0.9628 0.0398 -0.2674
vn -0.8799 0.0056 -0.4751
vn -0.9148 -0.0502 -0.4007
vn -0.2811 0.6135 0.7380
vn 0.4148 0.4530 0.7892
vn 0.6927 0.3888 0.6074
vn 0.0215 -0.9992 -0.0345
vn -0.0268 -0.9996 0.0072
vn 0.7786 -0.4409 -0.4466
vn 0.9871 -0.0928 -0.1307
vn 0.8962 0.4052 0.1807
vn 0.9017 0.2537 0.3501
vn -0.2803 0.4047 0.8705
vn -0.0445 -0.9927 0.1120
vn -0.4003 -0.9151 0.0495
vn 0.4227 -0.4981 0.7571
vn -0.1876 0.4839 0.8548
vn -0.2453 0.5525 0.7966
vn -0.1483 0.5722 0.8066
vn -0.2488 0.5177 0.8186
vn -0.2909 0.4716 0.8324
vn -0.2754 0.4730 0.8369
vn 0.3684 -0.1854 -0.9110
vn 0.5743 -0.1353 -0.8074
vn 0.8694 -0.2649 -0.4171
vn 0.9237 0.0021 -0.3832
vn -0.9747 0.0172 -0.2229
vn -0.9761 -0.0914 -0.1973
vn -0.9167 -0.0618 -0.3948
vn -0.6204 -0.7646 0.1747
vn 0.4362 -0.4660 0.7698
vn 0.6003 -0.4843 0.6364
vn 0.1813 -0.9829 -0.0315
vn 0.1539 -0.9664 0.2061
vn 0.6873 -0.1166 -0.7169
vn 0.9041 -0.0986 -0.4158
vn 0.9593 0.0538 0.2771
vn 0.9298 0.1430 0.3391
vn 0.9048 0.0595 0.4216
vn -0.5933 0.1051 -0.7981
vn -0.2081 -0.4698 -0.8579
vn 0.9348 -0.1457 0.3240
vn 0.7713 0.3610 0.5241
vn 0.8625 0.3062 0.4031
vn -0.4911 0.5576 -0.6693
vn -0.2213 0.2189 -0.9503
vn -0.0789 -0.3021 -0.9500
vn -0.9574 0.2736 0.0924
vn -0.7429 0.2110 0.6353
vn -0.5437 0.1750 0.8209
vn 0.5618 -0.7217 0.4044
vn 0.0878 -0.9618 0.2594
vn 0.4049 -0.8175 -0.4097
vn -0.1655 0.6131 0.7725
vn -0.1622 0.6218 0.7662
vn 0.7455 0.1555 0.6481
vn 0.5409 0.2745 0.7950
vn -0.5430 -0.7705 -0.3340
vn 0.8476 0.3261 0.4187
vn -0.1029 -0.1887 -0.9766
vn -0.0032 -0.9181 0.3963
vn -0.3321 0.3717 0.8669
vn -0.0371 0.9970 -0.0675
vn 0.0904 -0.9929 -0.0771
vn 0.2659 -0.9499 -0.1640
vn -0.8272 -0.1349 -0.5455
vn -0.7496 -0.1612 -0.6419
vn -0.4995 -0.3435 -0.7953
vn -0.4518 -0.1861 -0.8725
vn -0.7927 0.0163 -0.6094
vn -0.0044 -0.9965 0.0832
vn 0.6832 0.4671 0.5613
vn 0.7653 -0.1399 0.6283
vn 0.7112 0.3962 0.5807
vn 0.0067 -0.9780 0.2086
vn -0.1134 -0.9828 0.1458
vn -0.1241 -0.7718 0.6237
vn -0.1924 -0.6720 0.7151
vn -0.4149 0.1087 0.9033
vn -0.1494 0.7452 0.6498
vn -0.1078 0.6792 0.7260
vn 0.3909 0.8147 0.4283
vn 0.4372 0.7634 0.4754
vn 0.0049 -1.0000 -0.0024
vn -0.0491 -0.9985 -0.0247
vn 0.0653 -0.9924 -0.1043
vn 0.0476 -0.9986 -0.0228
vn -0.1258 0.0416 0.9912
vn -0.6582 0.6839 0.3146
vn -0.1707 0.6162 0.7689
vn 0.8972 -0.3792 -0.2263
vn 0.8297 -0.1951 -0.5230
vn -0.4141 0.6852 -0.5991
vn -0.1819 0.9532 -0.2416
vn 0.7057 0.2823 0.6498
vn 0.7593 0.1068 0.6419
vn 0.8890 -0.1703 0.4250
vn -0.0790 0.9912 0.1067
vn 0.0969 0.9731 0.2092
vn 0.8339 -0.4347 0.3400
vn 0.8547 -0.5179 0.0356
vn -0.5855 0.7706 0.2518
vn -0.8455 0.5131 0.1480
vn -0.1456 0.2844 0.9476
vn -0.7824 -0.0576 0.6201
vn -0.2106 0.9708 -0.1150
vn -0.1865 0.9804 0.0643
vn 0.8117 0.2133 -0.5438
vn 0.8522 0.2213 0.4741
vn 0.4189 -0.8438 -0.3354
vn 0.1162 -0.9908 -0.0690
vn 0.1381 -0.9874 -0.0769
vn 0.6964 0.6614 0.2786
vn 0.0605 0.9566 -0.2852
vn 0.5333 0.8093 0.2463
vn -0.9945 0.1036 -0.0177
vn -0.8257 -0.5044 -0.2526
vn -0.1396 0.5434 0.8278
vn -0.9513 0.1986 -0.2358
vn -0.7609 0.1463 -0.6321
vn -0.7186 0.1784 -0.6721
vn -0.2734 0.4373 0.8567
vn -0.8150 0.5286 -0.2374
vn -0.2051 0.7426 0.6375
vn -0.0715 0.9973 0.0180
vn 0.3665 0.1305 0.9212
vn 0.7076 0.1870 0.6815
vn 0.6430 0.3577 0.6772
vn -0.0912 0.0645 -0.9937
vn -0.9466 0.3107 0.0863
vn 0.1293 0.6958 -0.7065
vn 0.3618 -0.5155 -0.7767
vn 0.2278 -0.3271 -0.9171
vn 0.5504 -0.7241 -0.4156
vn 0.6642 0.7423 -0.0885
vn 0.4348 -0.2961 -0.8504
vn -0.2945 0.4722 0.8309
vn 0.0415 -0.9985 -0.0343
vn 0.0237 -0.9997 0.0061
vn -0.7821 -0.3960 0.4812
vn -0.2704 0.9032 -0.3334
vn -0.6543 0.2725 -0.7054
vn 0.5805 -0.0360 0.8135
vn 0.0407 0.0296 -0.9987
vn -0.0009 0.0242 -0.9997
vn -0.0498 -0.1188 -0.9917
vn 0.7332 -0.0334 0.6792
vn 0.7398 0.1793 0.6486
vn -0.4737 0.4824 -0.7368
vn -0.5949 0.2099 -0.7759
vn 0.5283 0.1190 0.8407
vn 0.4102 -0.8587 -0.3073
vn -0.5227 0.2754 -0.8068
vn -0.9459 -0.0956 -0.3101
vn -0.6351 -0.4339 -0.6390
vn -0.1974 0.0490 -0.9791
vn 0.6551 0.3224 0.6833
vn -0.9524 -0.1718 0.2520
vn -0.2878 0.2907 0.9125
vn 0.7993 -0.1287 0.5870
vn 0.6595 0.4097 0.6302
vn -0.2145 0.2793 -0.9359
vn -0.4235 0.1965 -0.8844
vn -0.9714 0.0660 -0.2283
vn -0.6053 -0.4936 -0.6245
vn 0.2910 -0.1454 -0.9456
vn 0.7833 -0.1025 -0.6131
vn 0.2832 -0.1249 -0.9509
vn -0.1881 0.5589 0.8076
vn 0.1423 -0.3037 -0.9421
vn 0.2494 0.1302 -0.9596
vn 0.0968 -0.7839 0.6133
vn -0.2587 0.4164 0.8716
vn 0.8324 -0.5510 -0.0584
vn -0.3395 -0.7545 -0.5616
vn 0.3410 -0.9348 0.0997
vn -0.1783 -0.8614 -0.4756
vt 0.580925 0.719232
vt 0.518908 0.727632
vt 0.564949 0.681349
vt 0.088407 0.268413
vt 0.054323 0.304530
vt 0.035756 0.236347
vt 0.863663 0.469407
vt 0.917460 0.456372
vt 0.884302 0.487099
vt 0.785175 0.540071
vt 0.773221 0.548517
vt 0.762856 0.527784
vt 0.812307 0.503582
vt 0.810521 0.536707
vt 0.803889 0.535119
vt 0.452465 0.063051
vt 0.363902 0.056501
vt 0.380755 0.026924
vt 0.079330 0.344719
vt 0.054479 0.384178
vt 0.023832 0.334844
vt 0.495503 0.684220
vt 0.524199 0.641578
vt 0.904236 0.406834
vt 0.907622 0.443329
vt 0.834799 0.462610
vt 0.095511 0.257581
vt 0.038592 0.232098
vt 0.104881 0.210834
vt 0.143093 0.853413
vt 0.084160 0.863807
vt 0.158732 0.819459
vt 0.069822 0.190020
vt 0.038351 0.211616
vt 0.056900 0.181456
vt 0.738854 0.484435
vt 0.778854 0.476227
vt 0.751520 0.522354
vt 0.778810 0.407868
vt 0.803971 0.424873
vt 0.779725 0.442890
vt 0.077930 0.110608
vt 0.076248 0.064700
vt 0.096007 0.051223
vt 0.091233 0.887172
vt 0.451989 0.195256
vt 0.468663 0.143398
vt 0.494222 0.157147
vt 0.162685 0.839590
vt 0.118243 0.187409
vt 0.122966 0.164210
vt 0.140544 0.163542
vt 0.859646 0.380719
vt 0.839230 0.431446
vt 0.818204 0.375512
vt 0.672026 0.356010
vt 0.682745 0.317357
vt 0.708362 0.374591
vt 0.630082 0.357864
vt 0.658435 0.355881
vt 0.706568 0.379265
vt 0.714530 0.441287
vt 0.711392 0.506734
vt 0.656283 0.486928
vt 0.716718 0.434126
vt 0.863237 0.514446
vt 0.847332 0.501968
vt 0.446542 0.130138
vt 0.402858 0.137002
vt 0.386616 0.114685
vt 0.444666 0.111059
vt 0.245615 0.356916
vt 0.228189 0.344650
vt 0.223755 0.320566
vt 0.230267 0.415002
vt 0.259255 0.455483
vt 0.211056 0.470969
vt 0.444325 0.304060
vt 0.416372 0.293073
vt 0.423135 0.267947
vt 0.523583 0.620768
vt 0.535472 0.567425
vt 0.557159 0.594561
vt 0.134996 0.133452
vt 0.102456 0.081644
vt 0.133287 0.100748
vt 0.110558 0.387985
vt 0.081729 0.422206
vt 0.166567 0.535342
vt 0.153580 0.557402
vt 0.132031 0.527170
vt 0.100179 0.889000
vt 0.177057 0.904203
vt 0.106223 0.911621
vt 0.089246 0.165586
vt 0.675061 0.523156
vt 0.704266 0.523723
vt 0.569259 0.555890
vt 0.597477 0.532131
vt 0.589302 0.557688
vt 0.600789 0.561267
vt 0.610960 0.550495
vt 0.636987 0.560308
vt 0.632645 0.626975
vt 0.614263 0.563311
vt 0.910911 0.351492
vt 0.862412 0.337430
vt 0.928387 0.324269
vt 0.867795 0.424486
vt 0.844707 0.441103
vt 0.439994 0.155790
vt 0.339808 0.250731
vt 0.431974 0.222000
vt 0.252201 0.481744
vt 0.203822 0.496534
vt 0.221340 0.481240
vt 0.244540 0.494163
vt 0.492878 0.662076
vt 0.504224 0.637528
vt 0.842387 0.564444
vt 0.838467 0.551175
vt 0.875166 0.536261
vt 0.262999 0.408628
vt 0.092789 0.328181
vt 0.742302 0.339267
vt 0.780493 0.373511
vt 0.733933 0.376726
vt 0.723079 0.425581
vt 0.600968 0.549845
vt 0.107223 0.465883
vt 0.098558 0.422799
vt 0.139657 0.482066
vt 0.796894 0.392907
vt 0.788540 0.357308
vt 0.776936 0.349879
vt 0.592347 0.623072
vt 0.583694 0.575874
vt 0.869971 0.354010
vt 0.935227 0.393198
vt 0.971826 0.384788
vt 0.964291 0.412806
vt 0.349660 0.292660
vt 0.539955 0.517102
vt 0.564635 0.509531
vt 0.824101 0.472865
vt 0.332073 0.167918
vt 0.330294 0.187220
vt 0.323675 0.136033
vt 0.379137 0.144608
vt 0.414061 0.189018
vt 0.333726 0.204683
vt 0.958083 0.310229
vt 0.969932 0.323204
vt 0.965227 0.343809
vt 0.941505 0.349209
vt 0.970273 0.375286
vt 0.143467 0.468329
vt 0.162263 0.487131
vt 0.159850 0.509008
vt 0.635176 0.548681
vt 0.723891 0.501507
vt 0.743743 0.514758
vt 0.530365 0.624756
vt 0.514113 0.635058
vt 0.042114 0.160617
vt 0.062551 0.150987
vt 0.108688 0.142955
vt 0.058306 0.145810
vt 0.139323 0.106553
vt 0.629362 0.433969
vt 0.223498 0.379990
vt 0.341373 0.292577
vt 0.337332 0.259800
vt 0.146136 0.117453
vt 0.729171 0.356734
vt 0.730983 0.317861
vt 0.593467 0.414582
vt 0.586391 0.422896
vt 0.582295 0.399886
vt 0.207534 0.455554
vt 0.423778 0.324706
vt 0.414493 0.318784
vt 0.379909 0.330593
vt 0.733348 0.516661
vt 0.500116 0.576346
vt 0.495248 0.610720
vt 0.853350 0.339199
vt 0.346098 0.077305
vt 0.412008 0.071193
vt 0.165742 0.013040
vt 0.147994 0.042302
vt 0.142352 0.023163
vt 0.180639 0.529474
vt 0.163995 0.566345
vt 0.175546 0.524503
vt 0.126494 0.917569
vt 0.072174 0.117108
vt 0.949784 0.282169
vt 0.960206 0.296349
vt 0.950339 0.297255
vt 0.358470 0.329292
vt 0.370644 0.325464
vt 0.819047 0.526375
vt 0.112828 0.884552
vt 0.533569 0.744447
vt 0.135718 0.455333
vt 0.112495 0.423477
vt 0.200519 0.299864
vt 0.209751 0.326991
vt 0.186577 0.285924
vt 0.522305 0.537778
vt 0.538511 0.557347
vt 0.948753 0.433782
vt 0.966793 0.450749
vt 0.939858 0.481329
vt 0.169364 0.089616
vt 0.163552 0.110959
vt 0.528395 0.559954
vt 0.513265 0.557068
vt 0.515479 0.549021
vt 0.803930 0.563913
vt 0.787581 0.557979
vt 0.797068 0.551263
vt 0.442933 0.042541
vt 0.401751 0.015865
vt 0.164355 0.880459
vt 0.968772 0.436204
vt 0.662706 0.635050
vt 0.658736 0.572061
vt 0.693766 0.645125
vt 0.678151 0.683492
vt 0.623269 0.666190
vt 0.356634 0.317380
vt 0.347029 0.320846
vt 0.475969 0.099982
vt 0.447866 0.078015
vt 0.103498 0.152531
vt 0.088733 0.150897
vt 0.101303 0.822104
vt 0.124042 0.805534
vt 0.119474 0.817184
vt 0.114864 0.039076
vt 0.139223 0.090733
vt 0.152118 0.076910
vt 0.171878 0.850015
vt 0.152265 0.879473
vt 0.159234 0.115801
vt 0.145522 0.134624
vt 0.482673 0.064106
vt 0.471787 0.119651
vt 0.491732 0.098070
vt 0.779151 0.526833
vt 0.385374 0.336445
vt 0.399399 0.334045
vt 0.467268 0.056722
vt 0.456996 0.051766
vt 0.977297 0.349193
vt 0.759547 0.308131
vt 0.716518 0.290543
vt 0.658269 0.696114
vt 0.595527 0.718853
vt 0.088289 0.904727
vt 0.084925 0.890460
vt 0.087042 0.894274
vt 0.976111 0.411336
vt 0.977476 0.435966
vt 0.731560 0.301437
vt 0.752755 0.300320
vt 0.697055 0.547671
vt 0.705191 0.535674
vt 0.676330 0.560204
vt 0.653752 0.545426
vt 0.329063 0.108568
vt 0.334396 0.086645
vt 0.319751 0.108711
vt 0.050756 0.152424
vt 0.651086 0.532575
vt 0.641861 0.516017
vt 0.632172 0.516329
vt 0.625325 0.492993
vt 0.089998 0.843711
vt 0.781652 0.486116
vt 0.489406 0.070533
vt 0.785149 0.373192
vt 0.583764 0.730491
vt 0.823563 0.359892
vt 0.136596 0.878627
vt 0.671509 0.579848
vt 0.656443 0.555373
vt 0.777769 0.386537
vt 0.741469 0.388360
vt 0.925964 0.488217
vt 0.695710 0.638147
vt 0.623640 0.427419
vt 0.502230 0.204000
vt 0.473470 0.245179
vt 0.080037 0.881556
vt 0.081558 0.894131
vt 0.855593 0.329439
vt 0.874925 0.327064
vt 0.843069 0.341700
vt 0.887803 0.525053
vt 0.725029 0.442821
vt 0.978351 0.380828
vt 0.693423 0.303141
vt 0.647234 0.320791
vt 0.679028 0.310143
vt 0.131162 0.435079
vt 0.125144 0.415856
vt 0.809054 0.455826
vt 0.559851 0.600960
vt 0.543291 0.619468
vt 0.400104 0.339690
vt 0.169717 0.790471
vt 0.157347 0.789339
vt 0.167934 0.781555
vt 0.011547 0.310263
vt 0.012105 0.297002
vt 0.018261 0.296244
vt 0.735172 0.398124
vt 0.587932 0.346916
vt 0.588505 0.379146
vt 0.582950 0.379308
vt 0.723818 0.407451
vt 0.726603 0.384651
vt 0.611820 0.438258
vt 0.614650 0.468106
vt 0.899593 0.507835
vt 0.919316 0.499928
vt 0.901308 0.513994
vt 0.598781 0.730809
vt 0.619420 0.712804
vt 0.028887 0.281061
vt 0.167327 0.527058
vt 0.173583 0.516800
vt 0.086637 0.258798
vt 0.642827 0.534355
vt 0.367993 0.042861
vt 0.354035 0.060936
vt 0.174810 0.806275
vt 0.362272 0.046878
vt 0.421881 0.335017
vt 0.251576 0.490050
vt 0.694868 0.572075
vt 0.347202 0.315410
vt 0.805033 0.558925
vt 0.147210 0.065205
vt 0.150193 0.046391
vt 0.381436 0.022953
vt 0.592674 0.405932
vt 0.610243 0.474453
vt 0.596878 0.449108
vt 0.118583 0.496423
vt 0.701033 0.558036
vt 0.775183 0.322277
vt 0.764268 0.306039
vt 0.214079 0.354372
vt 0.102045 0.346467
vt 0.406320 0.012674
vt 0.687813 0.572033
vt 0.630149 0.333913
vt 0.823258 0.432442
vt 0.800474 0.384064
vt 0.809054 0.433591
vt 0.038797 0.190911
vt 0.644412 0.325934
vt 0.619697 0.331145
vt 0.585143 0.342065
vt 0.341126 0.144729
vt 0.931579 0.302012
vt 0.917087 0.302055
vt 0.889036 0.315695
vt 0.409809 0.343507
vt 0.672284 0.699005
vt 0.712631 0.391060
vt 0.045155 0.172620
vt 0.725791 0.486772
vt 0.755697 0.533572
vt 0.110684 0.205227
vt 0.335629 0.242371
vt 0.813148 0.486421
vt 0.812986 0.449919
vt 0.741525 0.526076
vt 0.496275 0.622463
vt 0.496892 0.639016
vt 0.201522 0.520684
vt 0.231395 0.508528
vt 0.028755 0.263735
vt 0.150833 0.139609
vt 0.148320 0.161571
vt 0.194149 0.517856
vt 0.094005 0.293051
vt 0.481493 0.249388
vt 0.462652 0.276144
vt 0.620803 0.544604
vt 0.614983 0.545174
vt 0.506520 0.623288
vt 0.219818 0.421525
vt 0.225028 0.402492
vt 0.096800 0.824448
vt 0.492878 0.596143
vt 0.267531 0.443907
vt 0.105926 0.218990
vt 0.103786 0.246027
vt 0.102902 0.050008
vt 0.499367 0.156401
vt 0.823017 0.549050
vt 0.830373 0.572391
vt 0.155670 0.135906
vt 0.500545 0.736276
vt 0.177057 0.817132
vt 0.506661 0.562448
vt 0.794682 0.563871
vt 0.430423 0.031570
vt 0.176295 0.833799
vt 0.171739 0.500101
vt 0.609724 0.537713
vt 0.696697 0.577771
vt 0.180936 0.505635
vt 0.179351 0.514854
vt 0.041125 0.173180
vt 0.095394 0.911686
vt 0.981097 0.374675
s 1
usemtl LSG
f 125/1/1 55/2/1 86/3/1
f 291/4/2 5/5/3 242/6/4
f 15/7/5 58/8/6 136/9/7
f 112/10/8 117/11/9 200/12/10
f 204/13/11 197/14/12 9/15/13
f 64/16/14 135/17/15 148/18/16
f 17/19/17 250/20/18 114/21/19
f 2/22/20 234/23/21 86/3/22
f 33/24/23 95/25/24 35/26/25
f 130/27/26 84/28/27 282/29/28
f 99/30/29 8/31/30 255/32/31
f 26/33/32 182/34/33 102/35/34
f 198/36/35 271/37/36 39/38/37
f 1/39/38 206/40/39 115/41/40
f 228/42/41 10/43/42 138/44/43
f 208/45/44 8/31/30 99/30/29
f 152/46/45 177/47/46 18/48/47
f 286/49/48 99/30/29 255/32/31
f 142/50/49 65/51/50 74/52/51
f 276/53/52 201/54/53 89/55/54
f 184/56/55 297/57/56 76/58/57
f 174/59/58 299/60/59 251/61/60
f 62/62/61 190/63/62 134/64/63
f 96/65/64 174/59/58 251/61/60
f 15/7/5 123/66/65 53/67/66
f 2/22/20 86/3/22 55/2/67
f 152/46/45 16/68/68 177/47/46
f 287/69/69 248/70/70 183/71/71
f 223/72/72 158/73/73 187/74/74
f 239/75/75 244/76/76 284/77/77
f 155/78/78 34/79/79 132/80/80
f 231/81/81 273/82/82 32/83/83
f 74/52/51 65/51/50 69/84/84
f 98/85/85 43/86/86 228/42/41
f 187/87/74 127/88/87 17/19/17
f 170/89/88 113/90/89 155/91/78
f 163/92/90 10/93/42 82/94/91
f 196/95/92 142/50/49 102/35/34
f 259/96/93 134/64/63 92/97/94
f 272/98/95 30/99/96 101/100/97
f 23/101/98 226/102/99 116/103/100
f 116/103/100 268/104/101 175/105/102
f 80/106/103 7/107/104 233/108/105
f 47/109/106 33/24/23 195/110/107
f 25/111/108 287/69/69 16/68/68
f 34/79/79 36/112/109 107/113/110
f 284/77/77 244/76/76 203/114/111
f 215/115/112 300/116/113 220/117/114
f 234/23/21 274/118/115 27/119/116
f 252/120/117 275/121/118 104/122/119
f 28/123/120 239/75/75 223/72/72
f 161/124/121 5/5/3 291/4/2
f 67/125/122 93/126/123 139/127/124
f 115/41/40 140/128/125 1/39/38
f 277/129/126 101/100/97 30/99/96
f 227/130/127 199/131/128 222/132/129
f 206/40/39 1/39/38 193/133/130
f 280/134/131 93/126/123 157/135/132
f 118/136/133 172/137/134 175/105/102
f 272/98/95 101/100/97 172/137/134
f 80/106/103 33/24/23 292/138/135
f 236/139/136 105/140/137 61/141/138
f 36/112/109 34/79/79 202/142/139
f 30/99/96 72/143/140 45/144/141
f 95/25/24 15/7/5 35/26/25
f 15/7/5 53/67/66 254/145/142
f 185/146/143 205/147/144 180/148/145
f 11/149/146 290/150/147 209/151/148
f 12/152/149 215/153/112 37/154/150
f 236/139/136 235/155/151 153/156/152
f 110/157/153 20/158/154 129/159/155
f 156/160/156 116/103/100 226/102/99
f 212/161/157 198/36/35 260/162/158
f 231/81/81 111/163/159 267/164/160
f 126/165/161 40/166/162 196/95/92
f 94/167/163 295/168/164 232/169/165
f 211/170/166 62/62/61 134/64/63
f 154/171/167 223/72/72 239/75/75
f 272/98/95 72/143/140 30/99/96
f 197/172/12 204/173/11 202/142/139
f 94/167/163 232/169/165 150/174/168
f 67/125/122 29/175/169 168/176/170
f 281/177/171 154/178/167 44/179/172
f 239/75/75 284/77/77 41/180/173
f 155/78/78 146/181/174 34/79/79
f 265/182/175 42/183/176 34/79/79
f 260/162/158 46/184/177 212/161/157
f 117/185/9 231/81/81 207/186/178
f 276/53/52 89/55/54 266/187/179
f 292/138/135 7/107/104 80/106/103
f 248/70/70 296/188/180 229/189/181
f 280/190/131 75/191/182 31/192/183
f 30/193/96 45/194/141 170/89/88
f 30/193/96 170/89/88 288/195/184
f 82/94/91 10/93/42 50/196/185
f 295/168/164 50/197/185 232/169/165
f 233/108/105 12/152/149 37/154/150
f 41/198/173 284/199/77 186/200/186
f 42/183/176 63/201/187 52/202/188
f 34/79/79 42/183/176 52/202/188
f 254/145/142 53/67/66 2/203/20
f 234/23/21 2/22/20 274/118/115
f 77/204/189 208/45/44 99/30/29
f 196/95/92 102/35/34 126/165/161
f 125/1/190 176/205/191 55/2/67
f 254/145/142 35/26/25 15/7/5
f 131/206/192 222/132/129 38/207/193
f 108/208/194 3/209/195 293/210/196
f 273/82/82 231/81/81 117/185/9
f 63/211/187 72/143/140 289/212/197
f 97/213/198 168/214/170 29/215/169
f 232/169/165 4/216/199 90/217/200
f 6/218/201 57/219/202 145/220/203
f 145/221/203 269/222/204 264/223/205
f 270/224/206 148/18/16 60/225/207
f 163/92/90 164/226/208 10/93/42
f 33/24/23 61/141/138 95/25/24
f 78/227/209 97/213/198 61/141/138
f 262/228/210 22/229/211 96/230/64
f 96/230/64 213/231/212 14/232/213
f 6/218/201 145/220/203 63/211/187
f 166/233/214 63/201/187 145/234/203
f 66/235/215 16/68/68 64/16/14
f 248/70/70 188/236/216 183/71/71
f 19/237/217 69/84/84 65/51/50
f 196/95/92 40/166/162 224/238/218
f 242/239/4 257/240/219 87/241/220
f 114/21/19 5/5/3 17/19/17
f 169/242/221 75/191/182 173/243/222
f 4/216/199 173/243/222 147/244/223
f 73/245/224 164/226/208 68/246/225
f 164/226/208 163/92/90 68/246/225
f 232/169/165 253/247/226 150/174/168
f 150/174/168 253/247/226 24/248/227
f 66/235/215 64/16/14 179/249/228
f 245/250/229 114/251/19 18/48/47
f 204/13/11 9/15/13 85/252/230
f 112/10/8 264/223/205 269/222/204
f 42/183/176 72/253/140 63/201/187
f 42/183/176 141/254/231 72/253/140
f 64/16/14 148/18/16 270/224/206
f 70/255/232 64/16/14 91/256/233
f 69/84/84 24/248/227 74/52/51
f 218/257/234 153/156/152 37/154/150
f 157/135/132 93/126/123 67/125/122
f 67/125/122 168/176/170 160/258/235
f 76/58/57 297/57/56 13/259/236
f 14/232/213 258/260/237 159/261/238
f 21/262/239 163/92/90 82/94/91
f 54/263/240 163/92/90 230/264/241
f 78/227/209 90/265/200 4/266/199
f 168/176/170 4/267/199 147/268/223
f 79/269/242 259/96/93 124/270/243
f 20/271/154 110/272/153 79/269/242
f 80/106/103 235/155/151 33/24/23
f 233/108/105 37/154/150 80/106/103
f 180/148/145 48/273/244 185/146/143
f 31/274/183 48/273/244 280/275/131
f 21/276/239 295/168/164 40/166/162
f 94/167/163 40/166/162 295/168/164
f 83/277/245 259/96/93 79/269/242
f 56/278/246 293/279/196 151/280/247
f 182/34/33 282/29/28 84/28/27
f 182/281/33 242/239/4 87/241/220
f 204/13/11 85/252/230 71/282/248
f 200/12/10 271/37/36 85/252/230
f 86/3/22 14/232/213 125/1/190
f 175/105/102 268/104/101 118/136/133
f 87/241/220 255/32/31 182/281/33
f 181/283/249 66/235/215 179/249/228
f 180/148/145 280/275/131 48/273/244
f 93/126/123 280/134/131 81/284/250
f 125/1/190 89/285/54 176/205/191
f 13/286/236 266/187/179 89/55/54
f 90/265/200 61/141/138 105/140/137
f 78/227/209 61/141/138 90/265/200
f 270/224/206 91/256/233 64/16/14
f 143/287/251 286/49/48 73/245/224
f 190/288/62 96/230/64 22/229/211
f 156/160/156 124/289/243 116/103/100
f 81/284/250 249/290/252 93/126/123
f 249/290/252 121/291/253 93/126/123
f 40/166/162 94/167/163 224/238/218
f 19/237/217 94/167/163 69/84/84
f 95/25/24 58/8/6 15/7/5
f 171/292/254 58/8/6 97/213/198
f 96/230/64 190/288/62 62/293/61
f 62/62/61 122/294/255 96/65/64
f 97/213/198 95/25/24 61/141/138
f 97/213/198 58/8/6 95/25/24
f 75/191/182 169/242/221 31/192/183
f 296/188/180 135/17/15 229/189/181
f 286/49/48 143/287/251 99/30/29
f 99/30/29 143/287/251 77/204/189
f 199/131/128 227/130/127 127/88/87
f 132/80/80 127/295/87 225/296/256
f 101/100/97 23/101/98 172/137/134
f 101/100/97 226/102/99 23/101/98
f 294/297/257 54/263/240 126/298/161
f 294/297/257 8/31/30 54/263/240
f 103/299/258 51/300/259 7/107/104
f 266/187/179 13/286/236 261/301/260
f 275/121/118 140/302/125 104/122/119
f 104/303/119 140/128/125 115/41/40
f 301/304/261 90/265/200 105/140/137
f 301/304/261 153/156/152 218/257/234
f 13/259/236 297/57/56 261/305/260
f 189/306/262 103/307/258 297/57/56
f 25/111/108 16/68/68 107/113/110
f 36/112/109 290/150/147 107/113/110
f 293/308/196 38/207/193 108/309/194
f 127/88/87 187/87/74 199/131/128
f 204/13/11 71/282/248 109/310/263
f 290/150/147 36/112/109 209/151/148
f 222/132/129 131/206/192 110/157/153
f 83/277/245 79/269/242 110/272/153
f 231/81/81 247/311/264 111/163/159
f 247/311/264 118/136/133 240/312/265
f 264/223/205 112/10/8 85/252/230
f 112/10/8 200/12/10 85/252/230
f 45/194/141 113/90/89 170/89/88
f 72/253/140 141/254/231 191/313/266
f 179/314/228 137/315/267 181/316/249
f 181/317/249 137/318/267 128/319/268
f 71/282/248 115/41/40 109/310/263
f 198/36/35 115/41/40 271/37/36
f 124/289/243 22/229/211 116/103/100
f 22/229/211 268/104/101 116/103/100
f 57/219/202 273/82/82 117/185/9
f 112/10/8 269/222/204 117/11/9
f 240/312/265 118/136/133 86/3/22
f 86/3/22 118/136/133 14/232/213
f 249/290/252 140/128/125 167/320/269
f 58/8/6 171/292/254 136/9/7
f 217/321/270 149/322/271 241/323/272
f 96/65/64 149/322/271 174/59/58
f 139/127/124 119/324/273 298/325/274
f 67/125/122 139/127/124 29/175/169
f 96/65/64 122/294/255 149/322/271
f 178/326/275 211/170/166 237/327/276
f 123/66/65 140/302/125 275/121/118
f 133/328/277 298/329/274 119/330/273
f 22/229/211 124/289/243 190/288/62
f 92/97/94 124/270/243 259/96/93
f 13/331/236 89/285/54 125/1/190
f 159/261/238 192/332/278 13/331/236
f 40/166/162 126/165/161 21/276/239
f 21/262/239 230/264/241 163/92/90
f 18/48/47 127/295/87 152/46/45
f 17/19/17 127/88/87 250/20/18
f 114/21/19 128/319/268 5/5/3
f 242/6/4 5/5/3 216/333/279
f 155/91/78 129/159/155 49/334/280
f 49/334/280 129/159/155 285/335/281
f 219/336/282 84/28/27 130/27/26
f 28/123/120 244/76/76 239/75/75
f 110/272/153 131/337/192 83/277/245
f 83/277/245 293/279/196 56/278/246
f 107/113/110 132/80/80 34/79/79
f 107/113/110 16/68/68 152/46/45
f 133/328/277 140/302/125 123/66/65
f 15/7/5 136/9/7 123/66/65
f 134/64/63 237/327/276 211/170/166
f 134/64/63 56/278/246 151/280/247
f 148/18/16 135/17/15 138/338/43
f 296/188/180 169/339/221 135/17/15
f 133/328/277 136/9/7 171/292/254
f 136/9/7 133/328/277 123/66/65
f 137/315/267 87/241/220 257/240/219
f 70/340/232 87/241/220 137/315/267
f 98/85/85 228/42/41 138/44/43
f 135/17/15 246/341/283 138/338/43
f 139/127/124 167/320/269 119/324/273
f 121/291/253 139/127/124 93/126/123
f 133/328/277 119/330/273 140/302/125
f 140/128/125 119/324/273 167/320/269
f 191/313/266 141/254/231 113/342/89
f 146/181/174 155/78/78 113/342/89
f 102/35/34 142/50/49 26/33/32
f 282/343/28 220/117/114 300/116/113
f 77/204/189 143/287/251 68/246/225
f 73/245/224 68/246/225 143/287/251
f 79/269/242 144/344/284 20/271/154
f 285/335/281 129/159/155 20/158/154
f 166/233/214 145/234/203 59/345/285
f 264/223/205 59/346/285 145/221/203
f 265/182/175 141/254/231 42/183/176
f 141/254/231 265/182/175 113/342/89
f 75/191/182 162/347/286 173/243/222
f 88/348/287 162/347/286 75/191/182
f 10/349/42 60/225/207 148/18/16
f 148/18/16 138/338/43 10/349/42
f 120/350/288 44/179/172 149/322/271
f 122/294/255 120/350/288 149/322/271
f 94/167/163 150/174/168 69/84/84
f 150/174/168 24/248/227 69/84/84
f 3/351/195 151/280/247 293/279/196
f 214/352/289 178/326/275 237/327/276
f 152/46/45 132/80/80 107/113/110
f 132/80/80 152/46/45 127/295/87
f 236/139/136 153/156/152 105/140/137
f 105/140/137 153/156/152 301/304/261
f 223/72/72 154/171/167 158/73/73
f 214/352/289 237/327/276 3/351/195
f 155/78/78 132/80/80 225/296/256
f 100/353/290 129/159/155 155/91/78
f 124/270/243 156/354/156 79/269/242
f 156/354/156 144/344/284 79/269/242
f 88/355/287 160/258/235 162/356/286
f 168/176/170 147/268/223 160/258/235
f 158/73/73 214/357/289 3/209/195
f 187/74/74 158/73/73 3/209/195
f 159/261/238 13/331/236 125/1/190
f 125/1/190 14/232/213 159/261/238
f 157/135/132 67/125/122 160/258/235
f 88/355/287 157/135/132 160/258/235
f 5/5/3 161/124/121 17/19/17
f 17/19/17 223/358/72 187/87/74
f 147/244/223 173/243/222 162/347/286
f 162/356/286 160/258/235 147/268/223
f 163/92/90 208/45/44 77/204/189
f 163/92/90 77/204/189 68/246/225
f 60/225/207 10/349/42 164/359/208
f 164/359/208 270/224/206 60/225/207
f 20/271/154 144/344/284 283/360/291
f 101/100/97 277/129/126 226/102/99
f 52/202/188 63/201/187 166/233/214
f 202/142/139 34/79/79 52/202/188
f 167/320/269 139/127/124 121/291/253
f 249/290/252 167/320/269 121/291/253
f 78/227/209 168/214/170 97/213/198
f 168/214/170 78/227/209 4/266/199
f 135/17/15 169/339/221 246/341/283
f 98/85/85 169/242/221 173/243/222
f 170/89/88 49/334/280 288/195/184
f 170/89/88 155/91/78 49/334/280
f 29/215/169 171/292/254 97/213/198
f 29/175/169 139/127/124 298/325/274
f 172/137/134 118/136/133 247/311/264
f 32/83/83 273/82/82 172/137/134
f 43/86/86 98/85/85 173/243/222
f 173/243/222 4/216/199 232/169/165
f 149/322/271 217/321/270 174/59/58
f 217/321/270 263/361/292 174/59/58
f 23/101/98 116/103/100 175/105/102
f 175/105/102 172/137/134 23/101/98
f 176/362/191 35/26/25 254/145/142
f 195/110/107 33/24/23 35/26/25
f 16/68/68 66/235/215 245/250/229
f 66/235/215 114/251/19 245/250/229
f 214/352/289 281/177/171 178/326/275
f 178/326/275 120/350/288 122/294/255
f 179/314/228 70/340/232 137/315/267
f 64/16/14 70/255/232 179/249/228
f 280/134/131 180/363/145 81/284/250
f 193/133/130 180/363/145 205/364/144
f 181/283/249 114/251/19 66/235/215
f 128/319/268 114/21/19 181/317/249
f 8/31/30 182/281/33 255/32/31
f 8/365/30 102/35/34 182/34/33
f 16/68/68 183/71/71 64/16/14
f 183/71/71 16/68/68 287/69/69
f 106/366/293 263/361/292 221/367/294
f 41/368/173 221/367/294 263/361/292
f 185/146/143 11/149/146 209/151/148
f 278/369/295 185/146/143 48/273/244
f 302/370/296 12/152/149 233/108/105
f 41/198/173 302/370/296 221/371/294
f 187/87/74 108/309/194 38/207/193
f 187/74/74 3/209/195 108/208/194
f 248/70/70 229/189/181 188/236/216
f 64/16/14 183/71/71 188/236/216
f 51/300/259 103/299/258 189/372/262
f 51/300/259 189/372/262 302/370/296
f 92/97/94 134/64/63 190/63/62
f 190/63/62 124/270/243 92/97/94
f 191/313/266 113/342/89 45/373/141
f 45/373/141 72/253/140 191/313/266
f 192/332/278 76/374/57 13/331/236
f 96/65/64 251/61/60 213/375/212
f 193/133/130 81/284/250 180/363/145
f 249/290/252 81/284/250 193/133/130
f 194/376/297 102/35/34 8/365/30
f 126/165/161 102/35/34 194/376/297
f 176/362/191 201/54/53 35/26/25
f 176/362/191 89/55/54 201/54/53
f 142/50/49 196/95/92 65/51/50
f 224/238/218 65/51/50 196/95/92
f 59/345/285 197/172/12 202/142/139
f 9/15/13 197/14/12 59/346/285
f 104/303/119 198/36/35 252/377/117
f 104/303/119 115/41/40 198/36/35
f 187/87/74 38/207/193 199/131/128
f 222/132/129 199/131/128 38/207/193
f 200/12/10 117/11/9 243/378/298
f 39/38/37 271/37/36 200/12/10
f 276/53/52 195/110/107 201/54/53
f 35/26/25 201/54/53 195/110/107
f 59/345/285 202/142/139 166/233/214
f 202/142/139 52/202/188 166/233/214
f 26/33/32 282/29/28 182/34/33
f 282/29/28 26/33/32 220/379/114
f 36/112/109 202/142/139 204/173/11
f 209/151/148 36/112/109 210/380/299
f 210/381/299 109/310/263 209/382/148
f 115/41/40 206/40/39 109/310/263
f 206/40/39 193/133/130 205/364/144
f 205/364/144 109/310/263 206/40/39
f 207/383/178 46/184/177 260/162/158
f 200/12/10 243/378/298 39/38/37
f 8/31/30 208/45/44 54/263/240
f 54/263/240 208/45/44 163/92/90
f 205/364/144 209/382/148 109/310/263
f 205/147/144 185/146/143 209/151/148
f 210/381/299 204/13/11 109/310/263
f 204/173/11 210/380/299 36/112/109
f 122/294/255 62/62/61 211/170/166
f 122/294/255 211/170/166 178/326/275
f 46/384/177 27/119/116 212/385/157
f 27/119/116 274/118/115 212/385/157
f 213/231/212 76/374/57 258/260/237
f 213/231/212 258/260/237 14/232/213
f 214/357/289 158/73/73 154/171/167
f 154/178/167 281/177/171 214/352/289
f 215/153/112 218/257/234 37/154/150
f 74/386/51 215/115/112 142/387/49
f 5/5/3 128/319/268 216/333/279
f 128/319/268 137/318/267 257/388/219
f 41/368/173 263/361/292 217/321/270
f 241/323/272 41/368/173 217/321/270
f 74/52/51 256/389/300 218/390/234
f 218/391/234 215/115/112 74/386/51
f 291/4/2 130/27/26 28/392/120
f 161/124/121 291/4/2 28/392/120
f 142/50/49 220/379/114 26/33/32
f 142/387/49 215/115/112 220/117/114
f 221/371/294 302/370/296 189/372/262
f 189/306/262 106/366/293 221/367/294
f 129/159/155 222/132/129 110/157/153
f 100/353/290 222/132/129 129/159/155
f 223/358/72 161/124/121 28/392/120
f 223/358/72 17/19/17 161/124/121
f 224/238/218 94/167/163 19/237/217
f 224/238/218 19/237/217 65/51/50
f 127/295/87 227/393/127 225/296/256
f 100/394/290 155/78/78 225/296/256
f 226/102/99 144/395/284 156/160/156
f 226/102/99 165/396/301 144/395/284
f 100/394/290 225/296/256 227/393/127
f 222/132/129 100/353/290 227/130/127
f 232/169/165 50/197/185 228/42/41
f 10/43/42 228/42/41 50/197/185
f 64/16/14 188/236/216 229/189/181
f 229/189/181 135/17/15 64/16/14
f 126/298/161 230/264/241 21/262/239
f 126/298/161 54/263/240 230/264/241
f 231/81/81 267/164/160 238/397/302
f 238/397/302 207/186/178 231/81/81
f 232/169/165 43/86/86 173/243/222
f 232/169/165 228/42/41 43/86/86
f 233/108/105 51/300/259 302/370/296
f 51/300/259 233/108/105 7/107/104
f 247/311/264 240/312/265 111/163/159
f 267/164/160 111/163/159 240/312/265
f 37/154/150 235/155/151 80/106/103
f 235/155/151 37/154/150 153/156/152
f 236/139/136 33/24/23 235/155/151
f 33/24/23 236/139/136 61/141/138
f 237/327/276 151/280/247 3/351/195
f 237/327/276 134/64/63 151/280/247
f 238/397/302 27/119/116 46/384/177
f 207/186/178 238/397/302 46/384/177
f 41/180/173 241/398/272 239/75/75
f 154/171/167 239/75/75 44/399/172
f 240/312/265 86/3/22 234/23/21
f 240/312/265 234/23/21 267/164/160
f 241/398/272 44/399/172 239/75/75
f 149/322/271 44/179/172 241/323/272
f 84/28/27 291/4/2 242/6/4
f 84/400/27 242/239/4 182/281/33
f 207/383/178 39/38/37 243/378/298
f 117/185/9 207/186/178 243/401/298
f 130/402/26 244/76/76 28/123/120
f 203/403/111 244/404/76 130/27/26
f 245/250/229 177/47/46 16/68/68
f 177/47/46 245/250/229 18/48/47
f 98/85/85 138/44/43 246/405/283
f 246/405/283 169/242/221 98/85/85
f 247/311/264 231/81/81 32/83/83
f 172/137/134 247/311/264 32/83/83
f 248/70/70 48/273/244 296/188/180
f 48/273/244 248/70/70 278/369/295
f 193/133/130 1/39/38 249/290/252
f 249/290/252 1/39/38 140/128/125
f 250/406/18 127/295/87 18/48/47
f 18/48/47 114/251/19 250/406/18
f 251/61/60 76/58/57 213/375/212
f 76/58/57 251/61/60 184/56/55
f 274/407/115 252/120/117 212/408/157
f 212/161/157 252/377/117 198/36/35
f 90/217/200 301/409/261 253/247/226
f 232/169/165 90/217/200 253/247/226
f 176/205/191 254/410/142 55/2/67
f 2/22/20 55/2/67 254/410/142
f 70/340/232 91/411/233 255/32/31
f 70/340/232 255/32/31 87/241/220
f 256/389/300 74/52/51 24/248/227
f 24/248/227 253/247/226 256/389/300
f 242/6/4 216/333/279 257/388/219
f 257/388/219 216/333/279 128/319/268
f 159/261/238 258/260/237 192/332/278
f 258/260/237 76/374/57 192/332/278
f 56/278/246 134/64/63 259/96/93
f 83/277/245 56/278/246 259/96/93
f 207/383/178 260/162/158 39/38/37
f 39/38/37 260/162/158 198/36/35
f 103/299/258 266/187/179 261/301/260
f 297/57/56 103/307/258 261/305/260
f 268/104/101 22/229/211 262/228/210
f 14/232/213 262/228/210 96/230/64
f 263/361/292 297/57/56 184/56/55
f 299/60/59 174/59/58 263/361/292
f 9/15/13 264/223/205 85/252/230
f 59/346/285 264/223/205 9/15/13
f 265/182/175 34/79/79 146/181/174
f 265/182/175 146/181/174 113/342/89
f 266/187/179 103/299/258 7/107/104
f 7/107/104 292/138/135 266/187/179
f 238/397/302 267/164/160 27/119/116
f 267/164/160 234/23/21 27/119/116
f 118/136/133 268/104/101 14/232/213
f 268/104/101 262/228/210 14/232/213
f 117/185/9 269/412/204 57/219/202
f 145/221/203 57/413/202 269/222/204
f 270/224/206 164/359/208 73/414/224
f 286/49/48 270/415/206 73/245/224
f 115/41/40 71/282/248 271/37/36
f 271/37/36 71/282/248 85/252/230
f 172/137/134 273/82/82 272/98/95
f 72/143/140 272/98/95 289/212/197
f 273/82/82 57/219/202 6/218/201
f 63/211/187 289/212/197 6/218/201
f 2/203/20 53/67/66 274/407/115
f 53/67/66 123/66/65 275/121/118
f 53/67/66 275/121/118 274/407/115
f 274/407/115 275/121/118 252/120/117
f 276/53/52 47/109/106 195/110/107
f 33/24/23 47/109/106 292/138/135
f 226/102/99 277/129/126 165/396/301
f 285/335/281 20/158/154 283/416/291
f 248/70/70 11/149/146 278/369/295
f 278/369/295 11/149/146 185/146/143
f 277/129/126 30/99/96 279/417/303
f 277/129/126 279/417/303 165/396/301
f 280/190/131 88/348/287 75/191/182
f 280/134/131 157/135/132 88/355/287
f 281/177/171 44/179/172 120/350/288
f 178/326/275 281/177/171 120/350/288
f 130/27/26 282/29/28 203/403/111
f 282/343/28 300/116/113 203/114/111
f 144/344/284 165/418/301 283/360/291
f 165/419/301 285/335/281 283/416/291
f 12/152/149 284/199/77 215/153/112
f 284/199/77 12/152/149 186/200/186
f 165/419/301 279/420/303 285/335/281
f 279/420/303 30/193/96 288/195/184
f 255/32/31 91/411/233 286/49/48
f 286/49/48 91/411/233 270/415/206
f 287/69/69 290/150/147 11/149/146
f 11/149/146 248/70/70 287/69/69
f 279/420/303 288/195/184 285/335/281
f 49/334/280 285/335/281 288/195/184
f 273/82/82 289/212/197 272/98/95
f 289/212/197 273/82/82 6/218/201
f 287/69/69 25/111/108 290/150/147
f 25/111/108 107/113/110 290/150/147
f 291/4/2 84/28/27 219/336/282
f 130/27/26 291/4/2 219/336/282
f 276/53/52 266/187/179 292/138/135
f 276/53/52 292/138/135 47/109/106
f 293/308/196 131/206/192 38/207/193
f 293/279/196 83/277/245 131/337/192
f 194/376/297 8/365/30 294/421/257
f 126/165/161 194/376/297 294/421/257
f 50/196/185 295/422/164 82/94/91
f 295/422/164 21/262/239 82/94/91
f 169/339/221 296/188/180 31/274/183
f 296/188/180 48/273/244 31/274/183
f 297/57/56 263/361/292 106/366/293
f 189/306/262 297/57/56 106/366/293
f 298/329/274 133/328/277 171/292/254
f 29/215/169 298/329/274 171/292/254
f 251/61/60 299/60/59 184/56/55
f 263/361/292 184/56/55 299/60/59
f 215/115/112 284/77/77 300/116/113
f 300/116/113 284/77/77 203/114/111
f 301/409/261 256/389/300 253/247/226
f 301/304/261 218/257/234 256/423/300
f 186/200/186 12/152/149 302/370/296
f 186/200/186 302/370/296 41/198/173
