# Blender 5.1.2
# www.blender.org
mtllib roca3.mtl
o Free+Pack+-+Rocks+Stylized
v 56.717976 22.278765 -0.048330
v 50.290478 17.801222 -2.001612
v 50.526459 16.371523 10.048559
v 45.187046 14.881633 0.248287
v 61.090317 14.820497 4.203308
v 53.280888 25.091190 5.771479
v 59.092285 10.470709 -5.498414
v 60.124252 2.999357 -1.214951
v 56.065815 22.990076 -0.122734
v 51.995571 25.474239 2.744650
v 60.272247 1.811270 12.474030
v 57.654087 22.789347 2.437753
v 52.844151 23.820684 -0.426909
v 42.343605 3.787697 -0.587260
v 52.488163 6.966806 12.948183
v 46.725296 2.252102 11.291981
v 47.066959 16.600573 5.162847
v 62.273766 1.164761 6.074332
v 56.944874 20.887211 -1.066131
v 57.660488 7.444978 -6.115244
v 58.087341 1.918927 -6.754807
v 47.551991 1.367276 -3.454049
v 56.226929 25.060858 5.331634
v 59.623573 0.258191 -2.127595
v 49.172794 19.511232 0.526798
v 56.991550 22.887537 6.061967
v 52.483322 22.266430 -0.387572
v 55.180557 1.046165 12.516938
v 51.737530 23.878725 1.221840
v 60.626553 10.969599 1.032790
v 48.237217 14.029058 9.997692
v 61.123974 4.632575 -0.189965
v 45.978542 1.651587 -2.700641
v 59.185169 16.760822 -0.053255
v 54.941467 1.016541 9.203996
v 52.856644 25.510054 2.265826
v 60.965282 0.036735 7.182128
v 49.982460 17.891493 7.811216
v 60.922237 0.518301 5.277734
v 43.931629 2.403329 4.931812
v 57.648109 24.969591 3.380658
v 54.218040 15.482193 -3.832317
v 61.242615 7.855299 11.349154
v 52.477623 24.464447 0.410186
v 59.165527 6.082637 -3.681589
v 52.403309 22.397604 7.078666
v 48.798023 17.489555 -2.154451
v 61.817295 7.916783 0.813255
v 53.738049 24.894745 1.407916
v 61.566925 3.298749 2.886630
v 56.318398 10.758263 -5.308990
v 52.763317 22.289036 7.459357
v 57.853611 24.673145 3.454169
v 53.513256 14.528537 11.074229
v 51.049835 22.770243 1.749286
v 55.051498 0.879467 -6.086797
v 60.283607 0.278937 11.454402
v 57.277885 21.353678 0.319388
v 58.405945 0.199659 -5.416183
v 47.536282 18.394814 -0.214336
v 53.468834 25.328623 2.499837
v 52.261753 3.747663 13.363987
v 45.490742 9.836115 -2.905017
v 58.105984 15.520915 -4.697010
v 53.698578 25.406750 2.332433
v 57.284229 9.027686 -5.399640
v 54.141453 1.810477 12.204625
v 54.002216 25.098511 5.998990
v 49.298050 19.581589 1.706364
v 57.111309 24.240002 1.314871
v 60.383808 6.050725 -2.398594
v 56.917820 22.508827 0.197182
v 51.595745 1.579089 12.399553
v 53.500011 24.573124 6.216085
v 46.677376 17.588928 0.542539
v 55.318954 23.482189 -0.341139
v 51.660625 24.662088 2.352503
v 59.626156 18.213634 8.687723
v 55.021103 22.586914 -1.010800
v 51.446548 19.956123 9.025372
v 61.057392 1.274950 3.587877
v 51.254398 16.963665 -2.594772
v 52.269482 25.496296 2.089197
v 58.110138 0.423025 6.411252
v 49.793072 18.838373 7.069591
v 61.937981 16.494362 6.914491
v 53.100487 25.402559 3.244512
v 56.023186 23.840700 0.339160
v 49.758331 20.177235 3.084592
v 45.789131 2.494799 10.423211
v 47.144737 14.390891 -2.775522
v 57.360722 24.982031 2.694497
v 54.179741 2.729013 13.213023
v 43.518242 2.112198 0.858290
v 60.749451 0.000000 3.789813
v 54.223377 12.657633 -4.610154
v 57.496700 24.827137 2.464265
v 62.344017 10.935721 6.790321
v 52.647957 25.156286 4.157335
v 61.100639 0.267027 3.464228
v 57.414574 18.569128 -3.104692
v 54.856815 11.116079 -4.945274
v 49.557735 19.415533 3.114466
v 53.588703 2.953420 12.550384
v 58.713261 17.622980 -0.572621
v 47.514523 15.362678 7.531843
v 55.866745 18.343773 9.475870
v 46.921036 17.352753 2.497889
v 54.828911 23.099663 -0.878999
v 52.453365 24.361393 4.632425
v 52.698124 21.789839 -0.607272
v 52.397057 25.307158 3.864169
v 57.872135 9.273841 -5.620544
v 58.006020 24.183537 3.592071
v 44.038292 3.594384 -2.748295
v 50.671436 17.342560 9.593925
v 57.265179 24.243990 1.543125
v 61.009014 0.048347 8.826653
v 46.594612 1.891760 -3.557241
v 53.073826 1.365273 12.299099
v 55.337448 25.085279 5.725210
v 58.164127 21.199173 2.510802
v 50.744320 3.055359 12.880357
v 57.074192 24.960508 4.350671
v 58.881767 0.722942 5.596162
v 51.968239 19.829428 9.272208
v 54.324364 25.289019 3.652891
v 55.867302 23.547087 0.040132
v 42.713497 2.439672 1.122429
v 55.094673 23.753275 -0.034881
v 52.098106 21.288641 -0.607510
v 52.966606 25.337561 3.720480
v 44.570778 13.083494 -0.215987
v 56.038265 20.553247 -2.112928
v 60.353428 0.745159 5.037459
v 48.397522 17.625273 -1.858161
v 46.044373 2.203784 10.505381
v 52.747578 25.191025 4.683753
v 57.760868 24.744898 3.019739
v 49.955177 18.381639 -1.493448
v 55.947540 0.747818 7.488460
v 57.001392 20.402090 7.886230
v 60.900894 11.702850 0.207344
v 50.550659 18.941727 -1.582254
v 52.965164 24.086840 5.989438
v 56.245800 24.060833 5.637386
v 57.196140 21.319305 0.118285
v 53.067909 24.935684 5.702625
v 58.140610 5.293152 -6.417916
v 50.810852 17.928537 9.854197
v 56.089993 25.151854 2.744472
v 58.353996 7.681566 -4.859504
v 49.385090 18.260534 6.057994
v 61.425259 11.164558 10.508058
v 60.952808 7.280656 -2.231666
v 46.718601 8.093962 10.717477
v 59.054913 22.404579 4.361160
v 56.014919 25.060114 5.520135
v 54.368328 23.277233 -0.819443
v 56.457504 25.099424 3.333481
vn 0.1977 0.2105 0.9574
vn -0.9291 0.1350 0.3444
vn -0.9104 0.2052 0.3594
vn -0.9468 0.2162 0.2382
vn -0.0742 0.1131 -0.9908
vn 0.6151 0.3346 -0.7139
vn 0.7563 0.2372 -0.6097
vn -0.9983 0.0284 -0.0507
vn -0.8199 0.1290 -0.5578
vn -0.4235 0.0217 -0.9056
vn -0.1281 -0.9917 0.0123
vn -0.1257 -0.9909 0.0477
vn -0.1463 -0.9878 0.0531
vn 0.9373 0.0936 -0.3356
vn 0.9792 0.1436 -0.1435
vn 0.9389 -0.0052 -0.3441
vn -0.0200 0.9927 0.1193
vn 0.0093 0.9567 0.2911
vn 0.1981 0.5786 0.7912
vn 0.2192 0.1334 0.9665
vn 0.1118 0.1601 0.9808
vn 0.9114 -0.0164 -0.4112
vn 0.9139 -0.2156 -0.3440
vn 0.2884 -0.1094 -0.9512
vn -0.2657 0.0154 -0.9639
vn -0.2248 0.0228 -0.9741
vn -0.0526 -0.9740 0.2203
vn 0.9720 0.0351 -0.2325
vn 0.9586 -0.0141 -0.2843
vn 0.9890 0.0142 -0.1472
vn -0.8331 0.2698 -0.4829
vn -0.3875 0.3301 -0.8607
vn -0.8147 0.1423 -0.5622
vn -0.0370 0.8241 -0.5653
vn 0.1426 0.8580 -0.4934
vn 0.2504 0.7779 -0.5763
vn -0.9412 0.1971 -0.2746
vn -0.9462 0.1093 0.3045
vn -0.4354 0.7655 -0.4738
vn 0.3840 -0.0085 0.9233
vn 0.9704 -0.2219 0.0956
vn 0.6420 -0.0021 0.7667
vn 0.1025 0.0996 0.9897
vn 0.9540 0.0082 -0.2996
vn 0.9491 0.0291 -0.3137
vn 0.9461 0.0361 -0.3219
vn 0.2565 0.8359 -0.4853
vn -0.2741 0.0254 -0.9614
vn 0.1640 0.8241 -0.5421
vn -0.9315 0.1832 0.3142
vn -0.9623 0.1371 0.2351
vn -0.1830 -0.9821 0.0436
vn -0.2495 0.0724 0.9657
vn 0.0476 0.0998 0.9939
vn -0.1798 -0.6574 0.7317
vn -0.3392 -0.0460 0.9396
vn -0.4248 -0.1255 0.8965
vn -0.8086 0.1022 0.5795
vn -0.9490 0.0414 0.3127
vn -0.9136 0.0560 0.4027
vn -0.7761 0.5430 0.3206
vn -0.8063 0.5187 0.2843
vn -0.5158 0.1420 0.8449
vn -0.2608 0.0318 0.9649
vn 0.9094 -0.3185 -0.2674
vn 0.4323 -0.7746 0.4617
vn -0.0169 -0.9984 0.0536
vn -0.1663 0.0314 -0.9856
vn 0.4643 0.0636 -0.8834
vn -0.1928 -0.0119 -0.9812
vn 0.8486 -0.0539 -0.5262
vn 0.7068 -0.4584 -0.5388
vn 0.7441 -0.3309 -0.5804
vn 0.0318 -0.2313 -0.9724
vn -0.0840 -0.9959 0.0336
vn 0.0467 -0.9924 -0.1143
vn -0.2575 -0.0008 -0.9663
vn -0.2721 -0.1176 -0.9550
vn -0.3115 -0.0814 -0.9468
vn -0.6057 -0.1279 -0.7853
vn 0.9392 0.2169 0.2662
vn 0.6252 0.5704 0.5326
vn 0.7274 0.2596 0.6352
vn 0.0926 0.9721 -0.2157
vn 0.0853 0.9953 0.0467
vn 0.1058 0.9943 0.0097
vn 0.9051 -0.3267 -0.2722
vn 0.8270 -0.5126 -0.2311
vn -0.7240 0.5225 -0.4504
vn -0.8039 0.3356 -0.4910
vn -0.3504 0.7217 -0.5970
vn -0.8155 0.5241 0.2455
vn 0.9361 0.0935 0.3390
vn 0.9895 0.1202 0.0807
vn 0.9957 -0.0811 -0.0453
vn -0.5867 0.1501 -0.7957
vn -0.7412 0.2220 -0.6335
vn -0.1449 -0.9441 0.2961
vn -0.0226 -0.1112 0.9935
vn -0.8987 0.4003 0.1791
vn 0.9853 -0.0413 -0.1656
vn -0.7359 0.4369 0.5172
vn -0.8410 0.3330 0.4264
vn -0.5495 -0.7511 -0.3660
vn 0.8367 0.1912 -0.5132
vn 0.9435 0.0895 -0.3191
vn 0.9685 -0.1910 -0.1598
vn -0.6930 0.6712 0.2633
vn -0.1848 0.9321 0.3115
vn -0.1462 -0.9882 -0.0458
vn 0.1870 -0.9227 0.3371
vn -0.7901 0.4281 0.4387
vn -0.8097 0.1233 0.5738
vn -0.8595 0.1921 0.4736
vn 0.1854 -0.9342 -0.3047
vn 0.1634 -0.9775 -0.1334
vn -0.9724 -0.0381 0.2301
vn 0.7141 0.4658 0.5226
vn 0.9234 0.2254 -0.3106
vn 0.9336 0.0835 -0.3486
vn 0.0723 0.1444 -0.9869
vn 0.4877 0.1842 0.8534
vn 0.4282 0.1415 0.8925
vn 0.1864 0.1169 0.9755
vn 0.2020 0.7705 -0.6045
vn 0.0631 0.0203 -0.9978
vn 0.8257 0.0887 -0.5571
vn -0.8196 0.3289 0.4692
vn 0.0972 0.1156 0.9885
vn -0.2618 0.0928 -0.9607
vn -0.2924 0.1025 -0.9508
vn -0.2566 -0.0042 -0.9665
vn -0.7513 0.2025 -0.6282
vn 0.9991 -0.0431 -0.0018
vn 0.1590 0.9088 -0.3858
vn -0.1291 -0.0266 0.9913
vn -0.8468 0.5220 0.1021
vn 0.1358 0.9660 -0.2199
vn 0.1624 0.9775 -0.1347
vn -0.4504 0.8835 0.1287
vn 0.0427 0.9955 0.0846
vn 0.0515 -0.2243 0.9732
vn -0.3042 -0.0232 -0.9523
vn 0.7533 0.1970 -0.6274
vn -0.1638 -0.9740 0.1567
vn -0.2788 -0.8503 0.4464
vn -0.8248 0.2370 0.5134
vn 0.4683 0.4368 -0.7680
vn 0.4876 0.4423 -0.7528
vn 0.1946 0.7668 -0.6117
vn 0.4445 0.4304 -0.7856
vn -0.7289 0.5642 0.3878
vn 0.3359 0.1775 0.9250
vn 0.0315 0.5918 -0.8054
vn -0.8445 -0.0474 0.5334
vn 0.3607 -0.9255 0.1154
vn 0.0950 0.9949 0.0328
vn 0.2451 0.9688 0.0378
vn -0.6359 0.6783 0.3681
vn 0.8155 0.4643 0.3455
vn 0.1343 0.9762 0.1704
vt 0.981386 0.626047
vt 0.935458 0.669425
vt 0.964050 0.575960
vt 0.063294 0.600748
vt 0.020163 0.590635
vt 0.018596 0.574122
vt 0.187655 0.095039
vt 0.200908 0.093366
vt 0.201796 0.105051
vt 0.301981 0.210558
vt 0.240893 0.213263
vt 0.259056 0.191405
vt 0.771646 0.923218
vt 0.738739 0.835959
vt 0.810087 0.838184
vt 0.666785 0.860613
vt 0.661144 0.817672
vt 0.679168 0.788842
vt 0.179302 0.053829
vt 0.189798 0.040358
vt 0.198157 0.044188
vt 0.930174 0.537689
vt 0.933183 0.501185
vt 0.946415 0.502579
vt 0.258600 0.100177
vt 0.252607 0.060872
vt 0.280823 0.091830
vt 0.060406 0.527618
vt 0.014509 0.537319
vt 0.054799 0.504616
vt 0.768922 0.811734
vt 0.663017 0.853999
vt 0.632886 0.838095
vt 0.654826 0.813362
vt 0.022099 0.565678
vt 0.016969 0.553711
vt 0.027171 0.550036
vt 0.171592 0.077062
vt 0.181142 0.071051
vt 0.203298 0.077248
vt 0.031376 0.568043
vt 0.051988 0.575035
vt 0.011547 0.572928
vt 0.015396 0.560712
vt 0.578490 0.745179
vt 0.622691 0.747019
vt 0.582977 0.788687
vt 0.921109 0.629888
vt 0.644881 0.885012
vt 0.660697 0.888113
vt 0.644710 0.896335
vt 0.207575 0.069227
vt 0.028747 0.546461
vt 0.195106 0.083060
vt 0.213344 0.250117
vt 0.228747 0.216638
vt 0.806428 0.904803
vt 0.981209 0.558213
vt 0.300579 0.335788
vt 0.291928 0.326968
vt 0.306167 0.299380
vt 0.268324 0.288114
vt 0.311752 0.248905
vt 0.305700 0.289960
vt 0.195645 0.259168
vt 0.186577 0.236368
vt 0.206477 0.291367
vt 0.227653 0.283768
vt 0.284109 0.335562
vt 0.674755 0.757962
vt 0.665937 0.769928
vt 0.586863 0.735475
vt 0.605037 0.736393
vt 0.020455 0.521231
vt 0.036694 0.483763
vt 0.068722 0.471293
vt 0.695953 0.847701
vt 0.702501 0.812029
vt 0.682039 0.780012
vt 0.693848 0.779987
vt 0.069358 0.456912
vt 0.058031 0.455746
vt 0.700436 0.851912
vt 0.698292 0.916312
vt 0.228200 0.135599
vt 0.295641 0.109566
vt 0.308707 0.171880
vt 0.299624 0.192165
vt 0.634688 0.904507
vt 0.620359 0.915846
vt 0.614135 0.900764
vt 0.182318 0.063989
vt 0.188275 0.056257
vt 0.198581 0.064942
vt 0.285670 0.077658
vt 0.272436 0.057337
vt 0.640977 0.745922
vt 0.202168 0.212514
vt 0.188855 0.215857
vt 0.192876 0.196254
vt 0.209173 0.231565
vt 0.613110 0.847140
vt 0.629639 0.890593
vt 0.614765 0.810614
vt 0.053535 0.541525
vt 0.056066 0.557912
vt 0.034042 0.547336
vt 0.708323 0.816260
vt 0.718806 0.800960
vt 0.754479 0.804936
vt 0.974858 0.656119
vt 0.055954 0.565592
vt 0.644410 0.761137
vt 0.199628 0.287819
vt 0.220211 0.266386
vt 0.783283 0.921964
vt 0.777950 0.926971
vt 0.719048 0.927083
vt 0.660997 0.896418
vt 0.670754 0.885779
vt 0.663476 0.895348
vt 0.662204 0.888077
vt 0.252954 0.023930
vt 0.246569 0.025771
vt 0.179440 0.047041
vt 0.184707 0.040702
vt 0.722292 0.837601
vt 0.715803 0.841992
vt 0.196912 0.273235
vt 0.053874 0.616894
vt 0.034405 0.606489
vt 0.629845 0.738855
vt 0.616211 0.735829
vt 0.701901 0.840021
vt 0.705219 0.827080
vt 0.313448 0.179940
vt 0.313107 0.221190
vt 0.628605 0.912354
vt 0.642646 0.910003
vt 0.638589 0.908769
vt 0.649736 0.906927
vt 0.245984 0.108391
vt 0.080747 0.432709
vt 0.597786 0.863162
vt 0.588753 0.811428
vt 0.942374 0.552436
vt 0.189672 0.087583
vt 0.173153 0.084570
vt 0.243494 0.087270
vt 0.235749 0.114845
vt 0.238938 0.101875
vt 0.014258 0.591683
vt 0.015888 0.598878
vt 0.955606 0.518430
vt 0.203629 0.195785
vt 0.196189 0.189631
vt 0.219596 0.143917
vt 0.204199 0.199207
vt 0.658580 0.791695
vt 0.206881 0.067252
vt 0.172212 0.063648
vt 0.957864 0.515626
vt 0.969670 0.534577
vt 0.966555 0.537000
vt 0.970781 0.669001
vt 0.937148 0.681736
vt 0.697536 0.931191
vt 0.209205 0.218216
vt 0.187018 0.225190
vt 0.180801 0.062733
vt 0.176307 0.063208
vt 0.171357 0.058933
vt 0.179455 0.057191
vt 0.263265 0.329762
vt 0.286361 0.346904
vt 0.227160 0.192909
vt 0.194016 0.110854
vt 0.202866 0.126083
vt 0.206849 0.149404
vt 0.684904 0.869393
vt 0.068972 0.490868
vt 0.073472 0.458767
vt 0.749243 0.827055
vt 0.761948 0.809015
vt 0.980627 0.654798
vt 0.948655 0.497908
vt 0.951503 0.503191
vt 0.193948 0.085757
vt 0.202396 0.091158
vt 0.195583 0.089519
vt 0.298242 0.346572
vt 0.942186 0.499609
vt 0.946842 0.497721
vt 0.188608 0.084660
vt 0.186136 0.091581
vt 0.013813 0.585366
vt 0.012917 0.577360
vt 0.923590 0.517403
vt 0.926935 0.508248
vt 0.916315 0.556995
vt 0.013527 0.543486
vt 0.977241 0.548191
vt 0.069562 0.605970
vt 0.072850 0.618933
vt 0.068840 0.620796
vt 0.247454 0.013656
vt 0.060524 0.537062
vt 0.057318 0.574766
vt 0.067190 0.593492
vt 0.778674 0.814267
vt 0.807619 0.831696
vt 0.201922 0.061650
vt 0.203448 0.048153
vt 0.209894 0.063217
vt 0.636142 0.910513
vt 0.978596 0.663935
vt 0.812505 0.878117
vt 0.812496 0.905051
vt 0.696444 0.892630
vt 0.175698 0.052084
vt 0.254811 0.020689
vt 0.292995 0.352826
vt 0.915231 0.607568
vt 0.182997 0.090252
vt 0.021657 0.600602
vt 0.177776 0.050261
vt 0.014267 0.588104
vt 0.075877 0.446452
vt 0.635692 0.908056
vt 0.079548 0.621849
vt 0.204897 0.076308
vt 0.207642 0.055920
vt 0.705169 0.842987
vt 0.202340 0.046581
vt 0.925962 0.501271
vt 0.633537 0.736402
vt 0.307854 0.291681
vt 0.058977 0.542407
vt 0.928028 0.501397
vt 0.182885 0.040440
s 1
usemtl LSG
f 15/1/1 11/2/1 54/3/1
f 85/4/2 110/5/3 77/6/4
f 79/7/5 1/8/6 19/9/7
f 14/10/8 133/11/9 63/12/10
f 22/13/11 141/14/12 137/15/13
f 105/16/14 143/17/15 155/18/16
f 132/19/17 68/20/18 121/21/19
f 142/22/20 121/23/19 74/24/21
f 149/25/22 8/26/23 21/27/24
f 82/28/25 79/29/5 42/30/26
f 137/15/13 141/14/12 120/31/27
f 34/32/28 5/33/29 30/34/30
f 29/35/31 13/36/32 27/37/33
f 44/38/34 49/39/35 70/40/36
f 55/41/37 89/42/38 77/6/4
f 29/35/31 83/43/39 44/44/34
f 11/45/40 18/46/41 43/47/42
f 11/2/40 43/48/42 54/3/43
f 122/49/44 58/50/45 12/51/46
f 70/40/36 49/39/35 97/52/47
f 13/36/32 79/29/5 111/53/48
f 88/54/49 44/38/34 70/40/36
f 17/55/50 4/56/51 14/10/8
f 22/13/11 137/15/13 94/57/52
f 3/58/53 15/1/54 54/3/43
f 73/59/55 123/60/56 16/61/57
f 16/61/57 123/60/56 156/62/58
f 40/63/59 90/64/60 156/62/58
f 17/55/50 153/65/61 103/66/62
f 3/67/53 31/68/63 62/69/64
f 18/46/41 8/70/23 32/71/65
f 18/46/41 57/72/66 118/73/67
f 134/74/68 64/75/69 51/76/70
f 64/77/69 105/16/14 7/78/71
f 71/79/72 8/70/23 45/80/73
f 113/81/74 64/75/69 7/82/71
f 95/83/75 22/13/11 59/84/76
f 63/12/10 102/85/77 56/86/78
f 119/87/79 63/12/10 56/86/78
f 14/10/8 63/12/10 115/88/80
f 114/89/81 23/90/82 26/91/83
f 65/92/84 127/93/85 151/94/86
f 59/95/76 8/26/23 24/96/87
f 18/46/41 81/97/88 8/70/23
f 60/98/89 25/99/90 140/100/91
f 103/66/62 108/101/92 17/55/50
f 86/102/93 157/103/94 26/91/83
f 18/46/41 98/104/95 43/47/42
f 144/105/96 25/106/90 131/107/97
f 111/53/48 79/29/5 82/28/25
f 118/108/67 57/109/66 28/110/98
f 11/2/40 15/1/54 93/111/99
f 69/112/100 89/42/38 55/41/37
f 25/106/90 55/41/37 131/107/97
f 50/113/101 18/46/41 32/71/65
f 98/104/95 18/46/41 50/113/101
f 31/68/63 116/114/102 106/115/103
f 40/63/59 156/62/58 17/55/50
f 71/79/72 45/80/73 7/78/71
f 7/78/71 105/16/14 155/18/16
f 33/116/104 22/13/11 94/57/52
f 22/13/11 119/117/79 56/118/78
f 58/50/45 72/119/105 12/51/46
f 19/120/7 1/121/6 147/122/106
f 22/13/11 95/83/75 141/14/12
f 100/123/107 8/26/23 81/124/88
f 77/6/4 83/43/39 29/35/31
f 138/125/108 6/126/109 132/19/17
f 84/127/110 118/108/67 28/110/98
f 95/83/75 125/128/111 141/14/12
f 116/114/102 38/129/112 106/115/103
f 85/4/2 80/130/113 46/131/114
f 39/132/115 18/46/41 37/133/116
f 39/134/115 37/135/116 84/127/110
f 14/10/8 33/136/104 129/137/117
f 17/55/50 14/10/8 129/137/117
f 23/90/82 114/89/81 124/138/118
f 97/139/47 139/140/119 117/141/120
f 21/27/24 102/85/77 20/142/121
f 7/82/71 45/143/73 113/81/74
f 86/102/93 78/144/122 154/145/123
f 142/22/20 74/24/21 107/146/124
f 29/35/31 44/44/34 13/36/32
f 44/38/34 76/147/125 13/148/32
f 8/26/23 149/25/22 45/149/73
f 66/150/126 152/151/127 20/142/121
f 138/152/108 110/5/3 148/153/128
f 74/24/21 52/154/129 107/146/124
f 47/155/130 2/156/131 96/157/132
f 136/158/133 60/98/89 140/100/91
f 32/71/65 48/159/134 50/113/101
f 143/17/15 34/32/28 30/34/30
f 92/160/135 49/39/35 65/92/84
f 44/38/34 83/161/39 49/39/35
f 50/113/101 48/159/134 30/34/30
f 50/113/101 30/34/30 98/104/95
f 134/74/68 51/76/70 42/30/26
f 66/150/126 20/142/121 102/85/77
f 74/24/21 46/162/114 52/154/129
f 80/163/113 52/154/129 46/162/114
f 114/89/81 12/51/46 117/141/120
f 157/103/94 114/89/81 26/91/83
f 52/154/129 54/3/43 107/146/124
f 126/164/136 3/58/53 54/3/43
f 55/41/37 29/35/31 27/37/33
f 55/41/37 77/6/4 29/35/31
f 102/85/77 21/27/24 56/86/78
f 59/84/76 22/13/11 56/118/78
f 28/165/98 57/166/66 11/2/40
f 18/46/41 11/45/40 57/72/66
f 34/32/28 58/50/45 122/49/44
f 147/122/106 105/16/14 19/120/7
f 56/118/78 21/167/24 59/84/76
f 8/26/23 59/95/76 21/27/24
f 60/98/89 136/158/133 133/11/9
f 60/98/89 75/168/137 69/169/100
f 61/170/138 49/39/35 36/171/139
f 36/171/139 10/172/140 87/173/141
f 15/174/54 3/67/53 62/69/64
f 15/174/54 62/69/64 104/175/142
f 133/11/9 136/158/133 63/12/10
f 136/158/133 91/176/143 63/12/10
f 134/177/68 101/178/144 64/179/69
f 101/180/144 105/16/14 64/77/69
f 87/173/141 127/93/85 65/92/84
f 65/92/84 49/39/35 61/170/138
f 96/181/132 51/76/70 66/182/126
f 51/76/70 64/75/69 113/81/74
f 35/183/145 28/110/98 67/184/146
f 93/111/99 15/1/54 104/185/142
f 132/19/17 6/126/109 68/20/18
f 148/186/128 145/187/147 74/24/21
f 69/112/100 55/41/37 25/106/90
f 60/98/89 69/169/100 25/99/90
f 128/188/148 70/40/36 72/189/105
f 12/51/46 72/119/105 117/141/120
f 71/79/72 32/71/65 8/70/23
f 48/159/134 32/71/65 155/18/16
f 9/190/149 72/189/105 1/8/6
f 58/50/45 1/121/6 72/119/105
f 62/69/64 120/191/27 104/175/142
f 120/31/27 35/183/145 67/184/146
f 68/192/18 74/24/21 121/23/19
f 68/192/18 6/193/109 74/24/21
f 4/56/51 75/168/137 60/98/89
f 108/101/92 4/56/51 17/55/50
f 76/147/125 44/38/34 130/194/150
f 109/195/151 9/190/149 1/8/6
f 112/196/152 77/6/4 110/5/3
f 10/197/140 83/43/39 77/6/4
f 26/198/83 146/199/153 78/200/122
f 26/91/83 78/144/122 86/102/93
f 13/36/32 159/201/154 79/29/5
f 109/195/151 1/8/6 79/7/5
f 126/164/136 150/202/155 3/58/53
f 38/203/112 116/204/102 150/205/155
f 135/206/156 100/123/107 81/124/88
f 18/46/41 39/132/115 81/97/88
f 144/105/96 111/53/48 82/28/25
f 82/28/25 96/181/132 2/207/131
f 49/39/35 83/161/39 36/171/139
f 10/172/140 36/171/139 83/161/39
f 141/14/12 84/127/110 28/110/98
f 141/14/12 125/128/111 84/127/110
f 85/4/2 103/208/62 153/209/61
f 150/205/155 85/4/2 38/203/112
f 86/102/93 5/33/29 157/103/94
f 5/33/29 98/104/95 30/34/30
f 36/171/139 87/173/141 61/170/138
f 61/170/138 87/173/141 65/92/84
f 70/40/36 128/188/148 88/54/49
f 76/147/125 130/194/150 9/190/149
f 85/4/2 77/6/4 89/42/38
f 85/4/2 89/42/38 103/208/62
f 16/61/57 156/62/58 90/64/60
f 73/210/55 16/211/57 137/15/13
f 82/28/25 42/30/26 96/181/132
f 42/30/26 51/76/70 96/181/132
f 160/212/157 23/213/82 41/214/158
f 139/140/119 97/139/47 41/215/158
f 28/165/98 11/2/40 93/111/99
f 28/165/98 93/111/99 67/216/146
f 137/15/13 40/217/59 94/57/52
f 94/57/52 129/218/117 33/116/104
f 95/83/75 59/84/76 24/219/87
f 100/123/107 24/96/87 8/26/23
f 91/176/143 47/155/130 96/157/132
f 102/85/77 63/12/10 91/176/143
f 49/39/35 92/160/135 97/52/47
f 97/52/47 92/160/135 41/214/158
f 98/104/95 5/33/29 86/102/93
f 86/102/93 43/47/42 98/104/95
f 10/172/140 112/220/152 87/173/141
f 10/197/140 77/6/4 112/196/152
f 100/123/107 95/221/75 24/96/87
f 100/123/107 135/206/156 95/221/75
f 79/7/5 19/9/7 101/178/144
f 19/120/7 105/16/14 101/180/144
f 96/157/132 66/150/126 102/85/77
f 102/85/77 91/176/143 96/157/132
f 108/101/92 103/66/62 69/169/100
f 69/112/100 103/208/62 89/42/38
f 93/111/99 104/185/142 67/216/146
f 67/222/146 104/175/142 120/191/27
f 34/32/28 143/17/15 105/16/14
f 34/32/28 105/16/14 147/122/106
f 17/55/50 106/115/103 38/129/112
f 106/115/103 17/55/50 156/62/58
f 54/3/43 43/48/42 107/146/124
f 154/223/123 142/22/20 107/146/124
f 108/101/92 69/169/100 75/168/137
f 4/56/51 108/101/92 75/168/137
f 9/190/149 109/195/151 76/147/125
f 76/147/125 159/224/154 13/148/32
f 110/5/3 145/225/147 148/153/128
f 110/5/3 85/4/2 46/131/114
f 144/105/96 131/107/97 111/53/48
f 27/37/33 111/53/48 131/107/97
f 132/19/17 112/220/152 99/226/159
f 110/5/3 99/227/159 112/196/152
f 66/182/126 113/81/74 152/228/127
f 66/182/126 51/76/70 113/81/74
f 114/89/81 117/141/120 139/140/119
f 124/138/118 114/89/81 53/229/160
f 14/10/8 115/88/80 33/136/104
f 115/88/80 63/12/10 119/87/79
f 3/230/53 150/205/155 116/204/102
f 3/67/53 116/114/102 31/68/63
f 70/40/36 117/231/120 72/189/105
f 97/52/47 117/231/120 70/40/36
f 118/108/67 84/127/110 37/135/116
f 18/46/41 118/73/67 37/133/116
f 119/117/79 22/13/11 33/116/104
f 115/88/80 119/87/79 33/136/104
f 120/191/27 62/69/64 73/59/55
f 137/15/13 120/31/27 73/210/55
f 78/200/122 146/199/153 121/23/19
f 121/21/19 127/93/85 87/173/141
f 157/103/94 5/33/29 122/49/44
f 34/32/28 122/49/44 5/33/29
f 73/59/55 62/69/64 123/60/56
f 123/60/56 62/69/64 156/62/58
f 124/138/118 53/229/160 41/215/158
f 41/214/158 23/213/82 124/232/118
f 84/127/110 125/128/111 135/233/156
f 95/83/75 135/233/156 125/128/111
f 54/3/43 52/154/129 126/164/136
f 126/164/136 52/154/129 80/163/113
f 158/234/161 23/213/82 160/212/157
f 23/235/82 146/199/153 26/198/83
f 130/194/150 128/188/148 9/190/149
f 72/189/105 9/190/149 128/188/148
f 94/57/52 40/217/59 129/218/117
f 40/63/59 17/55/50 129/137/117
f 130/194/150 44/38/34 88/54/49
f 130/194/150 88/54/49 128/188/148
f 131/107/97 55/41/37 27/37/33
f 87/173/141 112/220/152 132/19/17
f 132/19/17 121/21/19 87/173/141
f 14/10/8 4/56/51 133/11/9
f 4/56/51 60/98/89 133/11/9
f 79/29/5 134/74/68 42/30/26
f 79/7/5 101/178/144 134/177/68
f 39/134/115 84/127/110 135/233/156
f 135/236/156 81/97/88 39/132/115
f 136/158/133 140/100/91 47/155/130
f 91/176/143 136/158/133 47/155/130
f 40/63/59 137/237/13 90/64/60
f 16/61/57 90/64/60 137/237/13
f 138/152/108 99/227/159 110/5/3
f 132/19/17 99/226/159 138/125/108
f 53/229/160 114/89/81 139/140/119
f 41/215/158 53/229/160 139/140/119
f 47/155/130 140/100/91 2/156/131
f 2/207/131 144/105/96 82/28/25
f 35/183/145 120/31/27 141/14/12
f 35/183/145 141/14/12 28/110/98
f 78/200/122 142/22/20 154/223/123
f 78/200/122 121/23/19 142/22/20
f 155/18/16 143/17/15 48/159/134
f 48/159/134 143/17/15 30/34/30
f 140/238/91 144/105/96 2/207/131
f 140/238/91 25/106/90 144/105/96
f 110/5/3 46/131/114 145/225/147
f 145/187/147 46/162/114 74/24/21
f 23/235/82 158/239/161 146/199/153
f 121/23/19 146/199/153 158/239/161
f 58/50/45 34/32/28 147/122/106
f 147/122/106 1/121/6 58/50/45
f 6/126/109 138/125/108 148/240/128
f 6/193/109 148/186/128 74/24/21
f 20/142/121 149/25/22 21/27/24
f 152/151/127 149/25/22 20/142/121
f 150/202/155 126/164/136 80/163/113
f 150/205/155 80/130/113 85/4/2
f 92/160/135 151/94/86 41/214/158
f 92/160/135 65/92/84 151/94/86
f 152/228/127 113/81/74 45/143/73
f 45/149/73 149/25/22 152/151/127
f 38/129/112 153/65/61 17/55/50
f 153/209/61 38/203/112 85/4/2
f 43/47/42 86/102/93 154/145/123
f 107/146/124 43/48/42 154/223/123
f 71/79/72 155/18/16 32/71/65
f 71/79/72 7/78/71 155/18/16
f 156/62/58 62/69/64 31/68/63
f 156/62/58 31/68/63 106/115/103
f 157/103/94 122/49/44 12/51/46
f 114/89/81 157/103/94 12/51/46
f 158/234/161 127/93/85 121/21/19
f 160/212/157 127/93/85 158/234/161
f 159/224/154 76/147/125 109/195/151
f 159/224/154 109/195/151 79/7/5
f 160/212/157 151/94/86 127/93/85
f 41/214/158 151/94/86 160/212/157
f 13/36/32 111/53/48 27/37/33
