# Blender 5.1.2
# www.blender.org
mtllib roca4.mtl
o Free+Pack+-+Rocks+Stylized
v -25.065149 25.161385 -18.837145
v -25.612307 32.077953 -13.075477
v -27.795790 34.693966 -20.097044
v -25.532623 11.955561 -10.938683
v -29.057035 21.841042 -9.762724
v -29.957516 35.545635 -12.485958
v -37.761684 -0.000001 -15.487101
v -27.578812 13.813190 -18.890902
v -30.204514 26.573563 -21.564262
v -37.377781 34.002678 -22.329010
v -37.695354 35.288265 -11.265841
v -36.542305 31.222139 -24.115147
v -37.577698 14.184420 -24.054323
v -41.510178 22.623735 -8.160131
v -40.176735 12.399791 -8.483750
v -41.258514 33.844280 -15.319851
v -42.045036 32.847763 -21.016479
v -42.962486 15.147770 -10.399063
v -42.468132 5.779214 -8.342277
v -42.810318 25.930086 -12.514896
v -44.655163 17.685444 -20.998323
v -43.870285 25.193411 -24.463125
v -43.551266 12.454597 -23.910530
v -25.809452 33.810665 -17.810453
v -28.049913 0.744180 -11.411790
v -26.744257 1.678793 -10.903363
v -30.521103 0.399826 -19.138384
v -29.536764 1.290472 -19.592049
v -36.882244 1.210715 -8.854989
v -37.010773 0.311967 -9.643177
v -41.669498 0.304394 -23.746643
v -42.198959 1.177023 -24.742588
v -41.832264 0.468638 -9.186315
v -42.379845 1.379291 -8.356090
v -44.315308 1.449825 -19.356503
v -43.522083 0.534726 -18.864532
vn 0.9967 0.0124 0.0798
vn 0.2560 -0.0178 0.9665
vn 0.3332 0.1870 0.9241
vn 0.3120 0.0912 0.9457
vn 0.0699 -0.8967 0.4370
vn -0.0104 -0.9999 0.0081
vn 0.3524 -0.8941 0.2762
vn 0.1884 0.9820 -0.0130
vn 0.6248 0.7413 0.2452
vn 0.4850 0.8694 0.0945
vn 0.1958 0.2008 0.9599
vn 0.3182 -0.8920 -0.3210
vn 0.0168 0.0179 0.9997
vn 0.0903 -0.0013 0.9959
vn 0.1382 -0.0122 0.9903
vn 0.1403 0.9876 -0.0707
vn -0.1548 0.9802 -0.1233
vn 0.7141 -0.0987 -0.6931
vn 0.2671 -0.0439 -0.9627
vn 0.2298 -0.0341 -0.9726
vn 0.5426 0.1404 -0.8281
vn 0.4221 -0.0188 -0.9064
vn 0.0649 0.2869 -0.9558
vn -0.1136 0.5177 -0.8480
vn -0.1609 0.0386 0.9862
vn 0.1465 0.1938 0.9700
vn 0.0346 0.0671 0.9971
vn -0.5105 -0.8599 -0.0058
vn -0.1672 -0.8940 -0.4157
vn -0.1229 0.9854 -0.1180
vn -0.2586 0.9583 -0.1215
vn -0.0556 0.1030 -0.9931
vn -0.7691 0.3489 0.5355
vn -0.8969 0.2932 0.3310
vn -0.9250 0.2241 0.3070
vn -0.9546 -0.0518 -0.2934
vn -0.9288 -0.0848 -0.3607
vn -0.9958 -0.0447 -0.0804
vn -0.9744 0.2093 0.0826
vn -0.9901 0.1387 0.0209
vn -0.0299 0.0200 -0.9994
vn -0.9817 0.0210 0.1894
vn -0.9981 0.0167 -0.0587
vn -0.9847 -0.0203 0.1731
vn -0.9850 -0.0169 0.1718
vn 0.9657 -0.1223 -0.2290
vn 0.7598 -0.1250 -0.6380
vn 0.8679 -0.0250 -0.4962
vn 0.9164 0.1240 -0.3806
vn 0.9980 0.0576 0.0256
vn 0.9493 -0.1247 -0.2887
vn 0.1989 -0.0201 0.9798
vn -0.3355 -0.8616 0.3810
vn -0.3434 0.4525 -0.8230
vn -0.9014 0.1700 0.3982
vn -0.2723 0.9535 -0.1292
vn -0.5867 -0.0308 0.8092
vn 0.4916 -0.8311 0.2601
vn 0.1140 -0.6597 0.7429
vn -0.4179 -0.7396 0.5276
vn -0.7360 -0.6711 -0.0889
vn 0.5128 -0.7602 -0.3989
vn -0.2716 -0.8016 -0.5326
vt 0.701326 0.640635
vt 0.740419 0.734723
vt 0.698347 0.778753
vt 0.300041 0.598911
vt 0.300242 0.734819
vt 0.272656 0.664112
vt 0.350581 0.833691
vt 0.314803 0.852409
vt 0.316602 0.781714
vt 0.396879 0.825484
vt 0.409087 0.789834
vt 0.439336 0.805385
vt 0.270328 0.758143
vt 0.273870 0.815472
vt 0.185488 0.553294
vt 0.187330 0.523681
vt 0.224302 0.524289
vt 0.450481 0.823496
vt 0.450287 0.889975
vt 0.773973 0.575498
vt 0.867243 0.579075
vt 0.832881 0.665388
vt 0.752923 0.800317
vt 0.776921 0.746528
vt 0.819620 0.779450
vt 0.822672 0.802169
vt 0.198659 0.599051
vt 0.217502 0.756249
vt 0.188901 0.668933
vt 0.306601 0.897622
vt 0.271936 0.896176
vt 0.376826 0.874359
vt 0.398460 0.905184
vt 0.871586 0.744012
vt 0.401124 0.583791
vt 0.366794 0.567636
vt 0.385185 0.513392
vt 0.309829 0.420244
vt 0.304532 0.343768
vt 0.343495 0.347134
vt 0.327927 0.559884
vt 0.304718 0.506346
vt 0.873658 0.656026
vt 0.402519 0.441319
vt 0.329619 0.456011
vt 0.418891 0.348670
vt 0.418171 0.378351
vt 0.755991 0.659396
vt 0.732096 0.792302
vt 0.711720 0.571483
vt 0.294107 0.529590
vt 0.363326 0.863706
vt 0.856084 0.800841
vt 0.417228 0.493366
vt 0.434957 0.919867
vt 0.175162 0.617242
vt 0.317354 0.769803
vt 0.357863 0.829642
vt 0.372266 0.866839
vt 0.306239 0.906775
vt 0.266195 0.809356
vt 0.264579 0.903115
s 1
usemtl LSG
f 4/1/1 1/2/1 2/3/1
f 4/4/2 2/5/3 5/6/4
f 30/7/5 7/8/6 25/9/7
f 6/10/8 2/11/9 24/12/10
f 5/6/4 2/5/3 6/13/11
f 7/8/6 27/14/12 25/9/7
f 19/15/13 34/16/14 29/17/15
f 6/10/8 3/18/16 10/19/17
f 28/20/18 32/21/19 13/22/20
f 3/23/21 9/24/22 12/25/23
f 12/25/23 10/26/24 3/23/21
f 4/4/2 5/6/4 29/17/15
f 15/27/25 19/15/13 29/17/15
f 6/13/11 11/28/26 14/29/27
f 36/30/28 31/31/29 7/8/6
f 14/29/27 15/27/25 5/6/4
f 11/32/30 10/19/17 16/33/31
f 15/27/25 29/17/15 5/6/4
f 12/25/23 13/22/20 22/34/32
f 11/35/33 16/36/34 20/37/35
f 23/38/36 32/39/37 35/40/38
f 16/36/34 17/41/39 20/37/35
f 22/42/40 20/37/35 17/41/39
f 23/43/41 13/22/20 32/21/19
f 18/44/42 20/37/35 21/45/43
f 35/40/38 34/46/44 19/47/45
f 22/42/40 21/45/43 20/37/35
f 22/42/40 23/38/36 21/45/43
f 4/1/46 8/48/47 1/2/48
f 24/49/49 2/3/50 1/2/48
f 3/23/21 1/2/48 9/24/22
f 1/2/48 8/48/47 13/22/20
f 26/50/51 8/48/47 4/1/46
f 29/17/15 26/51/52 4/4/2
f 1/2/48 13/22/20 9/24/22
f 31/31/29 27/14/12 7/8/6
f 11/32/30 6/10/8 10/19/17
f 13/22/20 12/25/23 9/24/22
f 5/6/4 6/13/11 14/29/27
f 8/48/47 28/20/18 13/22/20
f 33/52/53 7/8/6 30/7/5
f 12/25/23 22/34/32 10/26/24
f 22/34/32 17/53/54 10/26/24
f 20/37/35 14/54/55 11/35/33
f 16/33/31 10/19/17 17/55/56
f 21/45/43 35/40/38 18/44/42
f 15/27/25 18/56/57 19/15/13
f 15/27/25 14/29/27 18/56/57
f 14/54/55 20/37/35 18/44/42
f 13/22/20 23/43/41 22/34/32
f 36/30/28 7/8/6 33/52/53
f 35/40/38 19/47/45 18/44/42
f 21/45/43 23/38/36 35/40/38
f 3/18/16 6/10/8 24/12/10
f 3/23/21 24/49/49 1/2/48
f 26/57/58 29/58/59 30/7/5 25/9/7
f 36/30/28 33/52/53 34/59/60 35/60/61
f 33/52/53 30/7/5 29/58/59 34/59/60
f 25/9/7 27/14/12 28/61/62 26/57/58
f 32/62/63 28/61/62 27/14/12 31/31/29
f 31/31/29 36/30/28 35/60/61 32/62/63
f 8/48/47 26/50/51 28/20/18
